<mxfile host="app.diagrams.net" modified="2021-06-01T09:46:45.162Z" agent="5.0 (Windows NT 10.0; Win64; x64) AppleWebKit/537.36 (KHTML, like Gecko) Chrome/91.0.4472.77 Safari/537.36" etag="FZQAX5MKgGPuajs6Fj_m" version="14.7.2" type="github">
  <diagram id="N-ru6f8Y_OG2epu-IVS1" name="Page-1">
    <mxGraphModel dx="1422" dy="762" grid="1" gridSize="10" guides="1" tooltips="1" connect="1" arrows="1" fold="1" page="1" pageScale="1" pageWidth="827" pageHeight="1169" math="0" shadow="0">
      <root>
        <mxCell id="0" />
        <mxCell id="1" parent="0" />
        <mxCell id="39zNZT4erERow79e_R9T-37" value="Azure" style="rounded=1;whiteSpace=wrap;html=1;dashed=1;verticalAlign=top;" parent="1" vertex="1">
          <mxGeometry x="290" y="10" width="950" height="490" as="geometry" />
        </mxCell>
        <mxCell id="39zNZT4erERow79e_R9T-7" value="Security Subscription" style="rounded=1;whiteSpace=wrap;html=1;verticalAlign=top;" parent="1" vertex="1">
          <mxGeometry x="300" y="60" width="160" height="130" as="geometry" />
        </mxCell>
        <mxCell id="39zNZT4erERow79e_R9T-6" value="Webhook&lt;br&gt;(on commit)" style="edgeStyle=orthogonalEdgeStyle;rounded=0;orthogonalLoop=1;jettySize=auto;html=1;entryX=0;entryY=0.5;entryDx=0;entryDy=0;" parent="1" source="39zNZT4erERow79e_R9T-1" target="39zNZT4erERow79e_R9T-4" edge="1">
          <mxGeometry relative="1" as="geometry" />
        </mxCell>
        <mxCell id="39zNZT4erERow79e_R9T-1" value="GitHub" style="rounded=1;whiteSpace=wrap;html=1;verticalAlign=top;" parent="1" vertex="1">
          <mxGeometry x="80" y="120" width="120" height="60" as="geometry" />
        </mxCell>
        <mxCell id="39zNZT4erERow79e_R9T-3" value="" style="shape=image;html=1;verticalAlign=top;verticalLabelPosition=bottom;labelBackgroundColor=#ffffff;imageAspect=0;aspect=fixed;image=https://cdn1.iconfinder.com/data/icons/logotypes/32/github-128.png" parent="1" vertex="1">
          <mxGeometry x="125" y="143" width="30" height="30" as="geometry" />
        </mxCell>
        <mxCell id="39zNZT4erERow79e_R9T-4" value="Azure App Gateway" style="rounded=1;whiteSpace=wrap;html=1;verticalAlign=top;" parent="1" vertex="1">
          <mxGeometry x="320" y="120" width="120" height="60" as="geometry" />
        </mxCell>
        <mxCell id="39zNZT4erERow79e_R9T-5" value="" style="aspect=fixed;html=1;points=[];align=center;image;fontSize=12;image=img/lib/mscae/Application_Gateway.svg;" parent="1" vertex="1">
          <mxGeometry x="365" y="143" width="30" height="30" as="geometry" />
        </mxCell>
        <mxCell id="39zNZT4erERow79e_R9T-8" value="" style="aspect=fixed;html=1;points=[];align=center;image;fontSize=12;image=img/lib/mscae/Key.svg;" parent="1" vertex="1">
          <mxGeometry x="370.70000000000005" y="80" width="18.6" height="30" as="geometry" />
        </mxCell>
        <mxCell id="39zNZT4erERow79e_R9T-9" value="FFC Shared Subscription" style="rounded=1;whiteSpace=wrap;html=1;verticalAlign=top;" parent="1" vertex="1">
          <mxGeometry x="550" y="60" width="390" height="130" as="geometry" />
        </mxCell>
        <mxCell id="39zNZT4erERow79e_R9T-16" style="edgeStyle=orthogonalEdgeStyle;rounded=0;orthogonalLoop=1;jettySize=auto;html=1;entryX=0;entryY=0.5;entryDx=0;entryDy=0;" parent="1" target="39zNZT4erERow79e_R9T-15" edge="1">
          <mxGeometry relative="1" as="geometry">
            <mxPoint x="670" y="149.5" as="sourcePoint" />
            <mxPoint x="790" y="149.5" as="targetPoint" />
          </mxGeometry>
        </mxCell>
        <mxCell id="39zNZT4erERow79e_R9T-33" value="Webhook&lt;br&gt;secret &lt;br&gt;authenticated" style="edgeLabel;html=1;align=center;verticalAlign=middle;resizable=0;points=[];" parent="39zNZT4erERow79e_R9T-16" vertex="1" connectable="0">
          <mxGeometry x="0.25" y="-1" relative="1" as="geometry">
            <mxPoint x="-7.5" y="-1" as="offset" />
          </mxGeometry>
        </mxCell>
        <mxCell id="39zNZT4erERow79e_R9T-10" value="&lt;font style=&quot;font-size: 11px&quot;&gt;Azure API Management&lt;/font&gt;" style="rounded=1;whiteSpace=wrap;html=1;verticalAlign=top;" parent="1" vertex="1">
          <mxGeometry x="570" y="120" width="120" height="60" as="geometry" />
        </mxCell>
        <mxCell id="39zNZT4erERow79e_R9T-12" value="" style="aspect=fixed;html=1;points=[];align=center;image;fontSize=12;image=img/lib/mscae/Key.svg;" parent="1" vertex="1">
          <mxGeometry x="735.7" y="80" width="18.6" height="30" as="geometry" />
        </mxCell>
        <mxCell id="39zNZT4erERow79e_R9T-13" value="" style="aspect=fixed;html=1;points=[];align=center;image;fontSize=12;image=img/lib/mscae/API_Management.svg;" parent="1" vertex="1">
          <mxGeometry x="615" y="147.8" width="30" height="25.2" as="geometry" />
        </mxCell>
        <mxCell id="39zNZT4erERow79e_R9T-14" style="edgeStyle=orthogonalEdgeStyle;rounded=0;orthogonalLoop=1;jettySize=auto;html=1;entryX=0;entryY=0.5;entryDx=0;entryDy=0;" parent="1" source="39zNZT4erERow79e_R9T-4" target="39zNZT4erERow79e_R9T-10" edge="1">
          <mxGeometry relative="1" as="geometry" />
        </mxCell>
        <mxCell id="39zNZT4erERow79e_R9T-31" value="WAF routed" style="edgeLabel;html=1;align=center;verticalAlign=middle;resizable=0;points=[];" parent="39zNZT4erERow79e_R9T-14" vertex="1" connectable="0">
          <mxGeometry x="0.2" y="-3" relative="1" as="geometry">
            <mxPoint x="-18" y="-3" as="offset" />
          </mxGeometry>
        </mxCell>
        <mxCell id="39zNZT4erERow79e_R9T-15" value="Jenkins CI" style="rounded=1;whiteSpace=wrap;html=1;verticalAlign=top;" parent="1" vertex="1">
          <mxGeometry x="810" y="120" width="120" height="60" as="geometry" />
        </mxCell>
        <mxCell id="39zNZT4erERow79e_R9T-18" value="FFC Sandpit Subscription" style="rounded=1;whiteSpace=wrap;html=1;verticalAlign=top;" parent="1" vertex="1">
          <mxGeometry x="1060" y="60" width="160" height="410" as="geometry" />
        </mxCell>
        <mxCell id="39zNZT4erERow79e_R9T-19" value="&lt;font style=&quot;font-size: 10px&quot;&gt;Azure Kubernetes Service&lt;/font&gt;" style="rounded=1;whiteSpace=wrap;html=1;verticalAlign=top;" parent="1" vertex="1">
          <mxGeometry x="1080" y="120" width="120" height="60" as="geometry" />
        </mxCell>
        <mxCell id="39zNZT4erERow79e_R9T-21" value="" style="aspect=fixed;html=1;points=[];align=center;image;fontSize=12;image=img/lib/mscae/Key.svg;" parent="1" vertex="1">
          <mxGeometry x="1130.7" y="80" width="18.6" height="30" as="geometry" />
        </mxCell>
        <mxCell id="39zNZT4erERow79e_R9T-23" value="" style="aspect=fixed;html=1;points=[];align=center;image;fontSize=12;image=img/lib/azure2/compute/Kubernetes_Services.svg;" parent="1" vertex="1">
          <mxGeometry x="1125" y="146.53" width="30" height="26.47" as="geometry" />
        </mxCell>
        <mxCell id="39zNZT4erERow79e_R9T-22" value="Dynamic&lt;br&gt;PR&lt;br&gt;deployment&lt;br&gt;(Managed Identity)" style="edgeStyle=orthogonalEdgeStyle;rounded=0;orthogonalLoop=1;jettySize=auto;html=1;" parent="1" source="39zNZT4erERow79e_R9T-15" target="39zNZT4erERow79e_R9T-19" edge="1">
          <mxGeometry y="30" relative="1" as="geometry">
            <mxPoint as="offset" />
          </mxGeometry>
        </mxCell>
        <mxCell id="39zNZT4erERow79e_R9T-24" value="&lt;font style=&quot;font-size: 12px&quot;&gt;Azure Service Bus&lt;/font&gt;" style="rounded=1;whiteSpace=wrap;html=1;verticalAlign=top;" parent="1" vertex="1">
          <mxGeometry x="1080" y="190" width="120" height="60" as="geometry" />
        </mxCell>
        <mxCell id="39zNZT4erERow79e_R9T-25" value="" style="aspect=fixed;html=1;points=[];align=center;image;fontSize=12;image=img/lib/mscae/Service_Bus.svg;" parent="1" vertex="1">
          <mxGeometry x="1125" y="216" width="30" height="30" as="geometry" />
        </mxCell>
        <mxCell id="39zNZT4erERow79e_R9T-26" value="&lt;font style=&quot;font-size: 12px&quot;&gt;Azure PostgreSQL&lt;/font&gt;" style="rounded=1;whiteSpace=wrap;html=1;verticalAlign=top;" parent="1" vertex="1">
          <mxGeometry x="1080" y="260" width="120" height="60" as="geometry" />
        </mxCell>
        <mxCell id="39zNZT4erERow79e_R9T-27" value="" style="aspect=fixed;html=1;points=[];align=center;image;fontSize=12;image=img/lib/mscae/Azure_Database_for_PostgreSQL_servers.svg;" parent="1" vertex="1">
          <mxGeometry x="1128.6" y="287" width="22.8" height="30" as="geometry" />
        </mxCell>
        <mxCell id="39zNZT4erERow79e_R9T-29" style="edgeStyle=orthogonalEdgeStyle;rounded=0;orthogonalLoop=1;jettySize=auto;html=1;entryX=0;entryY=0.5;entryDx=0;entryDy=0;" parent="1" source="39zNZT4erERow79e_R9T-15" target="39zNZT4erERow79e_R9T-26" edge="1">
          <mxGeometry relative="1" as="geometry">
            <Array as="points">
              <mxPoint x="1010" y="150" />
              <mxPoint x="1010" y="290" />
            </Array>
          </mxGeometry>
        </mxCell>
        <mxCell id="39zNZT4erERow79e_R9T-28" style="edgeStyle=orthogonalEdgeStyle;rounded=0;orthogonalLoop=1;jettySize=auto;html=1;entryX=0;entryY=0.5;entryDx=0;entryDy=0;" parent="1" source="39zNZT4erERow79e_R9T-15" target="39zNZT4erERow79e_R9T-24" edge="1">
          <mxGeometry relative="1" as="geometry">
            <Array as="points">
              <mxPoint x="1010" y="150" />
              <mxPoint x="1010" y="220" />
            </Array>
          </mxGeometry>
        </mxCell>
        <mxCell id="39zNZT4erERow79e_R9T-34" value="&lt;font style=&quot;font-size: 12px&quot;&gt;Azure Redis&lt;/font&gt;" style="rounded=1;whiteSpace=wrap;html=1;verticalAlign=top;" parent="1" vertex="1">
          <mxGeometry x="1080" y="330" width="120" height="60" as="geometry" />
        </mxCell>
        <mxCell id="39zNZT4erERow79e_R9T-35" value="" style="aspect=fixed;html=1;points=[];align=center;image;fontSize=12;image=img/lib/mscae/Cache_Redis_Product.svg;" parent="1" vertex="1">
          <mxGeometry x="1125" y="360" width="30" height="25.2" as="geometry" />
        </mxCell>
        <mxCell id="39zNZT4erERow79e_R9T-36" style="edgeStyle=orthogonalEdgeStyle;rounded=0;orthogonalLoop=1;jettySize=auto;html=1;entryX=0;entryY=0.5;entryDx=0;entryDy=0;" parent="1" source="39zNZT4erERow79e_R9T-15" target="39zNZT4erERow79e_R9T-34" edge="1">
          <mxGeometry relative="1" as="geometry">
            <Array as="points">
              <mxPoint x="1010" y="150" />
              <mxPoint x="1010" y="360" />
            </Array>
          </mxGeometry>
        </mxCell>
        <mxCell id="39zNZT4erERow79e_R9T-38" value="" style="aspect=fixed;html=1;points=[];align=center;image;fontSize=12;image=img/lib/mscae/VM_Linux.svg;dashed=1;" parent="1" vertex="1">
          <mxGeometry x="855" y="145.97000000000003" width="30" height="27.6" as="geometry" />
        </mxCell>
        <mxCell id="39zNZT4erERow79e_R9T-39" value="&lt;font style=&quot;font-size: 12px&quot;&gt;Azure Event Hubs&lt;/font&gt;" style="rounded=1;whiteSpace=wrap;html=1;verticalAlign=top;" parent="1" vertex="1">
          <mxGeometry x="1080" y="400" width="120" height="60" as="geometry" />
        </mxCell>
        <mxCell id="39zNZT4erERow79e_R9T-40" value="" style="aspect=fixed;html=1;points=[];align=center;image;fontSize=12;image=img/lib/mscae/Event_Hubs.svg;dashed=1;" parent="1" vertex="1">
          <mxGeometry x="1125" y="424.75" width="30" height="31.25" as="geometry" />
        </mxCell>
        <mxCell id="39zNZT4erERow79e_R9T-41" style="edgeStyle=orthogonalEdgeStyle;rounded=0;orthogonalLoop=1;jettySize=auto;html=1;entryX=0;entryY=0.5;entryDx=0;entryDy=0;" parent="1" source="39zNZT4erERow79e_R9T-15" target="39zNZT4erERow79e_R9T-39" edge="1">
          <mxGeometry relative="1" as="geometry">
            <Array as="points">
              <mxPoint x="1010" y="150" />
              <mxPoint x="1010" y="430" />
            </Array>
          </mxGeometry>
        </mxCell>
        <mxCell id="39zNZT4erERow79e_R9T-43" value="" style="shape=image;verticalLabelPosition=bottom;labelBackgroundColor=#ffffff;verticalAlign=top;aspect=fixed;imageAspect=0;image=data:image/png,iVBORw0KGgoAAAANSUhEUgAABPQAAALACAYAAAAUgizuAAAgAElEQVR4AezdP44VybYv4DuUN4I7AkbACBgBIwD3Ghi4ZWIh4SIsvAM6DkKoJZBwoIWBWkKCNjAa6WLgPKOeFv326c2mqth/IjLWivxCalUV1I6M/CIyW/kjIuO/zhUCBAgQIECAAAECBAgQIECAAAECBMoI/FeZlmooAQIECBAgQIAAAQIECBAgQIAAAQLnAj2DgAABAgQIECBAgAABAgQIECBAgEAhAYFeoc7SVAIECBAgQIAAAQIECBAgQIAAAQICPWOAAAECBAgQIECAAAECBAgQIECAQCEBgV6hztJUAgQIECBAgAABAgQIECBAgAABAgI9Y4AAAQIECBAgQIAAAQIECBAgQIBAIQGBXqHO0lQCBAgQIECAAAECBAgQIECAAAECAj1jgAABAgQIECBAgAABAgQIECBAgEAhAYFeoc7SVAIECBAgQIAAAQIECBAgQIAAAQICPWOAAAECBAgQIECAAAECBAgQIECAQCEBgV6hztJUAgQIECBAgAABAgQIECBAgAABAgI9Y4AAAQIECBAgQIAAAQIECBAgQIBAIQGBXqHO0lQCBAgQIECAAAECBAgQIECAAAECAj1jgAABAgQIECBAgAABAgQIECBAgEAhAYFeoc7SVAIECBAgQIAAAQIECBAgQIAAAQICPWOAAAECBAgQIECAAAECBAgQIECAQCEBgV6hztJUAgQIECBAgAABAgQIECBAgAABAgI9Y4AAAQIECBAgQIAAAQIECBAgQIBAIQGBXqHO0lQCBAgQIECAAAECBAgQIECAAAECAj1jgAABAgQIECBAgAABAgQIECBAgEAhAYFeoc7SVAIECBAgQIAAAQIECBAgQIAAAQICPWOAAAECBAgQIECAAAECBAgQIECAQCEBgV6hztJUAgQIECBAgAABAgQIECBAgAABAgI9Y4AAAQIECBAgQIAAAQIECBAgQIBAIQGBXqHO0lQCBAgQIECAAAECBAgQIECAAAECAj1jgAABAgQIECBAgAABAgQIECBAgEAhAYFeoc7SVAIECBAgQIAAAQIECBAgQIAAAQICPWOAAAECBAgQIECAAAECBAgQIECAQCEBgV6hztJUAgQIECBAgAABAgQIECBAgAABAgI9Y4AAAQIECBAgQIAAAQIECBAgQIBAIQGBXqHO0lQCBAgQIECAAAECBAgQIECAAAECAj1jgAABAgQIECBAgAABAgQIECBAgEAhAYFeoc7SVAIECBAgQIAAAQIECBAgQIAAAQICPWOAAAECBAgQIECAAAECBAgQIECAQCEBgV6hztJUAgQIECBAgAABAgQIECBAgAABAgI9Y4AAAQIECBAgQIAAAQIECBAgQIBAIQGBXqHO0lQCBAgQIECAAAECBAgQIECAAAECAj1jgAABAgQIECBAgAABAgQIECBAgEAhAYFeoc7SVAIECBAgQIAAAQIECBAgQIAAAQICPWOAAAECBAgQIECAAAECBAgQIECAQCEBgV6hztJUAgQIECBAgAABAgQIECBAgAABAgI9Y4AAAQIECBAgQIAAAQIECBAgQIBAIQGBXqHO0lQCBAgQIECAAAECBAgQIECAAAECAj1jgAABAgQIECBAgAABAgQIECBAgEAhAYFeoc7SVAIECBAgQIAAAQIECBAgQIAAAQICPWOAAAECBAgQIECAAAECBAgQIECAQCEBgV6hztJUAgQIECBAgAABAgQIECBAgAABAgI9Y4AAAQIECBAgQIAAAQIECBAgQIBAIQGBXqHO0lQCBAgQIECAAAECBAgQIECAAAECAj1jgAABAgQIECBAgAABAgQIECBAgEAhAYFeoc7SVAIECBAgQIAAAQIECBAgQIAAAQICPWOAAAECBAgQIECAAAECBAgQIECAQCEBgV6hztJUAgQIECBAgAABAgQIECBAgAABAgI9Y4AAAQIECBAgQIAAAQIECBAgQIBAIQGBXqHO0lQCBAgQIECAAAECBAgQIECAAAECAj1jgAABAgQIECBAgAABAgQIECBAgEAhAYFeoc7SVAIECBAgQIAAAQIECBAgQIAAAQICPWOAAAECBAgQIECAAAECBAgQIECAQCEBgV6hztJUAgQIECBAgAABAgQIECBAgAABAgI9Y4AAAQIECBAgQIAAAQIECBAgQIBAIQGBXqHO0lQCBAgQIECAAAECBAgQIECAAAECAj1jgAABAgQIECBAgAABAgQIECBAgEAhAYFeoc7SVAIECBAgQIAAAQIECBAgQIAAAQICPWOAAAECBAgQIECAAAECBAgQIECAQCEBgV6hztJUAgQIECBAgAABAgQIECBAgAABAgI9Y4AAAQIECBAgQIAAAQIECBAgQIBAIQGBXqHO0lQCBAgQIECAAAECBAgQIECAAAECAj1jgAABAgQIECBAgAABAgQIECBAgEAhAYFeoc7SVAIECBAgQIAAAQIECBAgQIAAAQICPWOAAAECBAgQIECAAAECBAgQIECAQCEBgV6hztJUAgQIECBAgAABAgQIECBAgAABAgI9Y4AAAQIECBAgQIAAAQIECBAgQIBAIQGBXqHO0lQCBAgQIECAAAECBAgQIECAAAECAj1jgAABAgQIECBAgAABAgQIECBAgEAhAYFeoc7SVAIECBAgQIAAAQIECBAgQIAAAQICPWOAAAECBAgQIECAAAECBAgQIECAQCEBgV6hztJUAgQIECBAgAABAgQIECBAgAABAgI9Y4AAAQIECBAgQIAAAQIECBAgQIBAIQGBXqHO0lQCBAgQIECAAAECBAgQIECAAAECAj1jgAABAgQIECBAgAABAgQIECBAgEAhAYFeoc7SVAIECBAgQIAAAQIECBAgQIAAAQICPWOAAAECBAgQIECAAAECBAgQIECAQCEBgV6hztJUAgQIECBAgAABAgQIECBAgAABAgI9Y4AAAQIECBAgQIAAAQIECBAgQIBAIQGBXqHO0lQCBAgQIECAAAECBAgQIECAAAECAj1jgAABAgQIECBAgAABAgQIECBAgEAhAYFeoc7SVAIECBAgQIAAAQIECBAgQIAAAQICPWOAAAECBAgQIECAAAECBAgQIECAQCEBgV6hztJUAgQIECBAgAABAgQIECBAgAABAgI9Y4AAAQIECBAgQIAAAQIECBAgQIBAIQGBXqHO0lQCBAgQIECAAAECBAgQIECAAAECAj1jgAABAgQIECBAgAABAgQIECBAgEAhAYFeoc7SVAIECBAgQIAAAQIECBAgQIAAAQICPWOAAAECBAgQIECAAAECBAgQIECAQCEBgV6hztJUAgQIECBAgAABAgQIECBAgAABAgI9Y4AAAQIECBAgQIAAAQIECBAgQIBAIQGBXqHO0lQCBAgQIECAAAECBAgQIECAAAECAj1jgAABAgQIECBAgAABAgQIECBAgEAhAYFeoc7SVAIECBAgQIAAAQIECBAgQIAAAQICPWOAAAECBAgQIECAAAECBAgQIECAQCEBgV6hztJUAgQIECBAgAABAgQIECBAgAABAgI9Y4AAAQIECBAgQIAAAQIECBAgQIBAIQGBXqHO0lQCBAgQIECAAAECBAgQIECAAAECAj1jgAABAgQIECBAgAABAgQIECBAgEAhAYFeoc7SVAIECBAgQIAAAQIECBAgQIAAAQICPWOAAAECBAgQIECAAAECBAgQIECAQCEBgV6hztJUAgQIECBAgAABAgQIECBAgAABAgI9Y4AAAQIECBAgQIAAAQIECBAgQIBAIQGBXqHO0lQCBAgQIECAAAECBAgQIECAAAECAj1jgAABAgQIECBAgAABAgQIECBAgEAhAYFeoc7SVAIECBAgQIAAAQIECBAgQIAAAQICPWOAAAECBAgQIECAAAECBAgQIECAQCEBgV6hztJUAgQIECBAgAABAgQIECBAgAABAgI9Y4AAAQIECBAgQIAAAQIECBAgQIBAIQGBXqHO0lQCBAgQIECAAAECBAgQIECAAAECAj1jgAABAgQIECBAgAABAgQIECBAgEAhAYFeoc7SVAIECBAgQIAAAQIECBAgQIAAAQICPWOAAAECBAgQIECAAAECBAgQIECAQCEBgV6hztJUAgQIECBAgAABAgQIECBAgAABAgI9Y4AAAQIECBAgQIAAAQIECBAgQIBAIQGBXqHO0lQCBAgQIECAAAECBAgQIECAAAECAj1jgAABAgQIECBAgAABAgQIECBAgEAhAYFeoc7SVAIECBAgQIAAAQIECBAgQIAAAQICPWOAAAECBAgQIECAAAECBAgQIECAQCEBgV6hztJUAgQIECBAgAABAgQIECBAgAABAgI9Y4AAAQIECBAgQIAAAQIECBAgQIBAIQGBXqHO0lQCBAgQIECAAAECBAgQIECAAAECAj1jgAABAgQIECBAgAABAgQIECBAgEAhAYFeoc7SVAIECBAgQIAAAQIECBAgQIAAAQICPWOAAAECBAgQIECAAAECBAgQIECAQCEBgV6hztJUAgQIECBAgAABAgQIECBAgAABAgI9Y4AAAQIECBAgQIAAAQIECBAgQIBAIQGBXqHO0lQCBAgQIECAAAECBAgQIECAAAECAj1jgAABAgQIECBAgAABAgQIECBAgEAhAYFeoc7SVAIECBAgQIAAAQIECBAgQIAAAQICPWOAAAECBAgQIECAAAECBAgQIECAQCEBgV6hztJUAgQIECBAgAABAgQIECBAgAABAgI9Y4AAAQIECBAgQIAAAQIECBAgQIBAIQGBXqHO0lQCBAgQIECAAAECBAgQIECAAAECAj1jgAABAgQIECBAgAABAgQIECBAgEAhAYFeoc7SVAIECBAgQIAAAQIECBAgQIAAAQICPWOAAAECBAgQIECAAAECBAgQIECAQCEBgV6hztJUAgQIECBAgAABAgQIECBAgAABAgI9Y4AAAQIECBAgQIAAAQIECBAgQIBAIQGBXqHO0lQCBAgQIECAAAECBAgQIECAAAECAj1jgAABAgQIECBAgAABAgQIECBAgEAhAYFeoc7SVAIECBAgQIAAAQIECBAgQIAAAQICPWOAAAECBAgQIECAAAECBAgQIECAQCEBgV6hztJUAgQIECBAgAABAgQIECBAgAABAgI9Y4AAAQIECBAgQIAAAQIECBAgQIBAIQGBXqHO0lQCBAgQIECAAAECBAgQIECAAAECAj1jgAABAgQIECBAgAABAgQIECBAgEAhAYFeoc7SVAIECBAgQIAAAQIECBAgQIAAAQICPWOAAAECBAgQIECAAAECBAgQIECAQCEBgV6hztJUAgQIECBAgAABAgQIECBAgAABAgI9Y4AAAQIECBAgQIAAAQIECBAgQIBAIQGBXqHO0lQCBAgQIECAAAECBAgQIECAAAECAj1jgAABAgQIECBAgAABAgQIECBAgEAhAYFeoc7SVAIECBAgQIAAAQIECBAgQIAAAQICPWOAAAECBAgQIECAAAECBAgQIECAQCEBgV6hztJUAgQIECBAgAABAgQIECBAgAABAgI9Y4AAAQIECBAgQIAAAQIECBAgQIBAIQGBXqHO0lQCBAgQIECAAAECBAgQIECAAAECAj1jgAABAgQIECBAgAABAgQIECBAgEAhAYFeoc7SVAIECBAgQIBABoGPX75laIY2ECBAgAABAgRWKyDQW23XO3ECBAgQIECAwOEC959/OI//FAIECBAgQIAAgXECAr1x9o5MgAABAgQIECglcOfxu/P//p9/n//vt/9bqt0aS4AAAQIECBCYTUCgN1uPOh8CBAgQIECAQGOBCPBuPXxz/n9u/+v87On7xrWrjgABAgQIECBA4FABgd6hYn6fAAECBAgQILAigXhf3o17L7+HeTE7z/vzVtT5TpUAAQIECBBIKyDQS9s1GkaAAAECBAgQGCvw+59fz6/dffY9zDM7b2xfODoBAgQIECBAYFtAoLet4XsCBAgQIECAAIHvAk/efv7+vrwI8uI/s/MMDAIECBAgQIBAHgGBXp6+0BICBAgQIECAQAqBeE/eJsjbfL354HWKtmkEAQIECBAgQIDA+blAzyggQIAAAQIECBD4LrC9+cUmyNt8/e2PvygRIECAAAECBAgkERDoJekIzSBAgAABAgQIjBSIMC9m4W0CvO2vZueN7BnHJkCAAAECBAj8LCDQ+9nEnxAgQIAAAQIEViWwu/nFdpgX35udt6rh4GQJECBAgACBAgICvQKdpIkECBAgQIAAgV4CEdbFhhe7Id7m5xv3XvY6tHoJECBAgAABAgSOFBDoHQnnYwQIECBAgACB6gL3n3+4MsyLUC92u1UIECBAgAABAgRyCQj0cvWH1hAgQIAAAQIEugtctfnFZmZefL1+9qJ7WxyAAAECBAgQIEDgcAGB3uFmPkGAAAECBAgQKCtw1eYX22FefP/o1aey56nhBAgQIECAAIGZBQR6M/eucyNAgAABAgQIbAn8avOL7UDv2t1n5xH+KQQIECBAgAABAvkEBHr5+kSLCBAgQIAAAQLNBX61+cV2mBffnz1937wNKiRAgAABAgQIEGgjINBr46gWAgQIECBAgEBagX02v9gO9GLXW7Pz0nanhhEgQIAAAQIEzgV6BgEBAgQIECBAYFKBCOXuPH53vh3W7fO92XmTDginRYAAAQIECEwjINCbpiudCAECBAgQIEDgH4FDNr/YDvlidt7HL9/+qch3BAgQIECAAAEC6QQEeum6RIMIECBAgAABAqcJxOYX189eHDwzL4K9Ww/fnHZwnyZAgAABAgQIEOguINDrTuwABAgQIECAAIHlBA7d/GJ7dl58H2GgQoAAAQIECBAgkFtAoJe7f7SOAAECBAgQILC3wKGbX+yGeTcfvN77WH6RAAECBAgQIEBgnIBAb5y9IxMgQIAAAQIEmgkcs/nFbqAXs/sUAgQIECBAgACB/AICvfx9pIUECBAgQIAAgUsFYvOLeO/dbjh36M9m511K7C8IECBAgAABAukEBHrpukSDCBAgQIAAAQL7CcRutDfuvTw5zIvwb8nZeRFCKgQIECBAgAABAscLCPSOt/NJAgQIECBAgMAwgdi84trdZ03CvAgFlypP3n62k+5S2I5DgAABAgQITCsg0Ju2a50YAQIECBAgMKtAhGL//T//bhLmxey8qG+pEkt745h2011K3HEIECBAgACBGQUEejP2qnMiQIAAAQIEphU4e/q+WZAXwVrM8luqxFLbTRB5/ezFUod1HAIECBAgQIDAdAICvem61AkRIECAAAECMwq02vwiQrzt/+4//7AYV8wE3D72kjMDFztJByJAgAABAgQILCAg0FsA2SEIECBAgAABAqcIRJi3Waq6HYid+n3Mzltyg4rdc4jZegoBAgQIECBAgMDhAgK9w818ggABAgQIECCwmEDLzS92A8BYvrtUiR15d48fPy/ZhqXO1XEIECBAgAABAr0FBHq9hdVPgAABAgQIEDhS4Lc//vrPO+cuCsNO+bOYHbfk7LzL3v0X7YiwTyFAgAABAgQIENhfQKC3v5XfJECAAAECBAgsJhDvtttsIHFKcHfZZ5eeGXfj3ssLZ+hF+2IprkKAAAECBAgQILC/gEBvfyu/SYAAAQIECBDoLtBr84vtYG/pWXGxbHj7+Bd9H7+jECBAgAABAgQI7Ccg0NvPyW8RIECAAAECBLoL9Nr8YjdAu/XwTfdz2T7AZcttt9sVG3QoBAgQIECAAAEC+wkI9PZz8lsECBAgQIAAga4CPTe/2A7O4vulZ8NFWLfbhot+fvTqU1djlRMgQIAAAQIEZhEQ6M3Sk86DAAECBAgQKCvQc/OL3eBs6ffVPXn7ea8wL9oZS4EVAgQIECBAgACBXwsI9H5t5DcIECBAgAABAt0Eem9+sRvoRXi4ZIkAcbcNV/185/G7JZvnWAQIECBAgACBkgICvZLdptEECBAgQIBAdYF4X16EV1eFW63/bunZeXGOx+zU+/HLt+rdq/0ECBAgQIAAga4CAr2uvConQIAAAQIECPwssNTmF7uB4NKz8w5Zbrvd1qWDx597yJ8QIECAAAECBHILCPRy94/WESBAgAABApMJxIYU189eLDozL8KyG/deLi556HLb7VAvwkCFAAECBAgQIEDgYgGB3sUu/pQAAQIECBAg0Fxgyc0vtsOx+H7pHWRj2exuGw75OXbGVQgQIECAAAECBC4WEOhd7OJPCRAgQIAAAQJNBZbe/GI7PItwLJb5LlnifLfbcMz3S4eQS/o4FgECBAgQIEDgFAGB3il6PkuAAAECBAgQ2ENg6c0vdsOzCNeWLrHEd7cdh/4cG2rYIGPpnnM8AgQIECBAoIKAQK9CL2kjAQIECBAgUFIgZsXdevjm5GDr0CBs+/dHzM6L9wRut+GU78NPIUCAAAECBAgQ+FFAoPejh58IECBAgAABAk0EYmZZi1lqp4Rh8dmzp++bnM8hlcQxT2339ucjIFQIECBAgAABAgT+ERDo/WPhOwIECBAgQIBAE4EIoGJm3HYoNeL7WLK69LvzArD1uY/YobfJQFAJAQIECBAgQKCTgECvE6xqCRAgQIAAgXUKPHn7+TyCtBEB3u4xR8zOi/PfbUeLn6NehQABAgQIECBA4G8BgZ6RQIAAAQIECBBoJNB6qekpQdioDSVuPnjdJdCL81EIECBAgAABAgT+FhDoGQkECBAgQIAAgRMFMmx+sRv+jdhMIhx6zk4cMePwxKHh4wQIECBAgACBLgICvS6sKiVAgAABAgTWIhAhVq9Zabsh3SE/j9hIotdy2815j5p1uJax7DwJECBAgACBOgICvTp9paUECBAgQIBAMoEsm19sAq/N1wgYR5Qlgs1R5zbC0zEJECBAgAABApcJCPQuk/HnBAgQIECAAIErBH7746+uy0s34dwxX6NtS5fey223HUbMPlza0/EIECBAgAABAlcJCPSu0vF3BAgQIECAAIELBO4//5A2zBs1gy1MtkO3nt9fP3txQa/4IwIECBAgQIDAegQEeuvpa2dKgAABAgQInCiQcfOL3eBsxOy8YL1x7+VigV6c86NXn07sTR8nQIAAAQIECNQVEOjV7TstJ0CAAAECBBYUyLr5xXagN2rmWiyB3W7HEt/HBhkKAQIECBAgQGCtAgK9tfa88yZAgAABAgT2Fsi6+cVucDZq1trZ0/eLB3px7nFchQABAgQIECCwRgGB3hp73TkTIECAAAECewtk3vxiO9C7dvfZecwiHFHi2NttWfL7j1++jThlxyRAgAABAgQIDBUQ6A3ld3ACBAgQIEAgs0DmzS92Q7NRs9WevP08LMwLg1GbgGQet9pGgAABAgQIzC8g0Ju/j50hAQIECBAgcKBAzHS78/jd0KBqN7C76ud4n9yo2XkRqF3VtiX+btRGIAcOK79OgAABAgQIEGgmINBrRqkiAgQIECBAYAaBCptf7IZko2bnhVWEibvtWfrnWPKrECBAgAABAgTWJCDQW1NvO1cCBAgQIEDgSoEqm19sB2YjZ+eNXm677TBqQ5ArB5S/JECAAAECBAh0EhDodYJVLQECBAgQIFBLoMrmF9shVnw/anZe9G6G5bYbjwg2FQIECBAgQIDAWgQEemvpaedJgAABAgQIXCpQafOLTYAVXyPEGrXLa5blttsetx6+ubSP/QUBAgQIECBAYCYBgd5MvelcCBAgQIAAgYMFKm1+sR1exfcjA6wIQXfbk+HnUQHnwQPPBwgQIECAAAECJwgI9E7A81ECBAgQIECgrkDMMItALEMIdWwb4p1/o8qNey9T2kW7FAIECBAgQIDA7AICvdl72PkRIECAAAECPwnELK6sgdS+4V68v25UiSBx33aO+L3YrEMhQIAAAQIECMwsINCbuXedGwECBAgQIPCTQMWdbC8KxWITj1ElNuK4qE1Z/uza3WejaByXAAECBAgQILCIgEBvEWYHIUCAAAECBDIIxMyt2EgiS/B0bDtGzs6LfozA7Ni2L/W5R68+ZRhy2kCAAAECBAgQ6CIg0OvCqlICBAgQIEAgm0D2WWWHBF0jl5TGsQ9p66jfHbkDcLaxrz0ECBAgQIDAfAICvfn61BkRIECAAAECWwIzbH6xHYpdP3uxdXbLf1tpI5GRuwAv3zOOSIAAAQIECKxJQKC3pt52rgQIECBAYGUCEebF8tTtQKz69yOXkoZntSXLI3cCXtnl5nQJECBAgACBBQUEegtiOxQBAgQIECCwnMAsm19sB5Dx7roI1UaVKsttt81iN2OFAAECBAgQIDCbgEBvth51PgQIECBAgMB57ABbbSbZdgh12ffxHsCRpepsx5HvHBzZX45NgAABAgQIzCsg0Ju3b50ZAQIECBBYpcD95x+mDPMioBw5O6/icttNMBp2CgECBAgQIEBgJgGB3ky96VwIECBAgMCKBSJwqrRhwyZs2vfr6Nl5EZTu29aMvzfab8WXplMnQIAAAQIEOggI9DqgqpIAAQIECBBYViDCvKrLQfcJv0bPzovejHfR7dPWrL8Thh+/fFt2YDoaAQIECBAgQKCTgECvE6xqCRAgQIAAgWUEZtz8YjcUGz27LIx321Tx5wh9FQIECBAgQIDADAICvRl60TkQIECAAIGVCsy6+cV2WJZhZlkEitttqvx9hJMKAQIECBAgQKC6gECveg9qPwECBAgQWKnArJtf7IZl8V7A0eXa3WfTBHpxLgoBAgQIECBAoLqAQK96D2o/AQIECBBYmUC8L+/O43fTBEy7Ad7uz6NnlD15+3k660evPq3sqnG6BAgQIECAwGwCAr3ZetT5ECBAgACBiQVm3/xiN8zL8M63GXcOjmXMCgECBAgQIECgsoBAr3LvaTsBAgQIEFiRwBo2v9gN9OIdgSNLBKgRfu22a4afR280MrJfHZsAAQIECBCoLyDQq9+HzoAAAQIECEwvsPB+D/UAACAASURBVIbNL3ZDshv3Xg7v1xmX2247f/zybbixBhAgQIAAAQIEjhEQ6B2j5jMECBAgQIDAYgJr2fxiO2iK7yNMG11iye9uu2b6OcOS5tF97PgECBAgQIBATQGBXs1+02oCBAgQILAKgTVtfrEdlF0/ezG8f2debrttPXpZ8/CO1gACBAgQIECgpIBAr2S3aTQBAgQIEJhbIMKkGTdj2A6Srvo+wy6sMTPyqjbO8nfX7j6b+2JydgQIECBAgMCUAgK9KbvVSREgQIAAgboC8V6zeH/cLIHRoecRAVMEmqPLmvogQ4A6ur8dnwABAgQIEKglINCr1V9aS4AAAQIEphZY4062u4Ffht1Xox922zXzz7GTb4YQdeqL28kRIECAAAECTQUEek05VUaAAAECBAgcKxCbQESwMnNw9KtzyxIsRaj4q7bO9vexxFshQIAAAQIECFQREOhV6SntJECAAAECEwusMUC6KBDLMDsvhlks+72ofbP/WSz3VggQIECAAAECFQQEehV6SRsJECBAgMCkAmvf/GI7IMsyOy9mSm63a03fx3sDFQIECBAgQIBABQGBXoVe0kYCBAgQIDChQIR5Nx+8Xm14tBuUZZmdt+bdhaNPItBUCBAgQIAAAQLZBQR62XtI+wgQIECAwIQCNr/41w9BZszOy7DcM0JW7zH894RXnFMiQIAAAQIEZhMQ6M3Wo86HAAECBAgkF/jtj79WHxrtzs6LmYoZypqX2273yf3nHzJ0hzYQIECAAAECBC4VEOhdSuMvCBAgQIAAgdYCEZSsfQbYdnC0+T5CzgzFEui/Z05mmTGZYUxoAwECBAgQIJBTQKCXs1+0igABAgQITCVg84sfl9hugrz4mmV2nuW2P/ZRvEtQIUCAAAECBAhkFRDoZe0Z7SJAgAABApMI2Pzix6BoO8yL77PMzovZk7ttW/vP8a5HhQABAgQIECCQUUCgl7FXtIkAAQIECEwiYPOLq8O8G/depunpaMvaA7zd879+9iJN/2gIAQIECBAgQGBbQKC3reF7AgQIECBAoJmAzS+uDvMiPIpNKDKUCF53wyw//91/WfoowzjRBgIECBAgQCCPgEAvT19oCQECBAgQmEbA5he/DvMyzf46e/peoHf74j6LDTIUAgQIECBAgEA2AYFeth7RHgIECBAgUFgg3pd35/E74dAl4dD2rLdHrz6l6elrd5/psyv6LAJPhQABAgQIECCQSUCgl6k3tIUAAQIECBQWsPnFxTO8tkO8zfcRoIVXhhJLSjft8vXiPoxZeh+/fMvQXdpAgAABAgQIEPguINAzEAgQIECAAIGTBWx+cXEQdFlAlmnG162HbwR6V8zO2/ThzQevT75OVECAAAECBAgQaCUg0GslqR4CBAgQILBSAZtfHBbmxWyvLLPzoh3Rnk1o5evVfRnBtUKAAAECBAgQyCAg0MvQC9pAgAABAgSKCtj84uoA6KKALNPsPMttD+u/WCqtECBAgAABAgQyCAj0MvSCNhAgQIAAgYICNr84LAyKcC/bu9hiGelFoaM/u7xvM21mUvC2ockECBAgQIBAIwGBXiNI1RAgQIAAgbUI2Pzi8rDnV0FYptl5ltse148RyioECBAgQIAAgdECAr3RPeD4BAgQIECgkEDs9Hnj3kuzuvbYRGE33Ms2Oy+WS++20c/7hXwxO1UhQIAAAQIECIwUEOiN1HdsAgQIECBQSMBOtvuFPZeFYtl2SRXMntafEW4rBAgQIECAAIFRAgK9UfKOS4AAAQIECgnE5gl2Qz0tAIrdgLOUCGcvCx79+X79nC2gzTK2tIMAAQIECBBYRkCgt4yzoxAgQIAAgbIC8d43Ic9+Ic9lTtnCH316Wn9u+jmCboUAAQIECBAgMEJAoDdC3TEJECBAgEABgdg04dbDN8K8I96Xtwl8Nl8zzc6LoXft7jP92qBfw1EhQIAAAQIECIwQEOiNUHdMAgQIECBQQCBmlW0CKV+Pn9EV76rLVGJWmf48vj937R69+pSpe7WFAAECBAgQWImAQG8lHe00CRAgQIDAIQJCn3aBT7ZlmbFD624o5efj+zveLRmzWRUCBAgQIECAwJICAr0ltR2LAAECBAgUEIhw4vrZC6FPgyWZ4ZipRN/a3OT48O6y4DOWpisECBAgQIAAgSUFBHpLajsWAQIECBAoIGDDhHaBT7blmGZetuvb3XDv45dvBa5uTSRAgAABAgRmERDozdKTzoMAAQIECDQQiFDCDK42oU9smJBtKab3Irbp290wL37O9q7EBrcDVRAgQIAAAQKJBQR6iTtH0wgQIECAwNICdrVtF/jETMdMxXLbdn17UaAXf5btfYmZxp+2ECBAgAABAm0FBHptPdVGgAABAgTKCvz2x1/em9fgvXkR7GTcKOH+8w/6t1H/XhboRb8rBAgQIECAAIElBAR6Syg7BgECBAgQKCAQSwYvCyr8+WGzu7LNzovhp38P68Njx3wEpwoBAgQIECBAoLeAQK+3sPoJECBAgEABAbO32oU9MUsr2wYJv//5VVjbeXbeJgDM2P8FbkGaSIAAAQIECBwoINA7EMyvEyBAgACB2QS8W61dmBehzp3H79INETsXt+3jTXh32dd4F6VCgAABAgQIEOgpINDrqatuAgQIECBQQEDY0zbsidlw2UrsuHtZ+OTP2/b/xjPjOMg2LrWHAAECBAgQOF5AoHe8nU8SIECAAIHyArE0NJYIbkIIX08Ld24+eJ1uTMTOq/r1tH49xu/62Yt0Y0GDCBAgQIAAgXkEBHrz9KUzIUCAAAECBwtEAHVMWOEzFwdEsVNwthJLgPXXxf3V2yXCVIUAAQIECBAg0ENAoNdDVZ0ECBAgQKCAgJlbbUOejLPzvB+xbR8fGgDG7FeFAAECBAgQINBDQKDXQ1WdBAgQIEAguUAEPbEk8NCAwu9fHhBlnJ0ntL28v5Yay/GOSoUAAQIECBAg0FpAoNdaVH0ECBAgQKCAwP3nH4R5t9uFPTfuvUzZ65ZUt+vjYwPAmKUX76pUCBAgQIAAAQItBQR6LTXVRYAAAQIECghYhtk+5Mn4rjT93L6fjw31Mi7HLnCr0kQCBAgQIEDgCgGB3hU4/ooAAQIECMwoYJOEtkFP1t1MzcJs28/Hhnmbz/3+59cZbyfOiQABAgQIEBgkINAbBO+wBAgQIEBghECECrEEcBMy+Hp66BPBWcYSy4D17+n928rw2t1nGYeJNhEgQIAAAQJFBQR6RTtOswkQIECAwDECQp62AU+ENLG0NVuJ4LZVEKWedmPm0atP2YaK9hAgQIAAAQJFBQR6RTtOswkQIECAwKECdjxtF8xsQq6sO5hGuzZt9LV9vx9rGrNjFQIECBAgQIBACwGBXgtFdRAgQIAAgeQCMYss3vV2bBDhcz+HQhHOZJydF0MxZg7qs5/7LINJvMNSIUCAAAECBAicKiDQO1XQ5wkQIECAQAEBM7bahztZZ+f99sdfwrzb7fu7ZRj48cu3AncNTSRAgAABAgQyCwj0MveOthEgQIAAgQYCER7YCKNtwBOeWUMZuxi37euWQd6mrpsPXje4slVBgAABAgQIrFlAoLfm3nfuBAgQILAKAQFP+4Dn1sM3KcdOLAG23LZ9f2+CuJZf452WCgECBAgQIEDgWAGB3rFyPkeAAAECBAoIWH7ZJ9yJXWQzFhuf9OnvlkHepq4IXhUCBAgQIECAwLECAr1j5XyOAAECBAgUELhx76X3qTV+n1rm5ZLRtk1g5Gv+cO/Rq08F7iKaSIAAAQIECGQUEOhl7BVtIkCAAAECDQTM1uoT6MSsx4wlltt6V2KfPu8VjmZ+F2PGMa5NBAgQIECAwD8CAr1/LHxHgAABAgSmEfAutT7BTubZefeffzA7r/FszF5B3na9Wd/HOM3N0IkQIECAAIFJBQR6k3as0yJAgACBdQucPX0v3OkQ7mSdnRej3fLqPiHudvjW6/usOyav+y7q7AkQIECAQG4BgV7u/tE6AgQIECBwsECEA5Zetg93IjDLWmKTjl5hk3rbj6Vd08xjK+uY1y4CBAgQILB2AYHe2keA8ydAgACB6QRiCd9uYODn00OZeCdh1mJG5un9O/oayTy+so577SJAgAABAmsWEOitufedOwECBAhMJxBLQkcHEzMe/9rdZ6nHSrRvRvc1nVPMqlUIECBAgAABAvsKCPT2lfJ7BAgQIECggID3qPWZqRUbTmQtQtw+fT4iTMw8zrKOf+0iQIAAAQJrFRDorbXnnTcBAgQITCdgl9M+wU7Mfotdg7MWy2379PuIQC9m6dkgI+uVpl0ECBAgQCCXgEAvV39oDQECBAgQOEogAicbYfQJdiIwy1qi3y237dPvIwK9OGa8A1MhQIAAAQIECPxKQKD3KyF/T4AAAQIECgiYpdUn1ImQNPPsvNhIYVTw5Lh9xly4xq7FCgECBAgQIEDgKgGB3lU6/o4AAQIECBQQiCV6Zuf1CVcyz86LoXnzwWuB3u0+fT8ysLx+9qLAnUcTCRAgQIAAgZECAr2R+o5NgAABAgQaCAh1+gQ62d9nZpl1n34fGeRtH/vRq08N7g6qIECAAAECBGYVEOjN2rPOiwABAgRWIWDJZb9QJ/u7zGyC0q/vt4O1Ud9HoKwQIECAAAECBC4TEOhdJuPPCRAgQIBAcoGYoRVL80YFDrMfN/t7zG7ce6nvJ1xuu31dZV/ynfwWqXkECBAgQGBqAYHe1N3r5AgQIEBgZgEztPrN0IplzJlLhI3bwY/v+42F0bbxjkyFAAECBAgQILArINDbFfEzAQIECBAoIOD9aX0DnN/++Cv1KLCrcd/+Hx3ibR8/e7ic+kLROAIECBAgMLGAQG/iznVqBAgQIDCvwJ3H78zQ6rTcskKAcu3uM/3fqf+3w7Qs32df/j3vndaZESBAgACBvAICvbx9o2UECBAgQOBCgZg9Fi/MzxI2zNaO7LPzLLddz+y8zbUVAa5CgAABAgQIENgWEOhta/ieAAECBAgUELAZQr9AJ2yzF8tt+/X/JkDL+PXRq0/Zh6b2ESBAgAABAgsKCPQWxHYoAgQIECBwqsCTt5/NzOu41DJ7aBLvTrTcdp2BXszKVQgQIECAAAECGwGB3kbCVwIECBAgkFwgwpzrZy8Eep0CvQjKwjhzEeiuM8zbzBi89fBN5uGpbQQIECBAgMCCAgK9BbEdigABAgQInCJgqWXfMCd8s5fYsGMT7vjadzxk9f345Vv2Yap9BAgQIECAwAICAr0FkB2CAAECBAicKhAP8TbC6BfghG322XnRPmOg3xjIGuDttqvCLsyn3u98ngABAgQIEPi1gEDv10Z+gwABAgQIDBeIpXa7D/Z+bhfuVJidd//5B2Og03LratdSLL1WCBAgQIAAgXULCPTW3f/OngABAgQKCPz2x1+CnI5BToXZeTFM7W7cLsCtFuDttjfe96gQIECAAAEC6xYQ6K27/509AQIECBQQEOT0DXIqzM77/c+vQt2Ooe5uYFbh5+w7Mhe4tWoiAQIECBAoLSDQK919Gk+AAAECswvEQ3uFcKFqG2N2XoVNBmyI0jfUrTh+q4zd2e/Rzo8AAQIECIwSEOiNkndcAgQIECDwC4HYBCGW1lUMG6q0Od5NWKEYBwK9i66pKuO3wjWmjQQIECBAoJqAQK9aj2kvAQIECKxGwKys/iFOLGXNXiy37T8OLgrLqvxZhTGc/RrTPgIECBAgUFFAoFex17SZAAECBKYXiGWgsaSuSqhQsZ03H7wuMY4EuwK9q66veMemQoAAAQIECKxPQKC3vj53xgQIECBQQCCW0l31EO/vTg95Yvfg7MWy69P7eQ3XypO3n7MPZe0jQIAAAQIEGgsI9BqDqo4AAQIECJwqEA/nawghRp5jldl5xoJAb5/rJGbzKgQIECBAgMC6BAR66+pvZ0uAAAECBQRiCd0+D/F+5/iwp8qMpgge9fPx/bwmu1iarRAgQIAAAQLrERDoraevnSkBAgQIFBC4//yDAOd23wDn+tmLAiPh/DyW23qPYt+xMFPgF2Ml3r2pECBAgAABAusQEOito5+dJQECBAgUEBDgLBPePHr1qcBoOD8X7i4zHmYK9aosJS9xAWokAQIECBBILiDQS95BmkeAAAEC6xGwm2n/AOfa3WffZ75VGFWWXvcfDzOFeZtz+f3PrxWGtzYSIECAAAECJwoI9E4E9HECBAgQINBCIJbKWV7ZP8Cp8p6xCGU2AY2v/cfFTMZVlpS3uG+qgwABAgQIrFlAoLfm3nfuBAgQIJBGwGys/qFNBKaxrLlCMVuz/3iYKcTbPZcqy8orXIvaSIAAAQIEsgoI9LL2jHYRIECAwGoEYsfV3QdyP7cPdKrMzouBH0uDjYH2Y2AtphFeKwQIECBAgMDcAgK9ufvX2REgQIBAcoGYMRZL5NYSNIw6z0qz8yy3FeS1uE4qBdjJb9OaR4AAAQIEUgoI9FJ2i0YRIECAwFoE7GS6THhTKdyw3HaZMdEiNMteR7ybUyFAgAABAgTmFBDozdmvzooAAQIECgjE7DwbYfQPb8K4SrARY8Jy2/5jInsQ16p9Nx+8LnAn1EQCBAgQIEDgGAGB3jFqPkOAAAECBBoI3Hn8zlLb2/3Dm1sP3zTorWWq8D7F/uOhVVhWpZ7f/vhrmcHrKAQIECBAgMCiAgK9RbkdjAABAgQI/C0QD9lm5y0T3sQ76aoUgd4yY6JKGNeinTHjUyFAgAABAgTmExDozdenzogAAQIECgjcuPfS7LwFZudVXHIYMwpbBDnqEA5uxsCjV58K3BU1kQABAgQIEDhEQKB3iJbfJUCAAAECDQTMwlouaKm63FDgu9wY2YReM3+N2cAKAQIECBAgMJeAQG+u/nQ2BAgQIJBcIDY9uH72wgwss/OuHKnGiUCvdcBY6V2SV14c/pIAAQIECBD4LiDQMxAIECBAgMCCAmdP3wvzFgjzIgyJmZCVi12QhXqtQ70quz1Xvm61nQABAgQILCUg0FtK2nEIECBAYPUC8TBtI4xlQpqYBTlDiQ09Woc66ltmDGZ0jqXcCgECBAgQIDCHgEBvjn50FgQIECBQQMBmB8sFKTNtAuCdi8uNm4whXOs2VZ+5WuBWr4kECBAgQGARAYHeIswOQoAAAQJrF4jNGVo/mKvv4qDn2t1n57FcdaYiDL64r10Dh7vE9aEQIECAAAEC9QUEevX70BkQIECAQAEBu5YeHjwcG9bEewpnLDcfvBYKL/T+xWPHXpXPzTSDdcZr3TkRIECAAIF9BAR6+yj5HQIECBAgcILA/ecfBDELBTHxjsLZZudtDz07JC8XDFcJ545pZ1wnNsjYvrJ8T4AAAQIE6gkI9Or1mRYTIECAQCGBCJdiidsxD90+c3h4M+vsvM2Qt/Pt4WPCdXSxWSzjVggQIECAAIG6AgK9un2n5QQIECBQQCACJoHCxYFCa5fZZ+dthrudb5cZT63HZ8b6YiwpBAgQIECAQE0BgV7NftNqAgQIECggEEvaImTK+CA/Y5tmn523PeRtsiLUa3ENxxJuhQABAgQIEKgpINCr2W9aTYAAAQIFBOxMulzossZ3gt15/E5YvNC7GVuEZ1nrePL2c4G7qSYSIECAAAECuwICvV0RPxMgQIAAgQYC8ZCc9QF+xnbFDrBrLHa+XS40nvG6iXOKMFwhQIAAAQIE6gkI9Or1mRYTIECAQHKB2Ljgxr2XAr0FZ0+t+V1gdr4V6p0aNq5puXry/31oHgECBAgQ2FtAoLc3lV8kQIAAAQL7Cdx//kGYt2CYt9bZeZvRaCdlgd6pgd4al6xvrh9fCRAgQIBAVQGBXtWe024CBAgQSCkQ4YqNMJYNWGKDiLUXO98uO+ZODdAyfn7twfja7yHOnwABAgTqCQj06vWZFhMgQIBAYoFYupbxYX3WNsXSZuVvATvfCvVOvc7XvHTdfYQAAQIECFQTEOhV6zHtJUCAAIG0Ah+/fDM7b8GlthFe2KHzx8vBcm+h3imh3rW7z34cUH4iQIAAAQIE0goI9NJ2jYYRIECAQDUBG2EsG6bEZhDKzwK3Hr4xS3ThYPmUEC3bZx+9+vTzoPInBAgQIECAQDoBgV66LtEgAgQIEKgoEDPFsj2Yz94ewcPlV4pwedlweaZrLd4BqhAgQIAAAQL5BQR6+ftICwkQIEAguUBshBGzxWZ6qM9+LrE0MNyViwXsfCvQO+UajneBKgQIECBAgEBuAYFe7v7ROgIECBAoIGAjjOXDE4HDry+MeKfjKaGOzy4/rjOZx/hRCBAgQIAAgbwCAr28faNlBAgQIFBAIGZCxRK1TA/is7clvM3O2+/isPPtukO5U+4FNx+83m+Q+S0CBAgQIEBgiIBAbwi7gxIgQIDALAJ3Hr8T5i28AYHZeYddPfGuwVOCHZ9dbygYgbBCgAABAgQI5BQQ6OXsF60iQIAAgQICZj8tH3TE7DxLAQ+/OOx8u/xYnSEIjXdVKgQIECBAgEBOAYFezn7RKgIECBAoIGAn0eVDErPzjr8wjNflx+sMoZ7dpI+/5nySAAECBAj0FBDo9dRVNwECBAhMK/Dk7WfLGBdeamt23mmXU7x30G7MQr1DQ0bvrDztuvNpAgQIECDQS0Cg10tWvQQIECAwrYBgZEwo4iX9p19SsVw5AppDQx2/P2bMZ3GPJdsKAQIECBAgkEtAoJerP7SGAAECBAoIxLLPLA/aa2qHF/S3uTi8+3Hd4dyx9wzvrmxz/amFAAECBAi0EhDotZJUDwECBAisQsAMpzFhiNl5bS8vO9+OGcfHhmkZPhfvYFQIECBAgACBPAICvTx9oSUECBAgUEDAbqFjghCz89pfHMbymLGcIZw7tg3x7lCFAAECBAgQyCEg0MvRD1pBgAABAgUELFUcE4CYGdTv4rDz7ZgxfWygNvpz8f5FhQABAgQIEMghINDL0Q9aQYAAAQIFBIQfY8IPs4L6XRw2eBkzpkcHc6cc//7zD/0GpJoJECBAgACBvQUEentT+UUCBAgQWLNAPMSe8hDss8cFJ9fPXqx52C1y7t4LedzYXOs1HbP0bJCxyKXpIAQIECBA4EoBgd6VPP6SAAECBAicn8cspniIXesD/Mjzjs0blP4ClpML9Q65zuP9iwoBAgQIECAwVkCgN9bf0QkQIECggMDZ0/fCvNvLBx7X7j77HqYWGCJTNDGWNh8S6vjd5a+JTOa///l1inHvJAgQIECAQFUBgV7VntNuAgQIEFhEwHLEcaFFBKnKsgJ2vh033jOFdfu0xXL4Za9NRyNAgAABArsCAr1dET8TIECAAIEtgZsPXpu1NGB2XixxjqXOyvICxrxQb59AL37HhjXLX5+OSIAAAQIENgICvY2ErwQIECBAYEfAEsRxwYbZeTuDccEf7Xw7btzvG6Rl+b0I3hUCBAgQIEBgjIBAb4y7oxIgQIBAcgGhxrhQwy6a4y8OG8GMG/9Zwrp92yF8H3+9agEBAgQIrFNAoLfOfnfWBAgQIPALgfvPP1hqO2CpbYQIdx6/+0Xv+OslBGLTg31DHb+33gBQAL/E1egYBAgQIEDgZwGB3s8m/oQAAQIEVi5gdtK4cCLCAbtn5rkALTsfdy1UCknjvYsKAQIECBAgsKyAQG9Zb0cjQIAAgQICMUOs0sP0TG0VDOS7QFwPQr197jGC+HzXrhYRIECAwNwCAr25+9fZESBAgMCBAvFQGrPE9nmA9Tvtg47f/vjrwB7z60sI2Pm2/Vif7f5x7e6zJYaiYxAgQIAAAQL/X0CgZygQIECAAIEtgRv3XgrzBr07z+y8rYGY8NvrZy9cG4OujSrh36NXnxKOXE0iQIAAAQJzCgj05uxXZ0WAAAECRwh4X9jYWUhm5x0xaBf8SLxbMmZhVQmXtHP56zlmNysECBAgQIDAMgICvWWcHYUAAQIEkgtEWGEG0vIBwCZ0iZmRSn4BO9+Ou0Y210r2r3apzn8dayEBAgQIzCEg0JujH50FAQIECJwocPb0vZlHA5cTxuxIpYZAzKTMHipp39jg8eOXbzUGs1YSIECAAIHCAgK9wp2n6QQIECDQRiAePm2EMS4AiJmRSi2B+88/CPUGBuDZA0vvw6x1PWstAQIECNQUEOjV7DetJkCAAIGGArFELPsD8szti3BIqSdg59txIXiF+4FZt/WuaS0mQIAAgVoCAr1a/aW1BAgQINBYwPLBsaFEbLIQ7y9Uagp47+TY6ydzsBfXtkKAAAECBAj0ExDo9bNVMwECBAgUEIjNGDI/FM/etnh3oVJXwM63Ar2r7lGPXn2qO7i1nAABAgQIJBcQ6CXvIM0jQIAAgX4CsSTsqodRf9c3rIj3Fpqd1298L1VzvIPStdL3Wqnq6xpf6ip0HAIECBBYo4BAb4297pwJECBA4HuQFEvCqj4oz9Bus/PmuRAtXRfoXXZPuvXwzTwD3ZkQIECAAIFEAgK9RJ2hKQQIECCwnECESZc9gPrz/uFEzNyJmV3KPAJ2vu1/3VS9N7nW57nOnQkBAgQI5BEQ6OXpCy0hQIAAgYUE4uEyAqWqD8cztNusnYUG+8KHiX6dYXw6h7bhZLyrVCFAgAABAgTaCgj02nqqjQABAgQKCAgd2j6sHxN+/P7n1wIjRROPEbDRzPjr65hrsvdn4p2lCgECBAgQINBOQKDXzlJNBAgQIFBAwLu+xocNNx+8LjBSNPFYATvfjr/Geodzx9Qfs6IVAgQIECBAoJ2AQK+dpZoIECBAoICA2UPjw4YIVZW5Bex8O/46OyZ06/2ZeM+iQoAAAQIECLQREOi1cVQLAQIECBQQ8NL+8SGD2XkFLpRGTTQbdvz11jugO7R+m+E0urhUQ4AAAQIEzs/PBXqGAQECBAisQiCWAdoIY3zAYHbeKi63/5zko1efbJJxe/x1d2jw1vP3bYjzn8vDNwQIECBAfwZMoQAAIABJREFU4CQBgd5JfD5MgAABAlUEzp6+FywMDhbsdFnlamnbTpvQCPR2A0Kb4rS9xtRGgAABAusUEOits9+dNQECBFYlEO/zMjtvfKhgl8tVXXY/nKx3V46//nZDtZE/Xz978cP48AMBAgQIECBwuIBA73AznyBAgACBYgLx3raRD6+O/a/za3efFRs1mttSIJa8R4jjWhDsbcaAgL/lFaYuAgQIEFijgEBvjb3unAkQILAigXho3DxA+jouTLC75YouuktO1UzZcddfxntfzJpWCBAgQIAAgeMFBHrH2/kkAQIECCQXMCsoR4AQs/OiLxQCdr7NcU1mCfji3aYKAQIECBAgcJyAQO84N58iQIAAgQICMSssy4Prmtvhob3AxbJgE82aFept7ocxSy9mbioECBAgQIDA4QICvcPNfIIAAQIECgjEjDAbYYwPDqIPzM4rcMEs3EQ7346/Njeh2uiv8Y5ThQABAgQIEDhcQKB3uJlPECBAgEABgTuP35mdd3t8aGB2XoGLZVAT7Xw7/vocHeZtjv/7n18HjUKHJUCAAAECdQUEenX7TssJECBA4BKBeE+X2XnjwwLL6S4ZoP74u4B3XI6/RjeB2uivdsF2UyBAgAABAocLCPQON/MJAgQIEEguYOZPjqAgllUqBK4SsDQ+x7U6OtCL4z969emqoeLvCBAgQIAAgR0Bgd4OiB8JECBAoLaAF+7nCQgso6t9LS3Vejvf5rlmRwZ7MaNXIUCAAAECBPYXEOjtb+U3CRAgQCC5gCV8eYIBL7pPfrEka54gPs+1OzLUi3efKgQIECBAgMB+AgK9/Zz8FgECBAgUEIgNGEY+jDr2P6FEzLpSCBwiYOfbf66fNd9LPn75dsiw8bsECBAgQGC1AgK91Xa9EydAgMBcAvEQaCOMHIGA2XlzXVtLnk2MnTWHWc79X+fuH0tecY5FgAABApUFBHqVe0/bCRAgQOA/Amb35AjzIpAwO+8/w9I3BwpYNp/nOh4ZLsYSbIUAAQIECBC4WkCgd7WPvyVAgACBAgJeqp8nBIgdhhUCpwjY+TbP9Twq1Lt299kpQ8hnCRAgQIDAKgQEeqvoZidJgACBuQUiRBr14Om4P4YPj159mnuwObtFBGKHZNfWj9fW2jzcSxa51ByEAAECBAoLCPQKd56mEyBAgMD5eTz0re1BN+v5xqyamF2lEGghYObtugO9eCeqDTJaXEnqIECAAIFZBQR6s/as8yJAgMAKBCI8ihApa8C1tnbdf/5hBaPOKS4pcOfxO9f37fUGe/FuVIUAAQIECBC4WECgd7GLPyVAgACBAgJnT9972E/ysB+zaczOK3DRFGyinW/XG+jFP4rE8muFAAECBAgQ+FlAoPeziT8hQIAAgQICsRQrQqS1zYLLer4RrioEeglcP3vhWk8S3i99D7LRTq+rSr0ECBAgUF1AoFe9B7WfAAECKxWIpVhLP1g63sUzhczOW+lFuOBpW15/8bW3lnvSk7efFxxtDkWAAAECBGoICPRq9JNWEiBAgMCWQDzcreVBtsJ5mp23NTh9203AzrfrDfXiHw0UAgQIECBA4EcBgd6PHn4iQIAAgQICsQSrQtC1hjbGg7adKAtcNJM00c636w31/MPBJBex0yBAgACBZgICvWaUKiJAgACBJQRiJ9U1BGVVztEulEuMesfYFnAPWGeo5x8Ptq8C3xMgQIAAgfNzgZ5RQIAAAQJlBOI9WvFQVyXsWkM77UBZ5vKZqqF2vl1nqBf9rhAgQIAAAQJ/Cwj0jAQCBAgQKCMQS67WEJJVOUcP12UunSkbaufbdYZ6/hFhysvZSREgQIDAEQICvSPQfIQAAQIElheI97SZnZfrAT7eZ6YQGCVg59tc94Ol/iEiglyFAAECBAgQsOTWGCBAgACBIgI2wsj18G52XpELZ/JmRtC/VJDkOHnuQY9efZp8ZDs9AgQIECDwawEz9H5t5DcIECBAYLDAk7efPbTfzvMwHcFG9IlCIIOAnW9z3RuWCD5jtrZCgAABAgTWLiDQW/sIcP4ECBBILhDL6rwrK9cDuyVvyS+aFTbPzre57hFLhHrxTlWFAAECBAisWUCgt+bed+4ECBAoIOBBPd+DuuVuBS6cFTbx1sM3ZvImm8nbO9iLJdcKAQIECBBYq4BAb60977wJECBQQCBm59kII1egd+3us/PoF4VARgHv2sx1v+gd6HmXZ8arUJsIECBAYCkBgd5S0o5DgAABAgcL3Hn8zoybZDNuLHM7eBj7wIICluivK9CLwNBu2wteYA5FgAABAqkEBHqpukNjCBAgQGAjEA9pZuflejiP/jA7bzNCfc0qYOfbXPeN3rP0YtawQoAAAQIE1igg0FtjrztnAgQIFBCwdC7fQ7nZeQUuHE38LmDn23z3j57Bnvd6uvAJECBAYI0CAr019rpzJkCAQHKBJ28/W2qbbKmt2XnJLxrN+0kgQp6eIZK684SGcX9SCBAgQIDA2gQEemvrcedLgACB5ALegZXnIXk7sDA7L/mFo3kXCtj5Nuf9ZPve0ur76GuFAAECBAisSUCgt6bedq4ECBAoIBDBUasHPPW0eZiP2S/xXjKFQEUBy/fb3Acq3E/dpypeodpMgAABAscKCPSOlfM5AgQIEGguEA9jER5VeHBcUxvNfGk+1FW4oIBZv+sJ9CK8VQgQIECAwFoEBHpr6WnnSYAAgQIClsflfPD+/c+vBUaPJhK4XMA/FuS8t/T4h5F4B6tCgAABAgTWICDQW0MvO0cCBAgUELArZc4H7psPXhcYPZpI4NcC7jE57zGtQ71rd5/9ejD4DQIECBAgMIGAQG+CTnQKBAgQmEHAe65yPmxHCKIQmEXADto57zOtQ73Y4VghQIAAAQKzCwj0Zu9h50eAAIECAveff/DevNv5HrTNzitw8WjiwQKW9ue717QO9Gzkc/Bl4QMECBAgUFBAoFew0zSZAAECMwnEC+tjiVTrBzr1nf7Q7l1UM11pzmVbwIzg0+8P2e+xNvPZHvG+J0CAAIEZBQR6M/aqcyJAgEAhgbOn74V5CWfnXT97UWgUaSqBwwTsfDt/oBeBow19Drsu/DYBAgQI1BIQ6NXqL60lQIDAVAJ2nsz7UO0dVFNdak7mAoEI9WJpZvaZZtp3/H0yZmIqBAgQIEBgVgGB3qw967wIECBQQMC7rI5/UO35kB9LoCPsUAjMLmDn25z3oJb3N68OmP0qdn4ECBBYr4BAb71978wJECAwVMBuk3kfpGMZtEJgLQLuRXnvRS2CvZiFqRAgQIAAgRkFBHoz9qpzIkCAQHKBmP3lpfQ5H6Lj4dfsvOQXkOY1FzBbOOf9qEWgF3X4R4rml4wKCRAgQCCBgEAvQSdoAgECBNYmcP/5B++tSrgRhgfftV2Jzndb4OaD1+5LSe9LpwZ78Q8V8c5WhQABAgQIzCQg0JupN50LAQIECgh4EX3emTBm5xW4gDSxq0Ds7nxqeOTzOe9xEdgqBAgQIEBgJgGB3ky96VwIECBQQCCWPnngzfnAa1lagQtIE7sK+AeHnPemVv/P+P3Pr13Hj8oJECBAgMCSAgK9JbUdiwABAisXiCVPMQus1cOZeto9fFuStvKL0+n/RyBCH/eWdveWTJaxg7dCgAABAgRmERDozdKTzoMAAQIFBGyEkfchOTYFUAgQ+Fvgtz/+EupN+j69R68+GeYECBAgQGAKAYHeFN3oJAgQIJBf4Mnbzx6QEz8gW4qW/xrSwmUF7jx+556V+J517My/mI2sECBAgACBGQQEejP0onMgQIBAcoF4L5WXzeednedl8ckvIM0bJmDn27z3rWMDvfic94UOu6QcmAABAgQaCgj0GmKqigABAgQuFrARRu6H4lheqBAgcLGAf4zIff86NtiLd7oqBAgQIECgsoBAr3LvaTsBAgQKCNg1MvfDcLzXUCFA4HKBuIfFZgrHBkc+l/MeaGby5WPe3xAgQIBADQGBXo1+0koCBAiUFfAeqpwPs5uQId5tqBAgcLWAnW9z38c297NDv5qdfPW497cECBAgkFtAoJe7f7SOAAECpQXsFJn7ITiWEioECOwn4H6W+352aJgXvx8zLxUCBAgQIFBVQKBXtee0mwABAgUEYjnnMQ9ZPrPMg/OjV58KjCJNJJBH4P7zD+5pk+186z6Y5/rSEgIECBA4TECgd5iX3yZAgACBPQViKadgbplg7hjnmJkS7wZTCBA4TODWwzfubROFev/9P/92LzzsEvDbBAgQIJBEQKCXpCM0gwABAjMJRFBkZ8i8YV4EgLHzsEKAwHEC7m+572+H/iNHhLQKAQIECBCoJiDQq9Zj2kuAAIECAhEWHfpA5feXe0A2I6XARaSJqQXsfLvc/Wqp/zd8/PIt9ZjTOAIECBAgsCsg0NsV8TMBAgQInCQQD0URGC31EOY4hz9Ym5130hD3YQLfBeJe5/5z+P0nq1m881UhQIAAAQKVBAR6lXpLWwkQIFBAwPulcj/gmp1X4CLSxDICdr7Nfb87NDyMd78qBAgQIECgioBAr0pPaScBAgQKCHi4zf9wa3ZegQtJE0sJ2Pk2/31v32Av/sFDIUCAAAECVQQEelV6SjsJECBQQCBmN9x5/M5/iQ28J6rAhaSJ5QTMTJ4n1IuAViFAgAABAhUEBHoVekkbCRAgQIAAAQIE0gnE5hgxM9ksvXkCvZil5x8+0l1qGkSAAAECFwgI9C5A8UcECBAgQIAAAQIENgIR3P3+59fzR68+fZ+BHBso2PxnnhBvd0luzLhUCBAgQIBAdgGBXvYe0j4CBAgQIECAAIFFBDbBXbw+IN43GcHd9bMXwrvb84Z3u2He5ucIcBUCBAgQIJBZQKCXuXe0jQABAgQIECBAoIvA9nLZePen4G59od0mvLvoa4wHhQABAgQIZBYQ6GXuHW0jQIAAAQIECBA4SWAz6y7ecye4E9pdFN5d9mcxU1MhQIAAAQJZBQR6WXtGuwgQIECAAAECBPYW2AR3u8tlLwtr/Llw71djIN6TqBAgQIAAgawCAr2sPaNdBAgQIECAAAECFwpEeBfBnVl3QrlfhXKn/n28S1EhQIAAAQIZBQR6GXtFmwgQIECAAAECBM69505gd2ogd+rnY5bexy/fXI0ECBAgQCCdgEAvXZdoEAECBAgQIEBgXQKWywruTg3een7+5oPX67ognS0BAgQIlBAQ6JXoJo0kQIAAAQIECMwhELOdNstlIyixu6wwr2cY16ru3//8OscF6CwIECBAYBoBgd40XelECBAgQIAAAQJ5BCyXFdS1CtMy1HPt7rM8F5eWECBAgACB8/NzgZ5hQIAAAQIECBAgcLTARctlI/zIEMJog1Cx5Rh49OrT0deJDxIgQIAAgdYCAr3WouojQIAAAQIECEwqYLmsgKxlQFatrtggQyFAgAABAlkEBHpZekI7CBAgQIAAAQJJBCyXFdxVC9uWau+dx++SXKWaQYAAAQJrFxDorX0EOH8CBAgQIEBgtQKWywrulgrCZjpOzFRVCBAgQIDAaAGB3ugecHwCBAgQIECAQGeBi4I7u8sK82YK2ZY8l9idWSFAgAABAqMFBHqje8DxCRAgQIAAAQINBSyXFdQtGW6t9VhP3n5ueNWqigABAgQIHC4g0DvczCcIECBAgAABAsMFNrPuYufNeK/XjXsvz+Ol/WsNWJy3IHPJMRA7OSsECBAgQGCkgEBvpL5jEyBAgAABAgR+IbAJ7mJG0NnT99+DO8tlhVdLhleOdfF4izBdIUCAAAECowQEeqPkHZcAAQIECBAgsCNguezFwYlAiUvGMRAzYuOaVQgQIECAwAgBgd4IdcckQIAAAQIEVi2wmXVnuaygKmNQpU37j8tbD9+s+l7m5AkQIEBgnIBAb5y9IxMgQIAAAQKTC2yCO8tl9w9IhEmsqo2Bj1++TX4nc3oECBAgkFFAoJexV7SJAAECBAgQKCdguawgqloQpb1txmxsSKMQIECAAIGlBQR6S4s7HgECBAgQIFBaYDPr7v7zD993l7VBRZtQRLjEsfIYiFm4CgECBAgQWFJAoLektmMRIECAAAECZQQ2wd3uctnKoYO2C82MgT5jIDbIUAgQIECAwJICAr0ltR2LAAECBAgQSCkQ4V0EdzHrLl5yb9Zdn9BDmMR15jEQ9w+FAAECBAgsJSDQW0racQgQIECAAIHhAt5zJ1CaOVBybmPHd8zSs0HG8Nu8BhAgQGA1AgK91XS1EyVAgAABAusRsFx2bLAhWOK/1jEQM3wVAgQIECCwhIBAbwllxyBAgAABAgS6CcSMmM1y2ZsPXlsue1uYtNYwyXnnGPu///m12/1OxQQIECBAYCMg0NtI+EqAAAECBAikFrBcNkdYITTSD8bA1WMg3sGpECBAgACB3gICvd7C6idAgAABAgQOErhouey1u8/OhQhXhwh8+BgDecZAzBpWCBAgQIBATwGBXk9ddRMgQIAAAQJXClgumyeAEAbpC2Og3RiIDTIUAgQIECDQU0Cg11NX3QQIECBAgMB3Actl2wUFQheWxkCNMXD29L3/AxAgQIAAgW4CAr1utComQIAAAQLrE7BctkbQIBDST8ZA/zEQs/RiFrJCgAABAgR6CAj0eqiqkwABAgQITC5wUXAXL4KPB1hBQf+ggDFjY6DGGIidtxUCBAgQINBDQKDXQ1WdBAgQIEBgIgHLZWsEBwIe/WQM5BwDv//5daL/IzgVAgQIEMgiINDL0hPaQYAAAQIEBgtsZt09evXp/M7jd+c37r004+52zoBAcKNfjIE6YyB26VYIECBAgEBrAYFea1H1ESBAgACB5AKb4O7J28/n8dL2CO4sl60TDghy9JUxUG8MxD+UKAQIECBAoKWAQK+lproIECBAgEBygVj6FUFePFz6j4ExYAwYA8uMgbjvKgQIECBAoKWAQK+lproIECBAgAABAgQIECBAgAABAgQIdBYQ6HUGVj0BAgQIECBAgAABAgQIECBAgACBlgICvZaa6iJAgAABAgQIECBAgAABAgQIECDQWUCg1xlY9QQIECBAgAABAgQIECBAgAABAgRaCgj0WmqqiwABAgQIECBAgAABAgQIECBAgEBnAYFeZ2DVEyBAgAABAgQIECBAgAABAgQIEGgpINBrqakuAgQIECBAgAABAgQIECBAgAABAp0FBHqdgVVPgAABAgQIECBAgAABAgQIECBAoKWAQK+lproIECBAgAABAgQIECBAgAABAgQIdBYQ6HUGVj0BAgQIECBAgAABAgQIECBAgACBlgICvZaa6iJAgAABAgQIECBAgAABAgQIECDQWUCg1xlY9QQIECBAgAABAgQIECBAgAABAgRaCgj0WmqqiwABAgQIECBAgAABAgQIECBAgEBnAYFeZ2DVEyBAgAABAgQIECBAgAABAgQIEGgpINBrqakuAgQIECBAgAABAgQIECBAgAABAp0FBHqdgVVPgAABAgQIECBAgAABAgQIECBAoKWAQK+lproIECBAgAABAgQIECBAgAABAgQIdBYQ6HUGVj0BAgQIECBAgAABAgQIECBAgACBlgICvZaa6iJAgAABAgQIECBAgAABAgQIECDQWUCg1xlY9QQIECBAgAABAgQIECBAgAABAgRaCgj0WmqqiwABAgQIECBAgAABAgQIECBAgEBnAYFeZ2DVEyBAgAABAgQIECBAgAABAgQIEGgpINBrqakuAgQIECBAgAABAgQIECBAgAABAp0FBHqdgVVPgAABAgQIECBAgAABAgQIECBAoKWAQK+lproIECBAgAABAgQIECBAgAABAgQIdBYQ6HUGVj0BAgQIECBAgAABAgQIECBAgACBlgICvZaa6iJAgAABAgQIECBAgAABAgQIECDQWUCg1xlY9QQIECBAgAABAgQIECBAgAABAgRaCgj0WmqqiwABAgQIECBAgAABAgQIECBAgEBnAYFeZ2DVEyBAgAABAgQIECBAgAABAgQIEGgpINBrqakuAgQIECBAgAABAgQIECBAgAABAp0FBHqdgVVPgAABAgQIECBAgAABAgQIECBAoKWAQK+lproIECBAgAABAgQIECBAgAABAgQIdBYQ6HUGVj0BAgQIECBAgAABAgQIECBAgACBlgICvZaa6iJAgAABAgQIECBAgAABAgQIECDQWUCg1xlY9QQIECBAgAABAgQIECBAgAABAgRaCgj0WmqqiwABAgQIECBAgAABAgQIECBAgEBnAYFeZ2DVEyBAgAABAgQIECBAgAABAgQIEGgpINBrqakuAgQIECBAgAABAgQIECBAgAABAp0FBHqdgVVPgAABAgQIECBAgAABAgQIECBAoKWAQK+lproIECBAgAABAgQIECBAgAABAgQIdBYQ6HUGVj0BAgQIECBAgAABAgQIECBAgACBlgICvZaa6iJAgAABAgQIECBAgAABAgQIECDQWUCg1xlY9QQIECBAgAABAgQIECBAgAABAgRaCgj0WmqqiwABAgQIECBAgAABAgQIECBAgEBnAYFeZ2DVEyBAgAABAgQIECBAgAABAgQIEGgpINBrqakuAgQIECBAgAABAgQIECBAgAABAp0FBHqdgVVPgAABAgQIECBAgAABAgQIECBAoKWAQK+lproIECBAgAABAgQIECBAgAABAgQIdBYQ6HUGVj0BAgQIECBAgAABAgQIECBAgACBlgICvZaa6iJAgAABAgQIECBAgAABAgQIECDQWUCg1xlY9QQIECBAgAABAgQIECBAgAABAgRaCgj0WmqqiwABAgQIECBAgAABAgQIECBAgEBnAYFeZ2DVEyBAgAABAgQIECBAgAABAgQIEGgpINBrqakuAgQIECBAgAABAgQIECBAgAABAp0FBHqdgVVPgAABAgQIECBAgAABAgQIECBAoKWAQK+lproIECBAgAABAgQIECBAgAABAgQIdBYQ6HUGVj0BAgQIECBAgAABAgQIECBAgACBlgICvZaa6iJAgAABAgQIECBAgAABAgQIECDQWUCg1xlY9QQIECBAgAABAgQIECBAgAABAgRaCgj0WmqqiwABAgQIECBAgAABAgQIECBAgEBnAYFeZ2DVEyBAgAABAgQIECBAgAABAgQIEGgpINBrqakuAgQIECBAgAABAgQIECBAgAABAp0FBHqdgVVPgAABAgQIECBAgAABAgQIECBAoKWAQK+lproIECBAgAABAgQIECBAgAABAgQIdBYQ6HUGVj0BAgQIECBAgAABAgQIECBAgACBlgICvZaa6iJAgAABAgQIECBAgAABAgQIECDQWUCg1xlY9QQIECBAgAABAgQIECBAgAABAgRaCgj0WmqqiwABAgQIECBAgAABAgQIECBAgEBnAYFeZ2DVEyBAgAABAgQIECBAgAABAgQIEGgpINBrqakuAgQIECBAgAABAgQIECBAgAABAp0FBHqdgVVPgAABAgQIECBAgAABAgQIECBAoKWAQK+lproIECBAgAABAgQIECBAgAABAgQIdBYQ6HUGVj0BAgQIECBAgAABAgQIECBAgACBlgICvZaa6iJAgAABAgQIECBAgAABAgQIECDQWUCg1xlY9QQIECBAgAABAgQIECBAgAABAgRaCgj0WmqqiwABAgQIECBAgAABAgQIECBAgEBnAYFeZ2DVEyBAgAABAgQIECBAgAABAgQIEGgpINBrqakuAgQIECBAgAABAgQIECBAgAABAp0FBHqdgVVPgAABAgQIECBAgAABAgQIECBAoKWAQK+lproIECBAgAABAgQIECBAgAABAgQIdBYQ6HUGVj0BAgQIECBAgAABAgQIECBAgACBlgICvZaa6iJAgAABAgQIECBAgAABAgQIECDQWUCg1xlY9QQIECBAgAABAgQIECBAgAABAgRaCgj0WmqqiwABAgQIECBAgAABAgQIECBAgEBnAYFeZ2DVEyBAgAABAgQIECBAgAABAgQIEGgpINBrqakuAgQIECBAgAABAgQIECBAgAABAp0FBHqdgVVPgAABAgQIECBAgAABAgQIECBAoKWAQK+lproIECBAgAABAgQIECBAgAABAgQIdBYQ6HUGVj0BAgQIECBAgAABAgQIECBAgACBlgICvZaa6iJAgAABAgQIECBAgAABAgQIECDQWUCg1xlY9QQIECBAgAABAgQIECBAgAABAgRaCgj0WmqqiwABAgQIECBAgAABAgQIECBAgEBnAYFeZ2DVEyBAgAABAgQIECBAgAABAgQIEGgpINBrqakuAgQIECBAgAABAgQIECBAgAABAp0FBHqdgVVPgAABAgQIECBAgAABAgQIECBAoKWAQK+lproIECBAgAABAgQIECBAgAABAgQIdBYQ6HUGVj0BAgQIECBAgAABAgQIECBAgACBlgICvZaa6iJAgAABAgQIECBAgAABAgQIECDQWUCg1xlY9QQIECBAgAABAgQIECBAgAABAgRaCgj0WmqqiwABAgQIECBAgAABAgQIECBAgEBnAYFeZ2DVEyBAgAABAgQIECBAgAABAgQIEGgpINBrqakuAgQIECBAgAABAgQIECBAgAABAp0FBHqdgVVPgAABAgQIECBAgAABAgQIECBAoKWAQK+lproIECBAgAABAgQIECBAgAABAgQIdBYQ6HUGVj0BAgQIECBAgAABAgQIECBAgACBlgICvZaa6iJAgAABAgQIECBAgAABAgQIECDQWUCg1xlY9QQIECBAgAABAgQIECBAgAABAgRaCgj0WmqqiwABAgQIECBAgAABAgQIECBAgEBnAYFeZ2DVEyBAgAABAgQIECBAgAABAgQIEGgpINBrqakuAgQIECBAgAABAgQIECBAgAABAp0FBHqdgVVPgAABAgQIECBAgAABAgQIECBAoKWAQK+lproIECBAgAABAgQIECDg0x3gAAAHXUlEQVRAgAABAgQIdBYQ6HUGVj0BAgQIECBAgAABAgQIECBAgACBlgICvZaa6iJAgAABAgQIECBAgAABAgQIECDQWUCg1xlY9QQIECBAgAABAgQIECBAgAABAgRaCgj0WmqqiwABAgQIECBAgAABAgQIECBAgEBnAYFeZ2DVEyBAgAABAgQIECBAgAABAgQIEGgpINBrqakuAgQIECBAgAABAgQIECBAgAABAp0FBHqdgVVPgAABAgQIECBAgAABAgQIECBAoKWAQK+lproIECBAgAABAgQIECBAgAABAgQIdBYQ6HUGVj0BAgQIECBAgAABAgQIECBAgACBlgICvZaa6iJAgAABAgQIECBAgAABAgQIECDQWUCg1xlY9QQIECBAgAABAgQIECBAgAABAgRaCgj0WmqqiwABAgQIECBAgAABAgQIECBAgEBnAYFeZ2DVEyBAgAABAgQIECBAgAABAgQIEGgpINBrqakuAgQIECBAgAABAgQIECBAgAABAp0FBHqdgVVPgAABAgQIECBAgAABAgQIECBAoKWAQK+lproIECBAgAABAgQIECBAgAABAgQIdBYQ6HUGVj0BAgQIECBAgAABAgQIECBAgACBlgICvZaa6iJAgAABAgQIECBAgAABAgQIECDQWUCg1xlY9QQIECBAgAABAgQIECBAgAABAgRaCgj0WmqqiwABAgQIECBAgAABAgQIECBAgEBnAYFeZ2DVEyBAgAABAgQIECBAgAABAgQIEGgpINBrqakuAgQIECBAgAABAgQIECBAgAABAp0FBHqdgVVPgAABAgQIECBAgAABAgQIECBAoKWAQK+lproIECBAgAABAgQIECBAgAABAgQIdBYQ6HUGVj0BAgQIECBAgAABAgQIECBAgACBlgICvZaa6iJAgAABAgQIECBAgAABAgQIECDQWUCg1xlY9QQIECBAgAABAgQIECBAgAABAgRaCgj0WmqqiwABAgQIECBAgAABAgQIECBAgEBnAYFeZ2DVEyBAgAABAgQIECBAgAABAgQIEGgpINBrqakuAgQIECBAgAABAgQIECBAgAABAp0FBHqdgVVPgAABAgQIECBAgAABAgQIECBAoKWAQK+lproIECBAgAABAgQIECBAgAABAgQIdBYQ6HUGVj0BAgQIECBAgAABAgQIECBAgACBlgICvZaa6iJAgAABAgQIECBAgAABAgQIECDQWUCg1xlY9QQIECBAgAABAgQIECBAgAABAgRaCgj0WmqqiwABAgQIECBAgAABAgQIECBAgEBnAYFeZ2DVEyBAgAABAgQIEPh/7dghAQAAAIOw/q1fgrsVQExCgAABAgQIECBQChh6paYWAQIECBAgQIAAAQIECBAgQIAAgbOAoXcGlidAgAABAgQIECBAgAABAgQIECBQChh6paYWAQIECBAgQIAAAQIECBAgQIAAgbOAoXcGlidAgAABAgQIECBAgAABAgQIECBQChh6paYWAQIECBAgQIAAAQIECBAgQIAAgbOAoXcGlidAgAABAgQIECBAgAABAgQIECBQChh6paYWAQIECBAgQIAAAQIECBAgQIAAgbOAoXcGlidAgAABAgQIECBAgAABAgQIECBQChh6paYWAQIECBAgQIAAAQIECBAgQIAAgbOAoXcGlidAgAABAgQIECBAgAABAgQIECBQChh6paYWAQIECBAgQIAAAQIECBAgQIAAgbOAoXcGlidAgAABAgQIECBAgAABAgQIECBQChh6paYWAQIECBAgQIAAAQIECBAgQIAAgbOAoXcGlidAgAABAgQIECBAgAABAgQIECBQChh6paYWAQIECBAgQIAAAQIECBAgQIAAgbOAoXcGlidAgAABAgQIECBAgAABAgQIECBQChh6paYWAQIECBAgQIAAAQIECBAgQIAAgbOAoXcGlidAgAABAgQIECBAgAABAgQIECBQChh6paYWAQIECBAgQIAAAQIECBAgQIAAgbOAoXcGlidAgAABAgQIECBAgAABAgQIECBQChh6paYWAQIECBAgQIAAAQIECBAgQIAAgbOAoXcGlidAgAABAgQIECBAgAABAgQIECBQChh6paYWAQIECBAgQIAAAQIECBAgQIAAgbOAoXcGlidAgAABAgQIECBAgAABAgQIECBQChh6paYWAQIECBAgQIAAAQIECBAgQIAAgbOAoXcGlidAgAABAgQIECBAgAABAgQIECBQChh6paYWAQIECBAgQIAAAQIECBAgQIAAgbOAoXcGlidAgAABAgQIECBAgAABAgQIECBQChh6paYWAQIECBAgQIAAAQIECBAgQIAAgbOAoXcGlidAgAABAgQIECBAgAABAgQIECBQChh6paYWAQIECBAgQIAAAQIECBAgQIAAgbOAoXcGlidAgAABAgQIECBAgAABAgQIECBQChh6paYWAQIECBAgQIAAAQIECBAgQIAAgbOAoXcGlidAgAABAgQIECBAgAABAgQIECBQCgz9lryC0HQA+AAAAABJRU5ErkJggg==;" parent="1" vertex="1">
          <mxGeometry x="737.99" y="30" width="54.02" height="30" as="geometry" />
        </mxCell>
        <mxCell id="39zNZT4erERow79e_R9T-44" value="Azure" style="rounded=1;whiteSpace=wrap;html=1;dashed=1;verticalAlign=top;" parent="1" vertex="1">
          <mxGeometry x="520" y="550" width="380" height="190" as="geometry" />
        </mxCell>
        <mxCell id="39zNZT4erERow79e_R9T-61" value="FFC Environment" style="rounded=1;whiteSpace=wrap;html=1;verticalAlign=top;" parent="1" vertex="1">
          <mxGeometry x="540" y="600" width="350" height="130" as="geometry" />
        </mxCell>
        <mxCell id="ddJT-rH69FroFeJoHOdH-7" style="edgeStyle=orthogonalEdgeStyle;rounded=0;orthogonalLoop=1;jettySize=auto;html=1;entryX=1;entryY=0.5;entryDx=0;entryDy=0;" parent="1" source="39zNZT4erERow79e_R9T-62" target="qdc9lhtNKEkPQ6KhUSid-1" edge="1">
          <mxGeometry relative="1" as="geometry">
            <mxPoint x="855" y="690" as="targetPoint" />
          </mxGeometry>
        </mxCell>
        <mxCell id="39zNZT4erERow79e_R9T-62" value="&lt;font style=&quot;font-size: 10px&quot;&gt;Azure Kubernetes Service&lt;/font&gt;" style="rounded=1;whiteSpace=wrap;html=1;verticalAlign=top;" parent="1" vertex="1">
          <mxGeometry x="754.3" y="660" width="120" height="60" as="geometry" />
        </mxCell>
        <mxCell id="39zNZT4erERow79e_R9T-63" value="" style="aspect=fixed;html=1;points=[];align=center;image;fontSize=12;image=img/lib/mscae/Key.svg;" parent="1" vertex="1">
          <mxGeometry x="705.7" y="621" width="18.6" height="30" as="geometry" />
        </mxCell>
        <mxCell id="39zNZT4erERow79e_R9T-64" value="" style="aspect=fixed;html=1;points=[];align=center;image;fontSize=12;image=img/lib/azure2/compute/Kubernetes_Services.svg;" parent="1" vertex="1">
          <mxGeometry x="799.3" y="686.53" width="30" height="26.47" as="geometry" />
        </mxCell>
        <mxCell id="39zNZT4erERow79e_R9T-79" value="" style="shape=image;verticalLabelPosition=bottom;labelBackgroundColor=#ffffff;verticalAlign=top;aspect=fixed;imageAspect=0;image=data:image/png,iVBORw0KGgoAAAANSUhEUgAABPQAAALACAYAAAAUgizuAAAgAElEQVR4AezdP44VybYv4DuUN4I7AkbACBgBIwD3Ghi4ZWIh4SIsvAM6DkKoJZBwoIWBWkKCNjAa6WLgPKOeFv326c2mqth/IjLWivxCalUV1I6M/CIyW/kjIuO/zhUCBAgQIECAAAECBAgQIECAAAECBMoI/FeZlmooAQIECBAgQIAAAQIECBAgQIAAAQLnAj2DgAABAgQIECBAgAABAgQIECBAgEAhAYFeoc7SVAIECBAgQIAAAQIECBAgQIAAAQICPWOAAAECBAgQIECAAAECBAgQIECAQCEBgV6hztJUAgQIECBAgAABAgQIECBAgAABAgI9Y4AAAQIECBAgQIAAAQIECBAgQIBAIQGBXqHO0lQCBAgQIECAAAECBAgQIECAAAECAj1jgAABAgQIECBAgAABAgQIECBAgEAhAYFeoc7SVAIECBAgQIAAAQIECBAgQIAAAQICPWOAAAECBAgQIECAAAECBAgQIECAQCEBgV6hztJUAgQIECBAgAABAgQIECBAgAABAgI9Y4AAAQIECBAgQIAAAQIECBAgQIBAIQGBXqHO0lQCBAgQIECAAAECBAgQIECAAAECAj1jgAABAgQIECBAgAABAgQIECBAgEAhAYFeoc7SVAIECBAgQIAAAQIECBAgQIAAAQICPWOAAAECBAgQIECAAAECBAgQIECAQCEBgV6hztJUAgQIECBAgAABAgQIECBAgAABAgI9Y4AAAQIECBAgQIAAAQIECBAgQIBAIQGBXqHO0lQCBAgQIECAAAECBAgQIECAAAECAj1jgAABAgQIECBAgAABAgQIECBAgEAhAYFeoc7SVAIECBAgQIAAAQIECBAgQIAAAQICPWOAAAECBAgQIECAAAECBAgQIECAQCEBgV6hztJUAgQIECBAgAABAgQIECBAgAABAgI9Y4AAAQIECBAgQIAAAQIECBAgQIBAIQGBXqHO0lQCBAgQIECAAAECBAgQIECAAAECAj1jgAABAgQIECBAgAABAgQIECBAgEAhAYFeoc7SVAIECBAgQIAAAQIECBAgQIAAAQICPWOAAAECBAgQIECAAAECBAgQIECAQCEBgV6hztJUAgQIECBAgAABAgQIECBAgAABAgI9Y4AAAQIECBAgQIAAAQIECBAgQIBAIQGBXqHO0lQCBAgQIECAAAECBAgQIECAAAECAj1jgAABAgQIECBAgAABAgQIECBAgEAhAYFeoc7SVAIECBAgQIAAAQIECBAgQIAAAQICPWOAAAECBAgQIECAAAECBAgQIECAQCEBgV6hztJUAgQIECBAgAABAgQIECBAgAABAgI9Y4AAAQIECBAgQIAAAQIECBAgQIBAIQGBXqHO0lQCBAgQIECAAAECBAgQIECAAAECAj1jgAABAgQIECBAgAABAgQIECBAgEAhAYFeoc7SVAIECBAgQIAAAQIECBAgQIAAAQICPWOAAAECBAgQIECAAAECBAgQIECAQCEBgV6hztJUAgQIECBAgAABAgQIECBAgAABAgI9Y4AAAQIECBAgQIAAAQIECBAgQIBAIQGBXqHO0lQCBAgQIECAAAECBAgQIECAAAECAj1jgAABAgQIECBAgAABAgQIECBAgEAhAYFeoc7SVAIECBAgQIAAAQIECBAgQIAAAQICPWOAAAECBAgQIECAAAECBAgQIECAQCEBgV6hztJUAgQIECBAgAABAgQIECBAgAABAgI9Y4AAAQIECBAgQIAAAQIECBAgQIBAIQGBXqHO0lQCBAgQIECAAAECBAgQIECAAAECAj1jgAABAgQIECBAgAABAgQIECBAgEAhAYFeoc7SVAIECBAgQIAAAQIECBAgQIAAAQICPWOAAAECBAgQIECAAAECBAgQIECAQCEBgV6hztJUAgQIECBAgAABAgQIECBAgAABAgI9Y4AAAQIECBAgQIAAAQIECBAgQIBAIQGBXqHO0lQCBAgQIECAAAECBAgQIECAAAECAj1jgAABAgQIECBAgAABAgQIECBAgEAhAYFeoc7SVAIECBAgQIAAAQIECBAgQIAAAQICPWOAAAECBAgQIECAAAECBAgQIECAQCEBgV6hztJUAgQIECBAgAABAgQIECBAgAABAgI9Y4AAAQIECBAgQIAAAQIECBAgQIBAIQGBXqHO0lQCBAgQIECAAAECBAgQIECAAAECAj1jgAABAgQIECBAgAABAgQIECBAgEAhAYFeoc7SVAIECBAgQIAAAQIECBAgQIAAAQICPWOAAAECBAgQIECAAAECBAgQIECAQCEBgV6hztJUAgQIECBAgAABAgQIECBAgAABAgI9Y4AAAQIECBAgQIAAAQIECBAgQIBAIQGBXqHO0lQCBAgQIECAAAECBAgQIECAAAECAj1jgAABAgQIECBAgAABAgQIECBAgEAhAYFeoc7SVAIECBAgQIAAAQIECBAgQIAAAQICPWOAAAECBAgQIECAAAECBAgQIECAQCEBgV6hztJUAgQIECBAgAABAgQIECBAgAABAgI9Y4AAAQIECBAgQIAAAQIECBAgQIBAIQGBXqHO0lQCBAgQIECAAAECBAgQIECAAAECAj1jgAABAgQIECBAgAABAgQIECBAgEAhAYFeoc7SVAIECBAgQIAAAQIECBAgQIAAAQICPWOAAAECBAgQIECAAAECBAgQIECAQCEBgV6hztJUAgQIECBAgAABAgQIECBAgAABAgI9Y4AAAQIECBAgQIAAAQIECBAgQIBAIQGBXqHO0lQCBAgQIECAAAECBAgQIECAAAECAj1jgAABAgQIECBAgAABAgQIECBAgEAhAYFeoc7SVAIECBAgQIAAAQIECBAgQIAAAQICPWOAAAECBAgQIECAAAECBAgQIECAQCEBgV6hztJUAgQIECBAgAABAgQIECBAgAABAgI9Y4AAAQIECBAgQIAAAQIECBAgQIBAIQGBXqHO0lQCBAgQIECAAAECBAgQIECAAAECAj1jgAABAgQIECBAgAABAgQIECBAgEAhAYFeoc7SVAIECBAgQIAAAQIECBAgQIAAAQICPWOAAAECBAgQIECAAAECBAgQIECAQCEBgV6hztJUAgQIECBAgAABAgQIECBAgAABAgI9Y4AAAQIECBAgQIAAAQIECBAgQIBAIQGBXqHO0lQCBAgQIECAAAECBAgQIECAAAECAj1jgAABAgQIECBAgAABAgQIECBAgEAhAYFeoc7SVAIECBAgQIAAAQIECBAgQIAAAQICPWOAAAECBAgQIECAAAECBAgQIECAQCEBgV6hztJUAgQIECBAgAABAgQIECBAgAABAgI9Y4AAAQIECBAgQIAAAQIECBAgQIBAIQGBXqHO0lQCBAgQIECAAAECBAgQIECAAAECAj1jgAABAgQIECBAgAABAgQIECBAgEAhAYFeoc7SVAIECBAgQIAAAQIECBAgQIAAAQICPWOAAAECBAgQIECAAAECBAgQIECAQCEBgV6hztJUAgQIECBAgAABAgQIECBAgAABAgI9Y4AAAQIECBAgQIAAAQIECBAgQIBAIQGBXqHO0lQCBAgQIECAAAECBAgQIECAAAECAj1jgAABAgQIECBAgAABAgQIECBAgEAhAYFeoc7SVAIECBAgQIAAAQIECBAgQIAAAQICPWOAAAECBAgQIECAAAECBAgQIECAQCEBgV6hztJUAgQIECBAgAABAgQIECBAgAABAgI9Y4AAAQIECBAgQIAAAQIECBAgQIBAIQGBXqHO0lQCBAgQIECAAAECBAgQIECAAAECAj1jgAABAgQIECBAgAABAgQIECBAgEAhAYFeoc7SVAIECBAgQIAAAQIECBAgQIAAAQICPWOAAAECBAgQIECAAAECBAgQIECAQCEBgV6hztJUAgQIECBAgAABAgQIECBAgAABAgI9Y4AAAQIECBAgQIAAAQIECBAgQIBAIQGBXqHO0lQCBAgQIECAAAECBAgQIECAAAECAj1jgAABAgQIECBAgAABAgQIECBAgEAhAYFeoc7SVAIECBAgQIAAAQIECBAgQIAAAQICPWOAAAECBAgQIECAAAECBAgQIECAQCEBgV6hztJUAgQIECBAgAABAgQIECBAgAABAgI9Y4AAAQIECBAgQIAAAQIECBAgQIBAIQGBXqHO0lQCBAgQIECAAAECBAgQIECAAAECAj1jgAABAgQIECBAgAABAgQIECBAgEAhAYFeoc7SVAIECBAgQIAAAQIECBAgQIAAAQICPWOAAAECBAgQIECAAAECBAgQIECAQCEBgV6hztJUAgQIECBAgAABAgQIECBAgAABAgI9Y4AAAQIECBAgQIAAAQIECBAgQIBAIQGBXqHO0lQCBAgQIECAAAECBAgQIECAAAECAj1jgAABAgQIECBAgAABAgQIECBAgEAhAYFeoc7SVAIECBAgQIAAAQIECBAgQIAAAQICPWOAAAECBAgQIECAAAECBAgQIECAQCEBgV6hztJUAgQIECBAgAABAgQIECBAgAABAgI9Y4AAAQIECBAgQIAAAQIECBAgQIBAIQGBXqHO0lQCBAgQIECAAAECBAgQIECAAAECAj1jgAABAgQIECBAgAABAgQIECBAgEAhAYFeoc7SVAIECBAgQIAAAQIECBAgQIAAAQICPWOAAAECBAgQIECAAAECBAgQIECAQCEBgV6hztJUAgQIECBAgAABAgQIECBAgAABAgI9Y4AAAQIECBAgQIAAAQIECBAgQIBAIQGBXqHO0lQCBAgQIECAAAECBAgQIECAAAECAj1jgAABAgQIECBAgAABAgQIECBAgEAhAYFeoc7SVAIECBAgQIAAAQIECBAgQIAAAQICPWOAAAECBAgQIECAAAECBAgQIECAQCEBgV6hztJUAgQIECBAgAABAgQIECBAgAABAgI9Y4AAAQIECBAgQIAAAQIECBAgQIBAIQGBXqHO0lQCBAgQIECAAAECBAgQIECAAAECAj1jgAABAgQIECBAgAABAgQIECBAgEAhAYFeoc7SVAIECBAgQIAAAQIECBAgQIAAAQICPWOAAAECBAgQIECAAAECBAgQIECAQCEBgV6hztJUAgQIECBAgAABAgQIECBAgAABAgI9Y4AAAQIECBAgQIAAAQIECBAgQIBAIQGBXqHO0lQCBAgQIECAAAECBAgQIECAAAECAj1jgAABAgQIECBAgAABAgQIECBAgEAhAYFeoc7SVAIECBAgQIAAAQIECBAgQIAAAQICPWOAAAECBAgQIECAAAECBAgQIECAQCEBgV6hztJUAgQIECBAgAABAgQIECBAgAABAgI9Y4AAAQIECBAgQIAAAQIECBAgQIBAIQGBXqHO0lQCBAgQIECAAAECBAgQIECAAAECAj1jgAABAgQIECBAgAABAgQIECBAgEAhAYFeoc7SVAIECBAgQIAAAQIECBAgQIAAAQICPWOAAAECBAgQIECAAAECBAgQIECAQCEBgV6hztJUAgQIECBAgAABAgQIECBAgAABAgI9Y4AAAQIECBAgQIAAAQIECBAgQIBAIQGBXqHO0lQCBAgQIECAAAECBAgQIECAAAECAj1jgAABAgQIECBAgAABAgQIECBAgEAhAYFeoc7SVAIECBAgQIBABoGPX75laIY2ECBAgAABAgRWKyDQW23XO3ECBAgQIECAwOEC959/OI//FAIECBAgQIAAgXECAr1x9o5MgAABAgQIECglcOfxu/P//p9/n//vt/9bqt0aS4AAAQIECBCYTUCgN1uPOh8CBAgQIECAQGOBCPBuPXxz/n9u/+v87On7xrWrjgABAgQIECBA4FABgd6hYn6fAAECBAgQILAigXhf3o17L7+HeTE7z/vzVtT5TpUAAQIECBBIKyDQS9s1GkaAAAECBAgQGCvw+59fz6/dffY9zDM7b2xfODoBAgQIECBAYFtAoLet4XsCBAgQIECAAIHvAk/efv7+vrwI8uI/s/MMDAIECBAgQIBAHgGBXp6+0BICBAgQIECAQAqBeE/eJsjbfL354HWKtmkEAQIECBAgQIDA+blAzyggQIAAAQIECBD4LrC9+cUmyNt8/e2PvygRIECAAAECBAgkERDoJekIzSBAgAABAgQIjBSIMC9m4W0CvO2vZueN7BnHJkCAAAECBAj8LCDQ+9nEnxAgQIAAAQIEViWwu/nFdpgX35udt6rh4GQJECBAgACBAgICvQKdpIkECBAgQIAAgV4CEdbFhhe7Id7m5xv3XvY6tHoJECBAgAABAgSOFBDoHQnnYwQIECBAgACB6gL3n3+4MsyLUC92u1UIECBAgAABAgRyCQj0cvWH1hAgQIAAAQIEugtctfnFZmZefL1+9qJ7WxyAAAECBAgQIEDgcAGB3uFmPkGAAAECBAgQKCtw1eYX22FefP/o1aey56nhBAgQIECAAIGZBQR6M/eucyNAgAABAgQIbAn8avOL7UDv2t1n5xH+KQQIECBAgAABAvkEBHr5+kSLCBAgQIAAAQLNBX61+cV2mBffnz1937wNKiRAgAABAgQIEGgjINBr46gWAgQIECBAgEBagX02v9gO9GLXW7Pz0nanhhEgQIAAAQIEzgV6BgEBAgQIECBAYFKBCOXuPH53vh3W7fO92XmTDginRYAAAQIECEwjINCbpiudCAECBAgQIEDgH4FDNr/YDvlidt7HL9/+qch3BAgQIECAAAEC6QQEeum6RIMIECBAgAABAqcJxOYX189eHDwzL4K9Ww/fnHZwnyZAgAABAgQIEOguINDrTuwABAgQIECAAIHlBA7d/GJ7dl58H2GgQoAAAQIECBAgkFtAoJe7f7SOAAECBAgQILC3wKGbX+yGeTcfvN77WH6RAAECBAgQIEBgnIBAb5y9IxMgQIAAAQIEmgkcs/nFbqAXs/sUAgQIECBAgACB/AICvfx9pIUECBAgQIAAgUsFYvOLeO/dbjh36M9m511K7C8IECBAgAABAukEBHrpukSDCBAgQIAAAQL7CcRutDfuvTw5zIvwb8nZeRFCKgQIECBAgAABAscLCPSOt/NJAgQIECBAgMAwgdi84trdZ03CvAgFlypP3n62k+5S2I5DgAABAgQITCsg0Ju2a50YAQIECBAgMKtAhGL//T//bhLmxey8qG+pEkt745h2011K3HEIECBAgACBGQUEejP2qnMiQIAAAQIEphU4e/q+WZAXwVrM8luqxFLbTRB5/ezFUod1HAIECBAgQIDAdAICvem61AkRIECAAAECMwq02vwiQrzt/+4//7AYV8wE3D72kjMDFztJByJAgAABAgQILCAg0FsA2SEIECBAgAABAqcIRJi3Waq6HYid+n3Mzltyg4rdc4jZegoBAgQIECBAgMDhAgK9w818ggABAgQIECCwmEDLzS92A8BYvrtUiR15d48fPy/ZhqXO1XEIECBAgAABAr0FBHq9hdVPgAABAgQIEDhS4Lc//vrPO+cuCsNO+bOYHbfk7LzL3v0X7YiwTyFAgAABAgQIENhfQKC3v5XfJECAAAECBAgsJhDvtttsIHFKcHfZZ5eeGXfj3ssLZ+hF+2IprkKAAAECBAgQILC/gEBvfyu/SYAAAQIECBDoLtBr84vtYG/pWXGxbHj7+Bd9H7+jECBAgAABAgQI7Ccg0NvPyW8RIECAAAECBLoL9Nr8YjdAu/XwTfdz2T7AZcttt9sVG3QoBAgQIECAAAEC+wkI9PZz8lsECBAgQIAAga4CPTe/2A7O4vulZ8NFWLfbhot+fvTqU1djlRMgQIAAAQIEZhEQ6M3Sk86DAAECBAgQKCvQc/OL3eBs6ffVPXn7ea8wL9oZS4EVAgQIECBAgACBXwsI9H5t5DcIECBAgAABAt0Eem9+sRvoRXi4ZIkAcbcNV/185/G7JZvnWAQIECBAgACBkgICvZLdptEECBAgQIBAdYF4X16EV1eFW63/bunZeXGOx+zU+/HLt+rdq/0ECBAgQIAAga4CAr2uvConQIAAAQIECPwssNTmF7uB4NKz8w5Zbrvd1qWDx597yJ8QIECAAAECBHILCPRy94/WESBAgAABApMJxIYU189eLDozL8KyG/deLi556HLb7VAvwkCFAAECBAgQIEDgYgGB3sUu/pQAAQIECBAg0Fxgyc0vtsOx+H7pHWRj2exuGw75OXbGVQgQIECAAAECBC4WEOhd7OJPCRAgQIAAAQJNBZbe/GI7PItwLJb5LlnifLfbcMz3S4eQS/o4FgECBAgQIEDgFAGB3il6PkuAAAECBAgQ2ENg6c0vdsOzCNeWLrHEd7cdh/4cG2rYIGPpnnM8AgQIECBAoIKAQK9CL2kjAQIECBAgUFIgZsXdevjm5GDr0CBs+/dHzM6L9wRut+GU78NPIUCAAAECBAgQ+FFAoPejh58IECBAgAABAk0EYmZZi1lqp4Rh8dmzp++bnM8hlcQxT2339ucjIFQIECBAgAABAgT+ERDo/WPhOwIECBAgQIBAE4EIoGJm3HYoNeL7WLK69LvzArD1uY/YobfJQFAJAQIECBAgQKCTgECvE6xqCRAgQIAAgXUKPHn7+TyCtBEB3u4xR8zOi/PfbUeLn6NehQABAgQIECBA4G8BgZ6RQIAAAQIECBBoJNB6qekpQdioDSVuPnjdJdCL81EIECBAgAABAgT+FhDoGQkECBAgQIAAgRMFMmx+sRv+jdhMIhx6zk4cMePwxKHh4wQIECBAgACBLgICvS6sKiVAgAABAgTWIhAhVq9Zabsh3SE/j9hIotdy2815j5p1uJax7DwJECBAgACBOgICvTp9paUECBAgQIBAMoEsm19sAq/N1wgYR5Qlgs1R5zbC0zEJECBAgAABApcJCPQuk/HnBAgQIECAAIErBH7746+uy0s34dwxX6NtS5fey223HUbMPlza0/EIECBAgAABAlcJCPSu0vF3BAgQIECAAIELBO4//5A2zBs1gy1MtkO3nt9fP3txQa/4IwIECBAgQIDAegQEeuvpa2dKgAABAgQInCiQcfOL3eBsxOy8YL1x7+VigV6c86NXn07sTR8nQIAAAQIECNQVEOjV7TstJ0CAAAECBBYUyLr5xXagN2rmWiyB3W7HEt/HBhkKAQIECBAgQGCtAgK9tfa88yZAgAABAgT2Fsi6+cVucDZq1trZ0/eLB3px7nFchQABAgQIECCwRgGB3hp73TkTIECAAAECewtk3vxiO9C7dvfZecwiHFHi2NttWfL7j1++jThlxyRAgAABAgQIDBUQ6A3ld3ACBAgQIEAgs0DmzS92Q7NRs9WevP08LMwLg1GbgGQet9pGgAABAgQIzC8g0Ju/j50hAQIECBAgcKBAzHS78/jd0KBqN7C76ud4n9yo2XkRqF3VtiX+btRGIAcOK79OgAABAgQIEGgmINBrRqkiAgQIECBAYAaBCptf7IZko2bnhVWEibvtWfrnWPKrECBAgAABAgTWJCDQW1NvO1cCBAgQIEDgSoEqm19sB2YjZ+eNXm677TBqQ5ArB5S/JECAAAECBAh0EhDodYJVLQECBAgQIFBLoMrmF9shVnw/anZe9G6G5bYbjwg2FQIECBAgQIDAWgQEemvpaedJgAABAgQIXCpQafOLTYAVXyPEGrXLa5blttsetx6+ubSP/QUBAgQIECBAYCYBgd5MvelcCBAgQIAAgYMFKm1+sR1exfcjA6wIQXfbk+HnUQHnwQPPBwgQIECAAAECJwgI9E7A81ECBAgQIECgrkDMMItALEMIdWwb4p1/o8qNey9T2kW7FAIECBAgQIDA7AICvdl72PkRIECAAAECPwnELK6sgdS+4V68v25UiSBx33aO+L3YrEMhQIAAAQIECMwsINCbuXedGwECBAgQIPCTQMWdbC8KxWITj1ElNuK4qE1Z/uza3WejaByXAAECBAgQILCIgEBvEWYHIUCAAAECBDIIxMyt2EgiS/B0bDtGzs6LfozA7Ni2L/W5R68+ZRhy2kCAAAECBAgQ6CIg0OvCqlICBAgQIEAgm0D2WWWHBF0jl5TGsQ9p66jfHbkDcLaxrz0ECBAgQIDAfAICvfn61BkRIECAAAECWwIzbH6xHYpdP3uxdXbLf1tpI5GRuwAv3zOOSIAAAQIECKxJQKC3pt52rgQIECBAYGUCEebF8tTtQKz69yOXkoZntSXLI3cCXtnl5nQJECBAgACBBQUEegtiOxQBAgQIECCwnMAsm19sB5Dx7roI1UaVKsttt81iN2OFAAECBAgQIDCbgEBvth51PgQIECBAgMB57ABbbSbZdgh12ffxHsCRpepsx5HvHBzZX45NgAABAgQIzCsg0Ju3b50ZAQIECBBYpcD95x+mDPMioBw5O6/icttNMBp2CgECBAgQIEBgJgGB3ky96VwIECBAgMCKBSJwqrRhwyZs2vfr6Nl5EZTu29aMvzfab8WXplMnQIAAAQIEOggI9DqgqpIAAQIECBBYViDCvKrLQfcJv0bPzovejHfR7dPWrL8Thh+/fFt2YDoaAQIECBAgQKCTgECvE6xqCRAgQIAAgWUEZtz8YjcUGz27LIx321Tx5wh9FQIECBAgQIDADAICvRl60TkQIECAAIGVCsy6+cV2WJZhZlkEitttqvx9hJMKAQIECBAgQKC6gECveg9qPwECBAgQWKnArJtf7IZl8V7A0eXa3WfTBHpxLgoBAgQIECBAoLqAQK96D2o/AQIECBBYmUC8L+/O43fTBEy7Ad7uz6NnlD15+3k660evPq3sqnG6BAgQIECAwGwCAr3ZetT5ECBAgACBiQVm3/xiN8zL8M63GXcOjmXMCgECBAgQIECgsoBAr3LvaTsBAgQIEFiRwBo2v9gN9OIdgSNLBKgRfu22a4afR280MrJfHZsAAQIECBCoLyDQq9+HzoAAAQIECEwvsPB+D/UAACAASURBVIbNL3ZDshv3Xg7v1xmX2247f/zybbixBhAgQIAAAQIEjhEQ6B2j5jMECBAgQIDAYgJr2fxiO2iK7yNMG11iye9uu2b6OcOS5tF97PgECBAgQIBATQGBXs1+02oCBAgQILAKgTVtfrEdlF0/ezG8f2debrttPXpZ8/CO1gACBAgQIECgpIBAr2S3aTQBAgQIEJhbIMKkGTdj2A6Srvo+wy6sMTPyqjbO8nfX7j6b+2JydgQIECBAgMCUAgK9KbvVSREgQIAAgboC8V6zeH/cLIHRoecRAVMEmqPLmvogQ4A6ur8dnwABAgQIEKglINCr1V9aS4AAAQIEphZY4062u4Ffht1Xox922zXzz7GTb4YQdeqL28kRIECAAAECTQUEek05VUaAAAECBAgcKxCbQESwMnNw9KtzyxIsRaj4q7bO9vexxFshQIAAAQIECFQREOhV6SntJECAAAECEwusMUC6KBDLMDsvhlks+72ofbP/WSz3VggQIECAAAECFQQEehV6SRsJECBAgMCkAmvf/GI7IMsyOy9mSm63a03fx3sDFQIECBAgQIBABQGBXoVe0kYCBAgQIDChQIR5Nx+8Xm14tBuUZZmdt+bdhaNPItBUCBAgQIAAAQLZBQR62XtI+wgQIECAwIQCNr/41w9BZszOy7DcM0JW7zH894RXnFMiQIAAAQIEZhMQ6M3Wo86HAAECBAgkF/jtj79WHxrtzs6LmYoZypqX2273yf3nHzJ0hzYQIECAAAECBC4VEOhdSuMvCBAgQIAAgdYCEZSsfQbYdnC0+T5CzgzFEui/Z05mmTGZYUxoAwECBAgQIJBTQKCXs1+0igABAgQITCVg84sfl9hugrz4mmV2nuW2P/ZRvEtQIUCAAAECBAhkFRDoZe0Z7SJAgAABApMI2Pzix6BoO8yL77PMzovZk7ttW/vP8a5HhQABAgQIECCQUUCgl7FXtIkAAQIECEwiYPOLq8O8G/depunpaMvaA7zd879+9iJN/2gIAQIECBAgQGBbQKC3reF7AgQIECBAoJmAzS+uDvMiPIpNKDKUCF53wyw//91/WfoowzjRBgIECBAgQCCPgEAvT19oCQECBAgQmEbA5he/DvMyzf46e/peoHf74j6LDTIUAgQIECBAgEA2AYFeth7RHgIECBAgUFgg3pd35/E74dAl4dD2rLdHrz6l6elrd5/psyv6LAJPhQABAgQIECCQSUCgl6k3tIUAAQIECBQWsPnFxTO8tkO8zfcRoIVXhhJLSjft8vXiPoxZeh+/fMvQXdpAgAABAgQIEPguINAzEAgQIECAAIGTBWx+cXEQdFlAlmnG162HbwR6V8zO2/ThzQevT75OVECAAAECBAgQaCUg0GslqR4CBAgQILBSAZtfHBbmxWyvLLPzoh3Rnk1o5evVfRnBtUKAAAECBAgQyCAg0MvQC9pAgAABAgSKCtj84uoA6KKALNPsPMttD+u/WCqtECBAgAABAgQyCAj0MvSCNhAgQIAAgYICNr84LAyKcC/bu9hiGelFoaM/u7xvM21mUvC2ockECBAgQIBAIwGBXiNI1RAgQIAAgbUI2Pzi8rDnV0FYptl5ltse148RyioECBAgQIAAgdECAr3RPeD4BAgQIECgkEDs9Hnj3kuzuvbYRGE33Ms2Oy+WS++20c/7hXwxO1UhQIAAAQIECIwUEOiN1HdsAgQIECBQSMBOtvuFPZeFYtl2SRXMntafEW4rBAgQIECAAIFRAgK9UfKOS4AAAQIECgnE5gl2Qz0tAIrdgLOUCGcvCx79+X79nC2gzTK2tIMAAQIECBBYRkCgt4yzoxAgQIAAgbIC8d43Ic9+Ic9lTtnCH316Wn9u+jmCboUAAQIECBAgMEJAoDdC3TEJECBAgEABgdg04dbDN8K8I96Xtwl8Nl8zzc6LoXft7jP92qBfw1EhQIAAAQIECIwQEOiNUHdMAgQIECBQQCBmlW0CKV+Pn9EV76rLVGJWmf48vj937R69+pSpe7WFAAECBAgQWImAQG8lHe00CRAgQIDAIQJCn3aBT7ZlmbFD624o5efj+zveLRmzWRUCBAgQIECAwJICAr0ltR2LAAECBAgUEIhw4vrZC6FPgyWZ4ZipRN/a3OT48O6y4DOWpisECBAgQIAAgSUFBHpLajsWAQIECBAoIGDDhHaBT7blmGZetuvb3XDv45dvBa5uTSRAgAABAgRmERDozdKTzoMAAQIECDQQiFDCDK42oU9smJBtKab3Irbp290wL37O9q7EBrcDVRAgQIAAAQKJBQR6iTtH0wgQIECAwNICdrVtF/jETMdMxXLbdn17UaAXf5btfYmZxp+2ECBAgAABAm0FBHptPdVGgAABAgTKCvz2x1/em9fgvXkR7GTcKOH+8w/6t1H/XhboRb8rBAgQIECAAIElBAR6Syg7BgECBAgQKCAQSwYvCyr8+WGzu7LNzovhp38P68Njx3wEpwoBAgQIECBAoLeAQK+3sPoJECBAgEABAbO32oU9MUsr2wYJv//5VVjbeXbeJgDM2P8FbkGaSIAAAQIECBwoINA7EMyvEyBAgACB2QS8W61dmBehzp3H79INETsXt+3jTXh32dd4F6VCgAABAgQIEOgpINDrqatuAgQIECBQQEDY0zbsidlw2UrsuHtZ+OTP2/b/xjPjOMg2LrWHAAECBAgQOF5AoHe8nU8SIECAAIHyArE0NJYIbkIIX08Ld24+eJ1uTMTOq/r1tH49xu/62Yt0Y0GDCBAgQIAAgXkEBHrz9KUzIUCAAAECBwtEAHVMWOEzFwdEsVNwthJLgPXXxf3V2yXCVIUAAQIECBAg0ENAoNdDVZ0ECBAgQKCAgJlbbUOejLPzvB+xbR8fGgDG7FeFAAECBAgQINBDQKDXQ1WdBAgQIEAguUAEPbEk8NCAwu9fHhBlnJ0ntL28v5Yay/GOSoUAAQIECBAg0FpAoNdaVH0ECBAgQKCAwP3nH4R5t9uFPTfuvUzZ65ZUt+vjYwPAmKUX76pUCBAgQIAAAQItBQR6LTXVRYAAAQIECghYhtk+5Mn4rjT93L6fjw31Mi7HLnCr0kQCBAgQIEDgCgGB3hU4/ooAAQIECMwoYJOEtkFP1t1MzcJs28/Hhnmbz/3+59cZbyfOiQABAgQIEBgkINAbBO+wBAgQIEBghECECrEEcBMy+Hp66BPBWcYSy4D17+n928rw2t1nGYeJNhEgQIAAAQJFBQR6RTtOswkQIECAwDECQp62AU+ENLG0NVuJ4LZVEKWedmPm0atP2YaK9hAgQIAAAQJFBQR6RTtOswkQIECAwKECdjxtF8xsQq6sO5hGuzZt9LV9vx9rGrNjFQIECBAgQIBACwGBXgtFdRAgQIAAgeQCMYss3vV2bBDhcz+HQhHOZJydF0MxZg7qs5/7LINJvMNSIUCAAAECBAicKiDQO1XQ5wkQIECAQAEBM7bahztZZ+f99sdfwrzb7fu7ZRj48cu3AncNTSRAgAABAgQyCwj0MveOthEgQIAAgQYCER7YCKNtwBOeWUMZuxi37euWQd6mrpsPXje4slVBgAABAgQIrFlAoLfm3nfuBAgQILAKAQFP+4Dn1sM3KcdOLAG23LZ9f2+CuJZf452WCgECBAgQIEDgWAGB3rFyPkeAAAECBAoIWH7ZJ9yJXWQzFhuf9OnvlkHepq4IXhUCBAgQIECAwLECAr1j5XyOAAECBAgUELhx76X3qTV+n1rm5ZLRtk1g5Gv+cO/Rq08F7iKaSIAAAQIECGQUEOhl7BVtIkCAAAECDQTM1uoT6MSsx4wlltt6V2KfPu8VjmZ+F2PGMa5NBAgQIECAwD8CAr1/LHxHgAABAgSmEfAutT7BTubZefeffzA7r/FszF5B3na9Wd/HOM3N0IkQIECAAIFJBQR6k3as0yJAgACBdQucPX0v3OkQ7mSdnRej3fLqPiHudvjW6/usOyav+y7q7AkQIECAQG4BgV7u/tE6AgQIECBwsECEA5Zetg93IjDLWmKTjl5hk3rbj6Vd08xjK+uY1y4CBAgQILB2AYHe2keA8ydAgACB6QRiCd9uYODn00OZeCdh1mJG5un9O/oayTy+so577SJAgAABAmsWEOitufedOwECBAhMJxBLQkcHEzMe/9rdZ6nHSrRvRvc1nVPMqlUIECBAgAABAvsKCPT2lfJ7BAgQIECggID3qPWZqRUbTmQtQtw+fT4iTMw8zrKOf+0iQIAAAQJrFRDorbXnnTcBAgQITCdgl9M+wU7Mfotdg7MWy2379PuIQC9m6dkgI+uVpl0ECBAgQCCXgEAvV39oDQECBAgQOEogAicbYfQJdiIwy1qi3y237dPvIwK9OGa8A1MhQIAAAQIECPxKQKD3KyF/T4AAAQIECgiYpdUn1ImQNPPsvNhIYVTw5Lh9xly4xq7FCgECBAgQIEDgKgGB3lU6/o4AAQIECBQQiCV6Zuf1CVcyz86LoXnzwWuB3u0+fT8ysLx+9qLAnUcTCRAgQIAAgZECAr2R+o5NgAABAgQaCAh1+gQ62d9nZpl1n34fGeRtH/vRq08N7g6qIECAAAECBGYVEOjN2rPOiwABAgRWIWDJZb9QJ/u7zGyC0q/vt4O1Ud9HoKwQIECAAAECBC4TEOhdJuPPCRAgQIBAcoGYoRVL80YFDrMfN/t7zG7ce6nvJ1xuu31dZV/ynfwWqXkECBAgQGBqAYHe1N3r5AgQIEBgZgEztPrN0IplzJlLhI3bwY/v+42F0bbxjkyFAAECBAgQILArINDbFfEzAQIECBAoIOD9aX0DnN/++Cv1KLCrcd/+Hx3ibR8/e7ic+kLROAIECBAgMLGAQG/iznVqBAgQIDCvwJ3H78zQ6rTcskKAcu3uM/3fqf+3w7Qs32df/j3vndaZESBAgACBvAICvbx9o2UECBAgQOBCgZg9Fi/MzxI2zNaO7LPzLLddz+y8zbUVAa5CgAABAgQIENgWEOhta/ieAAECBAgUELAZQr9AJ2yzF8tt+/X/JkDL+PXRq0/Zh6b2ESBAgAABAgsKCPQWxHYoAgQIECBwqsCTt5/NzOu41DJ7aBLvTrTcdp2BXszKVQgQIECAAAECGwGB3kbCVwIECBAgkFwgwpzrZy8Eep0CvQjKwjhzEeiuM8zbzBi89fBN5uGpbQQIECBAgMCCAgK9BbEdigABAgQInCJgqWXfMCd8s5fYsGMT7vjadzxk9f345Vv2Yap9BAgQIECAwAICAr0FkB2CAAECBAicKhAP8TbC6BfghG322XnRPmOg3xjIGuDttqvCLsyn3u98ngABAgQIEPi1gEDv10Z+gwABAgQIDBeIpXa7D/Z+bhfuVJidd//5B2Og03LratdSLL1WCBAgQIAAgXULCPTW3f/OngABAgQKCPz2x1+CnI5BToXZeTFM7W7cLsCtFuDttjfe96gQIECAAAEC6xYQ6K27/509AQIECBQQEOT0DXIqzM77/c+vQt2Ooe5uYFbh5+w7Mhe4tWoiAQIECBAoLSDQK919Gk+AAAECswvEQ3uFcKFqG2N2XoVNBmyI0jfUrTh+q4zd2e/Rzo8AAQIECIwSEOiNkndcAgQIECDwC4HYBCGW1lUMG6q0Od5NWKEYBwK9i66pKuO3wjWmjQQIECBAoJqAQK9aj2kvAQIECKxGwKys/iFOLGXNXiy37T8OLgrLqvxZhTGc/RrTPgIECBAgUFFAoFex17SZAAECBKYXiGWgsaSuSqhQsZ03H7wuMY4EuwK9q66veMemQoAAAQIECKxPQKC3vj53xgQIECBQQCCW0l31EO/vTg95Yvfg7MWy69P7eQ3XypO3n7MPZe0jQIAAAQIEGgsI9BqDqo4AAQIECJwqEA/nawghRp5jldl5xoJAb5/rJGbzKgQIECBAgMC6BAR66+pvZ0uAAAECBQRiCd0+D/F+5/iwp8qMpgge9fPx/bwmu1iarRAgQIAAAQLrERDoraevnSkBAgQIFBC4//yDAOd23wDn+tmLAiPh/DyW23qPYt+xMFPgF2Ml3r2pECBAgAABAusQEOito5+dJQECBAgUEBDgLBPePHr1qcBoOD8X7i4zHmYK9aosJS9xAWokAQIECBBILiDQS95BmkeAAAEC6xGwm2n/AOfa3WffZ75VGFWWXvcfDzOFeZtz+f3PrxWGtzYSIECAAAECJwoI9E4E9HECBAgQINBCIJbKWV7ZP8Cp8p6xCGU2AY2v/cfFTMZVlpS3uG+qgwABAgQIrFlAoLfm3nfuBAgQIJBGwGys/qFNBKaxrLlCMVuz/3iYKcTbPZcqy8orXIvaSIAAAQIEsgoI9LL2jHYRIECAwGoEYsfV3QdyP7cPdKrMzouBH0uDjYH2Y2AtphFeKwQIECBAgMDcAgK9ufvX2REgQIBAcoGYMRZL5NYSNIw6z0qz8yy3FeS1uE4qBdjJb9OaR4AAAQIEUgoI9FJ2i0YRIECAwFoE7GS6THhTKdyw3HaZMdEiNMteR7ybUyFAgAABAgTmFBDozdmvzooAAQIECgjE7DwbYfQPb8K4SrARY8Jy2/5jInsQ16p9Nx+8LnAn1EQCBAgQIEDgGAGB3jFqPkOAAAECBBoI3Hn8zlLb2/3Dm1sP3zTorWWq8D7F/uOhVVhWpZ7f/vhrmcHrKAQIECBAgMCiAgK9RbkdjAABAgQI/C0QD9lm5y0T3sQ76aoUgd4yY6JKGNeinTHjUyFAgAABAgTmExDozdenzogAAQIECgjcuPfS7LwFZudVXHIYMwpbBDnqEA5uxsCjV58K3BU1kQABAgQIEDhEQKB3iJbfJUCAAAECDQTMwlouaKm63FDgu9wY2YReM3+N2cAKAQIECBAgMJeAQG+u/nQ2BAgQIJBcIDY9uH72wgwss/OuHKnGiUCvdcBY6V2SV14c/pIAAQIECBD4LiDQMxAIECBAgMCCAmdP3wvzFgjzIgyJmZCVi12QhXqtQ70quz1Xvm61nQABAgQILCUg0FtK2nEIECBAYPUC8TBtI4xlQpqYBTlDiQ09Woc66ltmDGZ0jqXcCgECBAgQIDCHgEBvjn50FgQIECBQQMBmB8sFKTNtAuCdi8uNm4whXOs2VZ+5WuBWr4kECBAgQGARAYHeIswOQoAAAQJrF4jNGVo/mKvv4qDn2t1n57FcdaYiDL64r10Dh7vE9aEQIECAAAEC9QUEevX70BkQIECAQAEBu5YeHjwcG9bEewpnLDcfvBYKL/T+xWPHXpXPzTSDdcZr3TkRIECAAIF9BAR6+yj5HQIECBAgcILA/ecfBDELBTHxjsLZZudtDz07JC8XDFcJ545pZ1wnNsjYvrJ8T4AAAQIE6gkI9Or1mRYTIECAQCGBCJdiidsxD90+c3h4M+vsvM2Qt/Pt4WPCdXSxWSzjVggQIECAAIG6AgK9un2n5QQIECBQQCACJoHCxYFCa5fZZ+dthrudb5cZT63HZ8b6YiwpBAgQIECAQE0BgV7NftNqAgQIECggEEvaImTK+CA/Y5tmn523PeRtsiLUa3ENxxJuhQABAgQIEKgpINCr2W9aTYAAAQIFBOxMulzossZ3gt15/E5YvNC7GVuEZ1nrePL2c4G7qSYSIECAAAECuwICvV0RPxMgQIAAgQYC8ZCc9QF+xnbFDrBrLHa+XS40nvG6iXOKMFwhQIAAAQIE6gkI9Or1mRYTIECAQHKB2Ljgxr2XAr0FZ0+t+V1gdr4V6p0aNq5puXry/31oHgECBAgQ2FtAoLc3lV8kQIAAAQL7Cdx//kGYt2CYt9bZeZvRaCdlgd6pgd4al6xvrh9fCRAgQIBAVQGBXtWe024CBAgQSCkQ4YqNMJYNWGKDiLUXO98uO+ZODdAyfn7twfja7yHOnwABAgTqCQj06vWZFhMgQIBAYoFYupbxYX3WNsXSZuVvATvfCvVOvc7XvHTdfYQAAQIECFQTEOhV6zHtJUCAAIG0Ah+/fDM7b8GlthFe2KHzx8vBcm+h3imh3rW7z34cUH4iQIAAAQIE0goI9NJ2jYYRIECAQDUBG2EsG6bEZhDKzwK3Hr4xS3ThYPmUEC3bZx+9+vTzoPInBAgQIECAQDoBgV66LtEgAgQIEKgoEDPFsj2Yz94ewcPlV4pwedlweaZrLd4BqhAgQIAAAQL5BQR6+ftICwkQIEAguUBshBGzxWZ6qM9+LrE0MNyViwXsfCvQO+UajneBKgQIECBAgEBuAYFe7v7ROgIECBAoIGAjjOXDE4HDry+MeKfjKaGOzy4/rjOZx/hRCBAgQIAAgbwCAr28faNlBAgQIFBAIGZCxRK1TA/is7clvM3O2+/isPPtukO5U+4FNx+83m+Q+S0CBAgQIEBgiIBAbwi7gxIgQIDALAJ3Hr8T5i28AYHZeYddPfGuwVOCHZ9dbygYgbBCgAABAgQI5BQQ6OXsF60iQIAAgQICZj8tH3TE7DxLAQ+/OOx8u/xYnSEIjXdVKgQIECBAgEBOAYFezn7RKgIECBAoIGAn0eVDErPzjr8wjNflx+sMoZ7dpI+/5nySAAECBAj0FBDo9dRVNwECBAhMK/Dk7WfLGBdeamt23mmXU7x30G7MQr1DQ0bvrDztuvNpAgQIECDQS0Cg10tWvQQIECAwrYBgZEwo4iX9p19SsVw5AppDQx2/P2bMZ3GPJdsKAQIECBAgkEtAoJerP7SGAAECBAoIxLLPLA/aa2qHF/S3uTi8+3Hd4dyx9wzvrmxz/amFAAECBAi0EhDotZJUDwECBAisQsAMpzFhiNl5bS8vO9+OGcfHhmkZPhfvYFQIECBAgACBPAICvTx9oSUECBAgUEDAbqFjghCz89pfHMbymLGcIZw7tg3x7lCFAAECBAgQyCEg0MvRD1pBgAABAgUELFUcE4CYGdTv4rDz7ZgxfWygNvpz8f5FhQABAgQIEMghINDL0Q9aQYAAAQIFBIQfY8IPs4L6XRw2eBkzpkcHc6cc//7zD/0GpJoJECBAgACBvQUEentT+UUCBAgQWLNAPMSe8hDss8cFJ9fPXqx52C1y7t4LedzYXOs1HbP0bJCxyKXpIAQIECBA4EoBgd6VPP6SAAECBAicn8cspniIXesD/Mjzjs0blP4ClpML9Q65zuP9iwoBAgQIECAwVkCgN9bf0QkQIECggMDZ0/fCvNvLBx7X7j77HqYWGCJTNDGWNh8S6vjd5a+JTOa///l1inHvJAgQIECAQFUBgV7VntNuAgQIEFhEwHLEcaFFBKnKsgJ2vh033jOFdfu0xXL4Za9NRyNAgAABArsCAr1dET8TIECAAIEtgZsPXpu1NGB2XixxjqXOyvICxrxQb59AL37HhjXLX5+OSIAAAQIENgICvY2ErwQIECBAYEfAEsRxwYbZeTuDccEf7Xw7btzvG6Rl+b0I3hUCBAgQIEBgjIBAb4y7oxIgQIBAcgGhxrhQwy6a4y8OG8GMG/9Zwrp92yF8H3+9agEBAgQIrFNAoLfOfnfWBAgQIPALgfvPP1hqO2CpbYQIdx6/+0Xv+OslBGLTg31DHb+33gBQAL/E1egYBAgQIEDgZwGB3s8m/oQAAQIEVi5gdtK4cCLCAbtn5rkALTsfdy1UCknjvYsKAQIECBAgsKyAQG9Zb0cjQIAAgQICMUOs0sP0TG0VDOS7QFwPQr197jGC+HzXrhYRIECAwNwCAr25+9fZESBAgMCBAvFQGrPE9nmA9Tvtg47f/vjrwB7z60sI2Pm2/Vif7f5x7e6zJYaiYxAgQIAAAQL/X0CgZygQIECAAIEtgRv3XgrzBr07z+y8rYGY8NvrZy9cG4OujSrh36NXnxKOXE0iQIAAAQJzCgj05uxXZ0WAAAECRwh4X9jYWUhm5x0xaBf8SLxbMmZhVQmXtHP56zlmNysECBAgQIDAMgICvWWcHYUAAQIEkgtEWGEG0vIBwCZ0iZmRSn4BO9+Ou0Y210r2r3apzn8dayEBAgQIzCEg0JujH50FAQIECJwocPb0vZlHA5cTxuxIpYZAzKTMHipp39jg8eOXbzUGs1YSIECAAIHCAgK9wp2n6QQIECDQRiAePm2EMS4AiJmRSi2B+88/CPUGBuDZA0vvw6x1PWstAQIECNQUEOjV7DetJkCAAIGGArFELPsD8szti3BIqSdg59txIXiF+4FZt/WuaS0mQIAAgVoCAr1a/aW1BAgQINBYwPLBsaFEbLIQ7y9Uagp47+TY6ydzsBfXtkKAAAECBAj0ExDo9bNVMwECBAgUEIjNGDI/FM/etnh3oVJXwM63Ar2r7lGPXn2qO7i1nAABAgQIJBcQ6CXvIM0jQIAAgX4CsSTsqodRf9c3rIj3Fpqd1298L1VzvIPStdL3Wqnq6xpf6ip0HAIECBBYo4BAb4297pwJECBA4HuQFEvCqj4oz9Bus/PmuRAtXRfoXXZPuvXwzTwD3ZkQIECAAIFEAgK9RJ2hKQQIECCwnECESZc9gPrz/uFEzNyJmV3KPAJ2vu1/3VS9N7nW57nOnQkBAgQI5BEQ6OXpCy0hQIAAgYUE4uEyAqWqD8cztNusnYUG+8KHiX6dYXw6h7bhZLyrVCFAgAABAgTaCgj02nqqjQABAgQKCAgd2j6sHxN+/P7n1wIjRROPEbDRzPjr65hrsvdn4p2lCgECBAgQINBOQKDXzlJNBAgQIFBAwLu+xocNNx+8LjBSNPFYATvfjr/Geodzx9Qfs6IVAgQIECBAoJ2AQK+dpZoIECBAoICA2UPjw4YIVZW5Bex8O/46OyZ06/2ZeM+iQoAAAQIECLQREOi1cVQLAQIECBQQ8NL+8SGD2XkFLpRGTTQbdvz11jugO7R+m+E0urhUQ4AAAQIEzs/PBXqGAQECBAisQiCWAdoIY3zAYHbeKi63/5zko1efbJJxe/x1d2jw1vP3bYjzn8vDNwQIECBAfwZMoQAAIABJREFU4CQBgd5JfD5MgAABAlUEzp6+FywMDhbsdFnlamnbTpvQCPR2A0Kb4rS9xtRGgAABAusUEOits9+dNQECBFYlEO/zMjtvfKhgl8tVXXY/nKx3V46//nZDtZE/Xz978cP48AMBAgQIECBwuIBA73AznyBAgACBYgLx3raRD6+O/a/za3efFRs1mttSIJa8R4jjWhDsbcaAgL/lFaYuAgQIEFijgEBvjb3unAkQILAigXho3DxA+jouTLC75YouuktO1UzZcddfxntfzJpWCBAgQIAAgeMFBHrH2/kkAQIECCQXMCsoR4AQs/OiLxQCdr7NcU1mCfji3aYKAQIECBAgcJyAQO84N58iQIAAgQICMSssy4Prmtvhob3AxbJgE82aFept7ocxSy9mbioECBAgQIDA4QICvcPNfIIAAQIECgjEjDAbYYwPDqIPzM4rcMEs3EQ7346/Njeh2uiv8Y5ThQABAgQIEDhcQKB3uJlPECBAgEABgTuP35mdd3t8aGB2XoGLZVAT7Xw7/vocHeZtjv/7n18HjUKHJUCAAAECdQUEenX7TssJECBA4BKBeE+X2XnjwwLL6S4ZoP74u4B3XI6/RjeB2uivdsF2UyBAgAABAocLCPQON/MJAgQIEEguYOZPjqAgllUqBK4SsDQ+x7U6OtCL4z969emqoeLvCBAgQIAAgR0Bgd4OiB8JECBAoLaAF+7nCQgso6t9LS3Vejvf5rlmRwZ7MaNXIUCAAAECBPYXEOjtb+U3CRAgQCC5gCV8eYIBL7pPfrEka54gPs+1OzLUi3efKgQIECBAgMB+AgK9/Zz8FgECBAgUEIgNGEY+jDr2P6FEzLpSCBwiYOfbf66fNd9LPn75dsiw8bsECBAgQGC1AgK91Xa9EydAgMBcAvEQaCOMHIGA2XlzXVtLnk2MnTWHWc79X+fuH0tecY5FgAABApUFBHqVe0/bCRAgQOA/Amb35AjzIpAwO+8/w9I3BwpYNp/nOh4ZLsYSbIUAAQIECBC4WkCgd7WPvyVAgACBAgJeqp8nBIgdhhUCpwjY+TbP9Twq1Lt299kpQ8hnCRAgQIDAKgQEeqvoZidJgACBuQUiRBr14Om4P4YPj159mnuwObtFBGKHZNfWj9fW2jzcSxa51ByEAAECBAoLCPQKd56mEyBAgMD5eTz0re1BN+v5xqyamF2lEGghYObtugO9eCeqDTJaXEnqIECAAIFZBQR6s/as8yJAgMAKBCI8ihApa8C1tnbdf/5hBaPOKS4pcOfxO9f37fUGe/FuVIUAAQIECBC4WECgd7GLPyVAgACBAgJnT9972E/ysB+zaczOK3DRFGyinW/XG+jFP4rE8muFAAECBAgQ+FlAoPeziT8hQIAAgQICsRQrQqS1zYLLer4RrioEeglcP3vhWk8S3i99D7LRTq+rSr0ECBAgUF1AoFe9B7WfAAECKxWIpVhLP1g63sUzhczOW+lFuOBpW15/8bW3lnvSk7efFxxtDkWAAAECBGoICPRq9JNWEiBAgMCWQDzcreVBtsJ5mp23NTh9203AzrfrDfXiHw0UAgQIECBA4EcBgd6PHn4iQIAAgQICsQSrQtC1hjbGg7adKAtcNJM00c636w31/MPBJBex0yBAgACBZgICvWaUKiJAgACBJQRiJ9U1BGVVztEulEuMesfYFnAPWGeo5x8Ptq8C3xMgQIAAgfNzgZ5RQIAAAQJlBOI9WvFQVyXsWkM77UBZ5vKZqqF2vl1nqBf9rhAgQIAAAQJ/Cwj0jAQCBAgQKCMQS67WEJJVOUcP12UunSkbaufbdYZ6/hFhysvZSREgQIDAEQICvSPQfIQAAQIElheI97SZnZfrAT7eZ6YQGCVg59tc94Ol/iEiglyFAAECBAgQsOTWGCBAgACBIgI2wsj18G52XpELZ/JmRtC/VJDkOHnuQY9efZp8ZDs9AgQIECDwawEz9H5t5DcIECBAYLDAk7efPbTfzvMwHcFG9IlCIIOAnW9z3RuWCD5jtrZCgAABAgTWLiDQW/sIcP4ECBBILhDL6rwrK9cDuyVvyS+aFTbPzre57hFLhHrxTlWFAAECBAisWUCgt+bed+4ECBAoIOBBPd+DuuVuBS6cFTbx1sM3ZvImm8nbO9iLJdcKAQIECBBYq4BAb60977wJECBQQCBm59kII1egd+3us/PoF4VARgHv2sx1v+gd6HmXZ8arUJsIECBAYCkBgd5S0o5DgAABAgcL3Hn8zoybZDNuLHM7eBj7wIICluivK9CLwNBu2wteYA5FgAABAqkEBHqpukNjCBAgQGAjEA9pZuflejiP/jA7bzNCfc0qYOfbXPeN3rP0YtawQoAAAQIE1igg0FtjrztnAgQIFBCwdC7fQ7nZeQUuHE38LmDn23z3j57Bnvd6uvAJECBAYI0CAr019rpzJkCAQHKBJ28/W2qbbKmt2XnJLxrN+0kgQp6eIZK684SGcX9SCBAgQIDA2gQEemvrcedLgACB5ALegZXnIXk7sDA7L/mFo3kXCtj5Nuf9ZPve0ur76GuFAAECBAisSUCgt6bedq4ECBAoIBDBUasHPPW0eZiP2S/xXjKFQEUBy/fb3Acq3E/dpypeodpMgAABAscKCPSOlfM5AgQIEGguEA9jER5VeHBcUxvNfGk+1FW4oIBZv+sJ9CK8VQgQIECAwFoEBHpr6WnnSYAAgQIClsflfPD+/c+vBUaPJhK4XMA/FuS8t/T4h5F4B6tCgAABAgTWICDQW0MvO0cCBAgUELArZc4H7psPXhcYPZpI4NcC7jE57zGtQ71rd5/9ejD4DQIECBAgMIGAQG+CTnQKBAgQmEHAe65yPmxHCKIQmEXADto57zOtQ73Y4VghQIAAAQKzCwj0Zu9h50eAAIECAveff/DevNv5HrTNzitw8WjiwQKW9ue717QO9Gzkc/Bl4QMECBAgUFBAoFew0zSZAAECMwnEC+tjiVTrBzr1nf7Q7l1UM11pzmVbwIzg0+8P2e+xNvPZHvG+J0CAAIEZBQR6M/aqcyJAgEAhgbOn74V5CWfnXT97UWgUaSqBwwTsfDt/oBeBow19Drsu/DYBAgQI1BIQ6NXqL60lQIDAVAJ2nsz7UO0dVFNdak7mAoEI9WJpZvaZZtp3/H0yZmIqBAgQIEBgVgGB3qw967wIECBQQMC7rI5/UO35kB9LoCPsUAjMLmDn25z3oJb3N68OmP0qdn4ECBBYr4BAb71978wJECAwVMBuk3kfpGMZtEJgLQLuRXnvRS2CvZiFqRAgQIAAgRkFBHoz9qpzIkCAQHKBmP3lpfQ5H6Lj4dfsvOQXkOY1FzBbOOf9qEWgF3X4R4rml4wKCRAgQCCBgEAvQSdoAgECBNYmcP/5B++tSrgRhgfftV2Jzndb4OaD1+5LSe9LpwZ78Q8V8c5WhQABAgQIzCQg0JupN50LAQIECgh4EX3emTBm5xW4gDSxq0Ds7nxqeOTzOe9xEdgqBAgQIEBgJgGB3ky96VwIECBQQCCWPnngzfnAa1lagQtIE7sK+AeHnPemVv/P+P3Pr13Hj8oJECBAgMCSAgK9JbUdiwABAisXiCVPMQus1cOZeto9fFuStvKL0+n/RyBCH/eWdveWTJaxg7dCgAABAgRmERDozdKTzoMAAQIFBGyEkfchOTYFUAgQ+Fvgtz/+EupN+j69R68+GeYECBAgQGAKAYHeFN3oJAgQIJBf4Mnbzx6QEz8gW4qW/xrSwmUF7jx+556V+J517My/mI2sECBAgACBGQQEejP0onMgQIBAcoF4L5WXzeednedl8ckvIM0bJmDn27z3rWMDvfic94UOu6QcmAABAgQaCgj0GmKqigABAgQuFrARRu6H4lheqBAgcLGAf4zIff86NtiLd7oqBAgQIECgsoBAr3LvaTsBAgQKCNg1MvfDcLzXUCFA4HKBuIfFZgrHBkc+l/MeaGby5WPe3xAgQIBADQGBXo1+0koCBAiUFfAeqpwPs5uQId5tqBAgcLWAnW9z38c297NDv5qdfPW497cECBAgkFtAoJe7f7SOAAECpQXsFJn7ITiWEioECOwn4H6W+352aJgXvx8zLxUCBAgQIFBVQKBXtee0mwABAgUEYjnnMQ9ZPrPMg/OjV58KjCJNJJBH4P7zD+5pk+186z6Y5/rSEgIECBA4TECgd5iX3yZAgACBPQViKadgbplg7hjnmJkS7wZTCBA4TODWwzfubROFev/9P/92LzzsEvDbBAgQIJBEQKCXpCM0gwABAjMJRFBkZ8i8YV4EgLHzsEKAwHEC7m+572+H/iNHhLQKAQIECBCoJiDQq9Zj2kuAAIECAhEWHfpA5feXe0A2I6XARaSJqQXsfLvc/Wqp/zd8/PIt9ZjTOAIECBAgsCsg0NsV8TMBAgQInCQQD0URGC31EOY4hz9Ym5130hD3YQLfBeJe5/5z+P0nq1m881UhQIAAAQKVBAR6lXpLWwkQIFBAwPulcj/gmp1X4CLSxDICdr7Nfb87NDyMd78qBAgQIECgioBAr0pPaScBAgQKCHi4zf9wa3ZegQtJE0sJ2Pk2/31v32Av/sFDIUCAAAECVQQEelV6SjsJECBQQCBmN9x5/M5/iQ28J6rAhaSJ5QTMTJ4n1IuAViFAgAABAhUEBHoVekkbCRAgQIAAAQIE0gnE5hgxM9ksvXkCvZil5x8+0l1qGkSAAAECFwgI9C5A8UcECBAgQIAAAQIENgIR3P3+59fzR68+fZ+BHBso2PxnnhBvd0luzLhUCBAgQIBAdgGBXvYe0j4CBAgQIECAAIFFBDbBXbw+IN43GcHd9bMXwrvb84Z3u2He5ucIcBUCBAgQIJBZQKCXuXe0jQABAgQIECBAoIvA9nLZePen4G59od0mvLvoa4wHhQABAgQIZBYQ6GXuHW0jQIAAAQIECBA4SWAz6y7ecye4E9pdFN5d9mcxU1MhQIAAAQJZBQR6WXtGuwgQIECAAAECBPYW2AR3u8tlLwtr/Llw71djIN6TqBAgQIAAgawCAr2sPaNdBAgQIECAAAECFwpEeBfBnVl3QrlfhXKn/n28S1EhQIAAAQIZBQR6GXtFmwgQIECAAAECBM69505gd2ogd+rnY5bexy/fXI0ECBAgQCCdgEAvXZdoEAECBAgQIEBgXQKWywruTg3een7+5oPX67ognS0BAgQIlBAQ6JXoJo0kQIAAAQIECMwhELOdNstlIyixu6wwr2cY16ru3//8OscF6CwIECBAYBoBgd40XelECBAgQIAAAQJ5BCyXFdS1CtMy1HPt7rM8F5eWECBAgACB8/NzgZ5hQIAAAQIECBAgcLTARctlI/zIEMJog1Cx5Rh49OrT0deJDxIgQIAAgdYCAr3WouojQIAAAQIECEwqYLmsgKxlQFatrtggQyFAgAABAlkEBHpZekI7CBAgQIAAAQJJBCyXFdxVC9uWau+dx++SXKWaQYAAAQJrFxDorX0EOH8CBAgQIEBgtQKWywrulgrCZjpOzFRVCBAgQIDAaAGB3ugecHwCBAgQIECAQGeBi4I7u8sK82YK2ZY8l9idWSFAgAABAqMFBHqje8DxCRAgQIAAAQINBSyXFdQtGW6t9VhP3n5ueNWqigABAgQIHC4g0DvczCcIECBAgAABAsMFNrPuYufNeK/XjXsvz+Ol/WsNWJy3IHPJMRA7OSsECBAgQGCkgEBvpL5jEyBAgAABAgR+IbAJ7mJG0NnT99+DO8tlhVdLhleOdfF4izBdIUCAAAECowQEeqPkHZcAAQIECBAgsCNguezFwYlAiUvGMRAzYuOaVQgQIECAwAgBgd4IdcckQIAAAQIEVi2wmXVnuaygKmNQpU37j8tbD9+s+l7m5AkQIEBgnIBAb5y9IxMgQIAAAQKTC2yCO8tl9w9IhEmsqo2Bj1++TX4nc3oECBAgkFFAoJexV7SJAAECBAgQKCdguawgqloQpb1txmxsSKMQIECAAIGlBQR6S4s7HgECBAgQIFBaYDPr7v7zD993l7VBRZtQRLjEsfIYiFm4CgECBAgQWFJAoLektmMRIECAAAECZQQ2wd3uctnKoYO2C82MgT5jIDbIUAgQIECAwJICAr0ltR2LAAECBAgQSCkQ4V0EdzHrLl5yb9Zdn9BDmMR15jEQ9w+FAAECBAgsJSDQW0racQgQIECAAIHhAt5zJ1CaOVBybmPHd8zSs0HG8Nu8BhAgQGA1AgK91XS1EyVAgAABAusRsFx2bLAhWOK/1jEQM3wVAgQIECCwhIBAbwllxyBAgAABAgS6CcSMmM1y2ZsPXlsue1uYtNYwyXnnGPu///m12/1OxQQIECBAYCMg0NtI+EqAAAECBAikFrBcNkdYITTSD8bA1WMg3sGpECBAgACB3gICvd7C6idAgAABAgQOErhouey1u8/OhQhXhwh8+BgDecZAzBpWCBAgQIBATwGBXk9ddRMgQIAAAQJXClgumyeAEAbpC2Og3RiIDTIUAgQIECDQU0Cg11NX3QQIECBAgMB3Actl2wUFQheWxkCNMXD29L3/AxAgQIAAgW4CAr1utComQIAAAQLrE7BctkbQIBDST8ZA/zEQs/RiFrJCgAABAgR6CAj0eqiqkwABAgQITC5wUXAXL4KPB1hBQf+ggDFjY6DGGIidtxUCBAgQINBDQKDXQ1WdBAgQIEBgIgHLZWsEBwIe/WQM5BwDv//5daL/IzgVAgQIEMgiINDL0hPaQYAAAQIEBgtsZt09evXp/M7jd+c37r004+52zoBAcKNfjIE6YyB26VYIECBAgEBrAYFea1H1ESBAgACB5AKb4O7J28/n8dL2CO4sl60TDghy9JUxUG8MxD+UKAQIECBAoKWAQK+lproIECBAgEBygVj6FUFePFz6j4ExYAwYA8uMgbjvKgQIECBAoKWAQK+lproIECBAgAABAgQIECBAgAABAgQIdBYQ6HUGVj0BAgQIECBAgAABAgQIECBAgACBlgICvZaa6iJAgAABAgQIECBAgAABAgQIECDQWUCg1xlY9QQIECBAgAABAgQIECBAgAABAgRaCgj0WmqqiwABAgQIECBAgAABAgQIECBAgEBnAYFeZ2DVEyBAgAABAgQIECBAgAABAgQIEGgpINBrqakuAgQIECBAgAABAgQIECBAgAABAp0FBHqdgVVPgAABAgQIECBAgAABAgQIECBAoKWAQK+lproIECBAgAABAgQIECBAgAABAgQIdBYQ6HUGVj0BAgQIECBAgAABAgQIECBAgACBlgICvZaa6iJAgAABAgQIECBAgAABAgQIECDQWUCg1xlY9QQIECBAgAABAgQIECBAgAABAgRaCgj0WmqqiwABAgQIECBAgAABAgQIECBAgEBnAYFeZ2DVEyBAgAABAgQIECBAgAABAgQIEGgpINBrqakuAgQIECBAgAABAgQIECBAgAABAp0FBHqdgVVPgAABAgQIECBAgAABAgQIECBAoKWAQK+lproIECBAgAABAgQIECBAgAABAgQIdBYQ6HUGVj0BAgQIECBAgAABAgQIECBAgACBlgICvZaa6iJAgAABAgQIECBAgAABAgQIECDQWUCg1xlY9QQIECBAgAABAgQIECBAgAABAgRaCgj0WmqqiwABAgQIECBAgAABAgQIECBAgEBnAYFeZ2DVEyBAgAABAgQIECBAgAABAgQIEGgpINBrqakuAgQIECBAgAABAgQIECBAgAABAp0FBHqdgVVPgAABAgQIECBAgAABAgQIECBAoKWAQK+lproIECBAgAABAgQIECBAgAABAgQIdBYQ6HUGVj0BAgQIECBAgAABAgQIECBAgACBlgICvZaa6iJAgAABAgQIECBAgAABAgQIECDQWUCg1xlY9QQIECBAgAABAgQIECBAgAABAgRaCgj0WmqqiwABAgQIECBAgAABAgQIECBAgEBnAYFeZ2DVEyBAgAABAgQIECBAgAABAgQIEGgpINBrqakuAgQIECBAgAABAgQIECBAgAABAp0FBHqdgVVPgAABAgQIECBAgAABAgQIECBAoKWAQK+lproIECBAgAABAgQIECBAgAABAgQIdBYQ6HUGVj0BAgQIECBAgAABAgQIECBAgACBlgICvZaa6iJAgAABAgQIECBAgAABAgQIECDQWUCg1xlY9QQIECBAgAABAgQIECBAgAABAgRaCgj0WmqqiwABAgQIECBAgAABAgQIECBAgEBnAYFeZ2DVEyBAgAABAgQIECBAgAABAgQIEGgpINBrqakuAgQIECBAgAABAgQIECBAgAABAp0FBHqdgVVPgAABAgQIECBAgAABAgQIECBAoKWAQK+lproIECBAgAABAgQIECBAgAABAgQIdBYQ6HUGVj0BAgQIECBAgAABAgQIECBAgACBlgICvZaa6iJAgAABAgQIECBAgAABAgQIECDQWUCg1xlY9QQIECBAgAABAgQIECBAgAABAgRaCgj0WmqqiwABAgQIECBAgAABAgQIECBAgEBnAYFeZ2DVEyBAgAABAgQIECBAgAABAgQIEGgpINBrqakuAgQIECBAgAABAgQIECBAgAABAp0FBHqdgVVPgAABAgQIECBAgAABAgQIECBAoKWAQK+lproIECBAgAABAgQIECBAgAABAgQIdBYQ6HUGVj0BAgQIECBAgAABAgQIECBAgACBlgICvZaa6iJAgAABAgQIECBAgAABAgQIECDQWUCg1xlY9QQIECBAgAABAgQIECBAgAABAgRaCgj0WmqqiwABAgQIECBAgAABAgQIECBAgEBnAYFeZ2DVEyBAgAABAgQIECBAgAABAgQIEGgpINBrqakuAgQIECBAgAABAgQIECBAgAABAp0FBHqdgVVPgAABAgQIECBAgAABAgQIECBAoKWAQK+lproIECBAgAABAgQIECBAgAABAgQIdBYQ6HUGVj0BAgQIECBAgAABAgQIECBAgACBlgICvZaa6iJAgAABAgQIECBAgAABAgQIECDQWUCg1xlY9QQIECBAgAABAgQIECBAgAABAgRaCgj0WmqqiwABAgQIECBAgAABAgQIECBAgEBnAYFeZ2DVEyBAgAABAgQIECBAgAABAgQIEGgpINBrqakuAgQIECBAgAABAgQIECBAgAABAp0FBHqdgVVPgAABAgQIECBAgAABAgQIECBAoKWAQK+lproIECBAgAABAgQIECBAgAABAgQIdBYQ6HUGVj0BAgQIECBAgAABAgQIECBAgACBlgICvZaa6iJAgAABAgQIECBAgAABAgQIECDQWUCg1xlY9QQIECBAgAABAgQIECBAgAABAgRaCgj0WmqqiwABAgQIECBAgAABAgQIECBAgEBnAYFeZ2DVEyBAgAABAgQIECBAgAABAgQIEGgpINBrqakuAgQIECBAgAABAgQIECBAgAABAp0FBHqdgVVPgAABAgQIECBAgAABAgQIECBAoKWAQK+lproIECBAgAABAgQIECBAgAABAgQIdBYQ6HUGVj0BAgQIECBAgAABAgQIECBAgACBlgICvZaa6iJAgAABAgQIECBAgAABAgQIECDQWUCg1xlY9QQIECBAgAABAgQIECBAgAABAgRaCgj0WmqqiwABAgQIECBAgAABAgQIECBAgEBnAYFeZ2DVEyBAgAABAgQIECBAgAABAgQIEGgpINBrqakuAgQIECBAgAABAgQIECBAgAABAp0FBHqdgVVPgAABAgQIECBAgAABAgQIECBAoKWAQK+lproIECBAgAABAgQIECBAgAABAgQIdBYQ6HUGVj0BAgQIECBAgAABAgQIECBAgACBlgICvZaa6iJAgAABAgQIECBAgAABAgQIECDQWUCg1xlY9QQIECBAgAABAgQIECBAgAABAgRaCgj0WmqqiwABAgQIECBAgAABAgQIECBAgEBnAYFeZ2DVEyBAgAABAgQIECBAgAABAgQIEGgpINBrqakuAgQIECBAgAABAgQIECBAgAABAp0FBHqdgVVPgAABAgQIECBAgAABAgQIECBAoKWAQK+lproIECBAgAABAgQIECBAgAABAgQIdBYQ6HUGVj0BAgQIECBAgAABAgQIECBAgACBlgICvZaa6iJAgAABAgQIECBAgAABAgQIECDQWUCg1xlY9QQIECBAgAABAgQIECBAgAABAgRaCgj0WmqqiwABAgQIECBAgAABAgQIECBAgEBnAYFeZ2DVEyBAgAABAgQIECBAgAABAgQIEGgpINBrqakuAgQIECBAgAABAgQIECBAgAABAp0FBHqdgVVPgAABAgQIECBAgAABAgQIECBAoKWAQK+lproIECBAgAABAgQIECBAgAABAgQIdBYQ6HUGVj0BAgQIECBAgAABAgQIECBAgACBlgICvZaa6iJAgAABAgQIECBAgAABAgQIECDQWUCg1xlY9QQIECBAgAABAgQIECBAgAABAgRaCgj0WmqqiwABAgQIECBAgAABAgQIECBAgEBnAYFeZ2DVEyBAgAABAgQIECBAgAABAgQIEGgpINBrqakuAgQIECBAgAABAgQIECBAgAABAp0FBHqdgVVPgAABAgQIECBAgAABAgQIECBAoKWAQK+lproIECBAgAABAgQIECBAgAABAgQIdBYQ6HUGVj0BAgQIECBAgAABAgQIECBAgACBlgICvZaa6iJAgAABAgQIECBAgAABAgQIECDQWUCg1xlY9QQIECBAgAABAgQIECBAgAABAgRaCgj0WmqqiwABAgQIECBAgAABAgQIECBAgEBnAYFeZ2DVEyBAgAABAgQIECBAgAABAgQIEGgpINBrqakuAgQIECBAgAABAgQIECBAgAABAp0FBHqdgVVPgAABAgQIECBAgAABAgQIECBAoKWAQK+lproIECBAgAABAgQIECDg0x3gAAAHXUlEQVRAgAABAgQIdBYQ6HUGVj0BAgQIECBAgAABAgQIECBAgACBlgICvZaa6iJAgAABAgQIECBAgAABAgQIECDQWUCg1xlY9QQIECBAgAABAgQIECBAgAABAgRaCgj0WmqqiwABAgQIECBAgAABAgQIECBAgEBnAYFeZ2DVEyBAgAABAgQIECBAgAABAgQIEGgpINBrqakuAgQIECBAgAABAgQIECBAgAABAp0FBHqdgVVPgAABAgQIECBAgAABAgQIECBAoKWAQK+lproIECBAgAABAgQIECBAgAABAgQIdBYQ6HUGVj0BAgQIECBAgAABAgQIECBAgACBlgICvZaa6iJAgAABAgQIECBAgAABAgQIECDQWUCg1xlY9QQIECBAgAABAgQIECBAgAABAgRaCgj0WmqqiwABAgQIECBAgAABAgQIECBAgEBnAYFeZ2DVEyBAgAABAgQIECBAgAABAgQIEGgpINBrqakuAgQIECBAgAABAgQIECBAgAABAp0FBHqdgVVPgAABAgQIECBAgAABAgQIECBAoKWAQK+lproIECBAgAABAgQIECBAgAABAgQIdBYQ6HUGVj0BAgQIECBAgAABAgQIECBAgACBlgICvZaa6iJAgAABAgQIECBAgAABAgQIECDQWUCg1xlY9QQIECBAgAABAgQIECBAgAABAgRaCgj0WmqqiwABAgQIECBAgAABAgQIECBAgEBnAYFeZ2DVEyBAgAABAgQIECBAgAABAgQIEGgpINBrqakuAgQIECBAgAABAgQIECBAgAABAp0FBHqdgVVPgAABAgQIECBAgAABAgQIECBAoKWAQK+lproIECBAgAABAgQIECBAgAABAgQIdBYQ6HUGVj0BAgQIECBAgAABAgQIECBAgACBlgICvZaa6iJAgAABAgQIECBAgAABAgQIECDQWUCg1xlY9QQIECBAgAABAgQIECBAgAABAgRaCgj0WmqqiwABAgQIECBAgAABAgQIECBAgEBnAYFeZ2DVEyBAgAABAgQIECBAgAABAgQIEGgpINBrqakuAgQIECBAgAABAgQIECBAgAABAp0FBHqdgVVPgAABAgQIECBAgAABAgQIECBAoKWAQK+lproIECBAgAABAgQIECBAgAABAgQIdBYQ6HUGVj0BAgQIECBAgAABAgQIECBAgACBlgICvZaa6iJAgAABAgQIECBAgAABAgQIECDQWUCg1xlY9QQIECBAgAABAgQIECBAgAABAgRaCgj0WmqqiwABAgQIECBAgAABAgQIECBAgEBnAYFeZ2DVEyBAgAABAgQIEPh/7dghAQAAAIOw/q1fgrsVQExCgAABAgQIECBQChh6paYWAQIECBAgQIAAAQIECBAgQIAAgbOAoXcGlidAgAABAgQIECBAgAABAgQIECBQChh6paYWAQIECBAgQIAAAQIECBAgQIAAgbOAoXcGlidAgAABAgQIECBAgAABAgQIECBQChh6paYWAQIECBAgQIAAAQIECBAgQIAAgbOAoXcGlidAgAABAgQIECBAgAABAgQIECBQChh6paYWAQIECBAgQIAAAQIECBAgQIAAgbOAoXcGlidAgAABAgQIECBAgAABAgQIECBQChh6paYWAQIECBAgQIAAAQIECBAgQIAAgbOAoXcGlidAgAABAgQIECBAgAABAgQIECBQChh6paYWAQIECBAgQIAAAQIECBAgQIAAgbOAoXcGlidAgAABAgQIECBAgAABAgQIECBQChh6paYWAQIECBAgQIAAAQIECBAgQIAAgbOAoXcGlidAgAABAgQIECBAgAABAgQIECBQChh6paYWAQIECBAgQIAAAQIECBAgQIAAgbOAoXcGlidAgAABAgQIECBAgAABAgQIECBQChh6paYWAQIECBAgQIAAAQIECBAgQIAAgbOAoXcGlidAgAABAgQIECBAgAABAgQIECBQChh6paYWAQIECBAgQIAAAQIECBAgQIAAgbOAoXcGlidAgAABAgQIECBAgAABAgQIECBQChh6paYWAQIECBAgQIAAAQIECBAgQIAAgbOAoXcGlidAgAABAgQIECBAgAABAgQIECBQChh6paYWAQIECBAgQIAAAQIECBAgQIAAgbOAoXcGlidAgAABAgQIECBAgAABAgQIECBQChh6paYWAQIECBAgQIAAAQIECBAgQIAAgbOAoXcGlidAgAABAgQIECBAgAABAgQIECBQChh6paYWAQIECBAgQIAAAQIECBAgQIAAgbOAoXcGlidAgAABAgQIECBAgAABAgQIECBQChh6paYWAQIECBAgQIAAAQIECBAgQIAAgbOAoXcGlidAgAABAgQIECBAgAABAgQIECBQChh6paYWAQIECBAgQIAAAQIECBAgQIAAgbOAoXcGlidAgAABAgQIECBAgAABAgQIECBQChh6paYWAQIECBAgQIAAAQIECBAgQIAAgbOAoXcGlidAgAABAgQIECBAgAABAgQIECBQCgz9lryC0HQA+AAAAABJRU5ErkJggg==;" parent="1" vertex="1">
          <mxGeometry x="683.97" y="570" width="54.02" height="30" as="geometry" />
        </mxCell>
        <mxCell id="39zNZT4erERow79e_R9T-81" value="Crown Hosting" style="rounded=1;whiteSpace=wrap;html=1;verticalAlign=top;dashed=1;" parent="1" vertex="1">
          <mxGeometry x="30" y="630" width="469" height="100" as="geometry" />
        </mxCell>
        <mxCell id="jQ6PLCfD2OhDec-2yi4n-2" style="edgeStyle=orthogonalEdgeStyle;rounded=0;orthogonalLoop=1;jettySize=auto;html=1;entryX=1;entryY=0.5;entryDx=0;entryDy=0;" edge="1" parent="1" source="39zNZT4erERow79e_R9T-82" target="jQ6PLCfD2OhDec-2yi4n-1">
          <mxGeometry relative="1" as="geometry" />
        </mxCell>
        <mxCell id="39zNZT4erERow79e_R9T-82" value="&lt;font&gt;&lt;font style=&quot;font-size: 9px&quot;&gt;Hybrid Connection Manager&lt;/font&gt;&lt;br&gt;&lt;/font&gt;" style="rounded=1;whiteSpace=wrap;html=1;verticalAlign=top;" parent="1" vertex="1">
          <mxGeometry x="360" y="660" width="120" height="60" as="geometry" />
        </mxCell>
        <mxCell id="39zNZT4erERow79e_R9T-85" style="edgeStyle=orthogonalEdgeStyle;rounded=0;orthogonalLoop=1;jettySize=auto;html=1;entryX=1;entryY=0.5;entryDx=0;entryDy=0;" parent="1" target="39zNZT4erERow79e_R9T-82" edge="1">
          <mxGeometry relative="1" as="geometry">
            <mxPoint x="571" y="690" as="sourcePoint" />
          </mxGeometry>
        </mxCell>
        <mxCell id="39zNZT4erERow79e_R9T-88" value="" style="shape=image;verticalLabelPosition=bottom;labelBackgroundColor=#ffffff;verticalAlign=top;aspect=fixed;imageAspect=0;image=data:image/png,iVBORw0KGgoAAAANSUhEUgAAAMgAAADICAYAAACtWK6eAAAgAElEQVR4Ae2dCbhN1RfAXzLPM5EyZarMNEgyRINkyphUIiSS0mBKSYMxKjIlRIiUisiYWWVMiYRCJBVlfm/9v986rfuO673rDRd1/3t/373n3nP2uM5aew1777WixCUHAQeBOCEQExMjUXE+cTcdBBwExBGIQwIHgRAQcAQSAjjukYOAIxCHAw4CISDgCCQEcNwjBwFHIA4HHARCQMARSAjguEcOAo5AHA44CISAgCOQEMBxjxwEHIE4HHAQCAEBRyAhgOMeOQg4AnE44CAQAgKOQEIAxz1yEHAE4nDAQSAEBByBhACOe+Qg4AjE4YCDQAgIOAIJARz3yEHAEYjDAQeBEBBwBBICOO6Rg4AjEIcDDgIhIOAIJARw3CMHAUcgDgccBEJAwBFICOC4Rw4CjkAcDjgIhICAI5AQwHGPHAQcgTgccBAIAQFHICGA4x45CDgCcTjgIBACAo5AQgDHPXIQcATicMBBIAQEHIGEAI575CDgCMThgINACAg4AgkBHPfIQcARiMMBB4EQEHAEEgI47pGDgCMQhwMOAiEg4AgkBHDcIwcBRyAOBxwEQkDAEUgI4LhHDgKOQBwOOAiEgIAjkBDAcY8cBByBOBxwEAgBAUcgIYDjHjkIOAJxOOAgEAICjkBCAMc9chBwBOJwwEEgBAQCBBITIpN75CDw/woBJZCT0afkWPQpORl9WmKiY0TscxGgEh0dLadOnRKufFxyELiYEFACOXH6dKAPcJLomGiPSGIuHl+BSOhcqHSu56HKumcOAgmBgBLI0ZPHZc2hTbLs4Dr57fgRAS2Vk5wDQUM1YMhr11B5/c/+/vtv2bFjh9467SNcfx7/78TW7y/rfjsInAsCSiB7jh2QfLMbS9SU0jJp1+da5mTMyXOVjfM5SB2M2OcSl+iEiVMjRoyQu+++W5YvX6712/3gxv766y85ePCg3vaLZI5ggiHl/icHAkoge48dlCs/ay5R08rL+F1ztb4TMSeUkyS2chAahN25c6f89ttv8t1338nJkyfPIhrqNcKAoMhD+vTTT6Vt27by7bff6n8jOD+hGBHMnDlTvv/+e81Hee7bM73pvhwEkgkB8CkKArlibjMlkHd2faZVJpVAKMzs37hxY3n//ffls88+k2XLPG4QzFni6vt7770ngwcPliVLlpz12JDfrseOHZPevXvLli1bvD6fOBHgRGcVdjccBJIAgSACKSdJJRBD2gULFsiUKVPk3XfflTlzPpVBgwbK7NkfBbrmV75BcAho1KhRMnnyZNm6dauMGvWWtG//sMya9YGsXbtGZsyYIaNHjz5D5KItI7Z9+/ZJixYtZNu2bYE24DZxcZxABvfDQSCBEAgbgRhCzps3TzwuMES6dOksLVs2l8GDB8rHH8+WlStXarcMgYcNGybTp09Xcerzzz8X9I+nnuouL7/cX5544nGZMmWybNiwQdavX69cZdasWVoeIiMZkaxevVqqVq2q4tbmzZsDxGH5GKQRsBZ0Xw4CCYRA2AjEEPDEiRPKEdq3by/t27eT2rVrSblypSVTpgzSpk2bQLdWrFghI0eODPy3H599Nkdef32YbN3q6SB2H27Tv39/+fPPP/WWtXf8+HH9D6FVrlxZypcvLxMnTpSTJ88kIqvHXR0EEgOBsBEIjRoXmTz5XbnhhuvlqquKSO7cOWXo0MFSq1ZNKVKksCxY4FnJ4DKIVyQsUijcpBUrlskLL/SVv/8+Ir/+ekAWLVqo9/kaM2ZMQHmnLeMgMTHRMm7cWClZsoTkypVTrrzyCqlUqWKgrBkAAhW5Hw4CCYRA2AjEiAPxKE2aVNK6dSvp06eXlCxZXLp0eVSKF79KsmXLIl27dtGuIToNHDhQ4Di7du2SevXqqbL99ttj5aabbpRVq1bImDGjpEOHhzX/xo0bZMCAAQInodMmPmEtq1+/njRq1EDq179L8uTJKZdfnk/bqlixgmzfvl3LOyJJIEa4bGdAIOwEsmLFcsmf/zIljHr16sq6dV/JgAGvSNasWaRgwSukUKEr5a23PNEK5fupp55S027Xrl3V6jVu3Bih3Nixo6Vnz2elW7euMn/+Z/LIIx1l7dovtfMmVu3evVsqVKggxYoVlbx5c6sYd8UVl0vdunfIlVcWkCxZMkvdunXlyJEjWo7BuuQgkBgIhI1ATNxZsmSxlClzrRJJvnx5pUkTzL3TpFSpEnqvQIF88txzvbWPcI+HHnpIhgwZInXq1JFWre5V4ihQIL9yoJo1q0uLFs2kV68e0q/fC4Eyxg1YZ3n99dflhhuuk/vvv082blwvEye+I3feebuKdvnyXSY33HCD/PHH71rWEUhiUMPlBQJhJxBme2ZwRCv0j0qVKqg+cd9996rYU6RIIbnvvlayd+9efQNwkRQpouT66yvLXXfdKc2aNZEHH7xfGjduKHfccZtcfXVJyZ07h/zwgycqwT0gRiMSKunb9znZtGmDzJz5vtx44/WSK1cO5SBwFUS7gwf3a1uOQBQM7isREEg2gYCsxj1o99Chg0ogWK/gIIg8KOtcEXtA3ubNm6nuQf5JkybJ4sUL5dixv2XZsqUyffpU5TizZ38omzdvlOjoUzJ58iRZv35dYFiG6KyB7Nnzs4pxjz/+mDz00IOSIUM6bYu20UVKl75Gtm3bqmWtXKAi98NB4BwQSDKBUNCPcCbnnzx5Qvr27aPcgBkcokAnQWyCSEDcokULK2LTN9Y/+vTpLc8//5w8/XR3Xf9o27aNdOrUUa699mr9/+qrL8vBgwdUMWc9BUWd9MYbr6uINXXqe7J06WIlLJR6uFeJEsUkc+aM8swzTynxnT596gxCPgdc3GMHAYVAkgiEQugPpNmzZ0vPnj3kySe7yVNPPSkHDuwXlOdu3bpJ2bJlJF++PEokEAdEAsHkzJld9ZC9e3+W996brAT0wAOtZcaM6fLuuxPVegWRVa1aRebNmysvvviCTJv2nkyaNEHrwGI1Y8b7ShQjR74phQsXVGWeNZTly79QjtO58yNSqFAh+eSTT8541bZIecZN98dBIB4IJIlATKRat26d5MmTWy65JEoRecmSRTJy5AhtilVv1iMQc4w44CT8zp49q7Rr95A8++zTAnfo3LmTEs5rrw2RUaNGSo8ez6i4hD4C4Y0fP06JBeIRiZHbb68jzZs3lblzP5U2bR5QsYo60WOob+XK5fLSSy+qVezXX3+V4cOHy9ChQ2Xt2rWqu/g5XzxwcbcdBBQCySKQV199VWfpPHlyyY4d22XWrJm6D4uaX3zxRcmYMb2adeEcEAdiz2WX5VFkf/PN11WkwqLVsGF9GT36LeUea9askoEDX9XVdPQRCARCYl0ES9iWLZtlw4Z1qnxjMsZ0TP38Rr/hU716NRW3PHGvr8yfP185WlRUlFrM6J8RucMDB4FQEEg0gdiCIJsD2bF7yy236Ir1L7/s060kf/11WEBMkJRVbTgGHwiE9QqIgZVyxDHEJnQGCGHYsKHSoMHdurjIAiOiV//+/TQfegT6yVtvjVALV506t0q5cohveQMEQhuIbxDrbbfVlmPH/pKfftotPXr00PE/8cQTkipVKjUrM2jGwZWPSw4C8UEgUQRiyIRC3qtXL3nnnXcUwTgF2Lp1a9m0aZO2A3JnzZo5gLwgMrM8Zt+yZUvL8OGvKYdg1Z2NjCwOso7Rr9/zqqyjf0AUiFIdO7ZXnQSiYUWetZEPPpghc+Z8opwFC5npNnARFHMWGElHjhzWftJvVusbNGigK/Z2hsS/szg+ALn7/98QSBKB7N+/XxEO0LGPisW+L7/0Vrn3798nlStX1JVtENfEH9Y/ELHSp08r5cuXlc8/n6fWLhRrxKzevXsqYr/yykvKYT788APhN+sncBp0CnSMRYsW6CIi+sjMmdOVgNgImSNHNuUg6Dy09c03m+Tw4T91QyS7hkkQxJw5bIZ8Xf744w+950QtBYP7igcCiSIQ6jAuYr+ffvppWbx4caD6Rx99RGdxLEvoGxUqlJOvv/5S9u3bowt5LAJyH0vUww+3FQiEvVQo1927P6GcBcJAn8Gqxd4sLFXsy6IM+sgjj3SQMmXKyLPPepxi2LDX5JZbblYOhaiFeZn9XGPGjNZNkBzAYrXeEouNcD2Sfzz23F0dBAwCiSYQCtqsO3fuXLUQWWVLly6Va64pFdA7IATEq7vvvku2b/eOxrIYiGKNCXfQoAEqbrHIBxGgmyB2QQDoHBAK6yOIXli6WGlnMRBimjp1qopPcDBLiGso6YUKFdRV+5tvvlk4K0KCi7zxxhv62/QoK+euDgLxQSBZBPLmm28GTvIdOnRI7rvvPqlRo7rO4CjMKOoQA9Ys9mf98cchefPN4aqfIAYhJmHCxbw7deoUVcqxZkEQEArcgjUQCAmRi60ncJXBgwedMR7WR1D2MQubVcszDhQ4Yx0EbscZeZLjHGeA0P2JBwJJIhBDrpdeeklPAXJuo0OHDvLcc31U/gc5WZdAmWYBkIXBzJkzydKlS2T37l3KASAA1jzYyAjio4Rj+sXEC8IjisFJ4Bwo7SjlnCvBAMAKuqXp06cpAWIUgBDRecySxRmR2267TfUk8nMc+IsvvtCijosYBN01FASSTCCIWThlaNKkiWTJkkmGDBmku25BUvQP7n311VoVk1KmTCE9ejwbOMPBzlxODaJ4s88KxGeTI+IU9zD7osvY1hM2Ib7zztsqjqHQz5w5IzCmZ555Rre5Y8FCD2FzI23DSW67rY6ebnzllVfk6NGjqrNwkpHkCCQAQvcjBASSTCB2YImTgSjSItGBbebM4OziZcMhliuUcZLtoYKwQHSIirUORC3qgGMgXvGfM+lwGUy2n3wyW1fM165drXm++sqzmFHnwoULVDnn7DuJncRdu3bWNZWbb66q96pXry633nqrioBOxFKQuK8EQiBJBELdzMBGJPz/7bdfdXMhpwYhkGXLvlALVZo0qaVGjVvkt988J2/kPXHiuNxzTyP59NOPlWsgUrFthAU+RC0sWGxF4SwIJl70kAkTxqsugl4SnDp27CD16t2lt+E+TZrcI6VLXxs4Q4ILIcRBS/6t8nbPXR0E4oJAkgnELFkHDhzQNQe4BEdtq1WrJosXez6tMKXWr19f8ue/XG688Qbdvo4zhoULP1cuwdoH+64gBIgCBZ0TiFi0FiyYLx99NEs5BgSE7sGioVnD2GOFhapPnz5SufJ10rlzZxWjGCTbXHLkyCHlypXT04pm0v3555/lp59+UjgwcJccBM4FgSQTiM3CyPSYVtknhaXp+HFvKzriFByGU399+/aVyy7zVtNR2NFTOPkHN+CAE0TBNhTEJPZcodhj1YIg2D/FOXa4CKIXeg0nBmvUqClly5ZVvcK8MDJYXAuxwk+/MOvmz59fvTyyMIhLIj7maM4RybnQwz1PEoFQyAjkscceUyTG+kQ6deqkzuR+EQxXPTt3/qhWKvZgwQ1iYk7LkSN/KtKzUHjppZeoUs5aB9tJ0E9YOGQNhRV0rF3kh3iaNm0icBBzAUS7tv2eFf2xY8cqUcA5rr/+et2siEtTtr5DIOxCJjlFXcHgvkJAIMkEYiIWjqbROXCu4E9UDAfBemTpzz9/V2sVCjriFK59fvzxB0XoDh3ay8MPPyyFCxdSAmnVqqU6XUC5ZgGStH7912opY5vKsmXL5PDhw3ofYuVDmyTEKLaTDBw4QNdf0GfGjh0js2d/HNgSY3m1gPtyEIgHAkkiEOoyBMMPL3uvWBjctetH+f77rWr+ZUOjzeps7WBNAkdybF9ngyGiE0TgT4hKWLVY9+D68ssvBcSh/ft/0S3utIXZt2fPnoL5FpHK+kI7/IZw4CSTJk3UPVqsyO/atTPQlBF34Ib74SAQDwSSTCCGZL///ruaVNkkyFHXK64oILlz51Ffu7SJLoDDN1yKskMX3QOHDBAJW1Ew4ZKM06CX3Hnnbaqgc9/aYREyXbo0yqmoA6sUZ9LbtWun+6wQufz5IRJ8c7EDmA2UJAgITuNEKwWH+0oABJJMINRtiMZJPWR9/OPeccft8t57U+Tw4T90AbBdu7a6DWTx4kW6DvHxxx/rivb48W+rKPTpp58IREbauHGjOpNbtWqlKvYQAImzJ4hU27dvU8V70aJFSiDPPfecruSzVeXJJ59Q8Y0t7qThw4cJbn9M3zDjgXEbzeS+HATOAYFkEYghG5aqH374QXbv/kl1CpRwDjchKrEi/uCDreXZZ58RTMJsLsSTCYn/eIHnCqeYMGGCfPTRRxr6gLPu+Nsl4ZCaxUUSohuOHkhcOUrL6ju7feE+bEnBSwqmZLa24KPXuJAWcl8OAomAQLIIhHaowAiFsxa42UG/QLxhLxYbCCdPnih4FSGhl4D4n3zyqSrnHGSyxG8IBJGM3boQjiVENQgLDuTfXk8etqpg7UKEY7dvmjQppXHjBgG9A2OB9dHqc1cHgYRAINkEQiPM0CZuffnlWmncuJE6q/7gg5m6OZE8NGSmYRTmEiWK6+bGb77ZrIjMhkcSSjfHZEF8nFLjFXHbtu9l+fJl0rTpPdKwYQPNR33+lXxiiXAupEyZ0tKlSxfZt89zTOcIQ8HlvpIIgbAQiLXtR0a/WHPq1OnADG73QfYSJa7SxUW2s7PtnYVCDkEROoGt6RzNbd++rXIG3I+ywDhihLeT1+qhTftNP4xQg39bH93VQSAxEAgrgdAwszpIaogbTex1nxh2+rQX+3zKlHfVPIy+wEo56yJ4RXz//emqkBPj4/nn+8rrr7+mohp7rK69tlQgbgh1WqI9FihNlIJg/ERj+dzVQSCxEAg7gVAhCGtEYsThR2j7PX/+PBWLvMNOTdVEzMbDhg0byuOPPy6vvPKy7up98MEHpH//F1XUYoCmz9hg/W3Yb55ZO5bPXR0EEgsBcMgXxDPpMQoT0zCNQkAkrmwZwRsjXlFYeEQJRynftGmz3mf9wpJDeoOEu14ICFwUAmFgNIwYlFCEJ68R1YUAjGvDQcDw9IJzEAM9xAHS2wciQI+wjxEFzxNKSFa3uzoIhAMC4N1FI5BwDMDV4SBwPiHgCOR8QtfV/Z+HgCOQ//wrdAM4nxBwBHI+oevq/s9DINkEQgUJ/fwXoWVjS0zfrUxCromp1+W98BDgHV4wJZ3GsEy5FAsBs+DF3nG/wgEBm5ySW1eSCYSCmGPZfs5ZcfsQH4QzGXblN5+jR2N96LL9xEy31PNvTcQ54ZgwY6PPCUlssPzrryN6Hgbv8h5cgAG/Y+HCM+q3xEZON3kYNJJ+DSaM4P+JrZnyieYghtRsTycOOcE2ifsR/MEfLx/u33zzTbobF0+KhFEjgRBWV2I7fj7zG6LOmvWBFCxYQP162W7jc/UXAiFkQ7FiRTTMgzd+Dw4GC+CB1/tbb62p52XsUJf/XP35HF8k183Ey5EKHHZwSpV3aZNxUsadJAIxBNqxY4cULlxYcufOpcdnCZCDCyCu/t/46eW4LHE8cAvKWRHzyn4uhEvKoJJbxsbHyUj6zRkXzsSTzt3faPU1TCAfomr54WEwyZkzm8ZJoW7gcfnlBfT8C/Vb28kdw/9jeYMdG11Lly4jzZs3TzaeJYlAoEjSzp07pVSpUpI1Wybp9GhH2bLlG1m5coWsWbNaP6tXr9LrihXLZezY0VKt2k0aDiF9+nTSu3dvrcN24NKRUMhnz/1XQwK7x3/7bVebPfgf13PLZ1fyGKDx6ggCM9sTvdfK6494v2L0jD6TAZ7uDQaxMFmtMJo2bapwHJlAp3nz5lFi+vbbLVqrwdf6xJV79vHftz5xz35zZQx2Tx/8AxuDR3xXf938Jl9cyZ5ZPXHlCb5n/bEy1lZc+eyZtUMeu0d5q8PK8gxcIg0dOkQP7VWuXEkOHz6i9wwe5CP567LfdvU/516SRSwjkPQZUqsfXW05xNeePT8pssFxICw7c25bS4xY4qoCgPDc4p0zYAMU9w1gVhf/SQzQny9YjOE596wOysQSyFTlekTESqiIhfiIny8iad11l+cONa7x2D3ilhDwJ1u2zOrxxd8+fUJcCH65p6NP630bF1cbN1cbM1d/4j91UaeN18pxnw+w8MPIyvDMkuXlGR9r35/H8trV6iYvZUh2z/5zz+rjGf20MaKv8dsSv+kn+SjDx3w/c46IoxNVq96kkcQsr+Wzdv1lqZd8Hlxi66RMognEOmoEkiFjWvWxSyP+QZGPTnA9etSL6MT58UyZMkq+fPlk4cKFOl6rzwZPp4JT8D2r258PgPkTcqgBgYH7EzuEjx7F+2Psi/cDkLxwEDhBUgnkzjvvCCCiwcH6zcvkHv0gGhbhG9DTrJ8886fjx09of0+eOHOMlt+f13vJsYhoz4LhHPzfDz9gYfDzl/e/B4Xh37F+z8gXXGfwPZ6jG/jh7i/Db38bwf8pG7y7OzgPrmvTpk0tN91001l1kZePJcZMnf6xW59BQ/oSBgJJIy/066ttxvXCeGAWG1yKIrbkzZtX/ebyDF0Gt0DdunVT5w/WQa3QB3R0grZtH5Lx48fbI3XcgOuf0aNH6T0Q7/XXh0vdunfqDL53r3f0lofr1n2tJxZxdI1DbcIlECi0TZsH5ZNPPg7UacAKB4H4X7Y1wD3gxGRCwsUqHAc3rH/+6cVO5D4Ov4k736xZM6ldu5ZUu+VmubV2LT3S/NprQ9WtK/mIMNyrV0/p1OkR4ZgziTH427YzNBxN7tKls3Tv3l29U27YsEHLvfhiP+ZvParcp09vuf3226R69VukTp06CjPjoNT9+efzpdV9LaVGzepSq1YNufvueirWYJkj2aRE+xgtSJs2bZSnn35Kvd7ccks1qV27tnD254svPKeA5DHcAQYclnv00U6CP2US3v8bNmqgTgVps0GD+uprjYNyJIhm0KDB6rijXr266g8Nd7hPPvmkPPFENxk3bpzmsy/eN++9Tp3aUq3azXoFziNGvBnwsmOTVHgI5IVYAvEA47E9fkdHxwQ4CA4WUGALFiwYcMnz5ZdrNGQaSitnz0nWOf9vHGTjEKJ582Y2TnUTxL2mTRurp8Z69e5U9poqVQrJkye36klk5vAVokyqVJeqk+1MmdMJn7TpUipyetFxn9F6T/wzS0+dmnwOYkhqV+s4yGCE2KrVvdpnCMRcIK1Zs0YqVCivRgLiq2TMmE4yZ04niLNp06XS/HCen3/erVXiGR84IHcz85P8M6UhEo77yFehQgXN88EHH/zzv5x62CdcBc853gz3RFThA3c7cGCf9OzxjKRMeYmkTpNCsmTNIBkyplH4kRd/ZuYOlvdnRDl48ADVsXAvy8wOrHnXqVNfqkYMHJCTDB6//LJXY8zwrpYuXazBlOhTuvSpJHOW9JI+fWptk34RaInExFiyZEntOxEGCOKE37XUqVPqvdq1b9V8GIfuv/9+HRv1MzHRH670h3HccMN18t13sfpgWAiEuB4k/0vRG74v1kLwuwvwcSlqM8aGDeuEADhYfVBqSXERCLEMGVTbtm0CtQ4fPlxSpUqp3kyILwIgCaKD10ZmVWYWPKUQ4QqLEp7kCeNGjBFm03ffnaTcBPepPAcxLYWDgzBGYOIhjCfn89uQAQ6H424sfbffXlubxmFFxYoVVRTFkySRt774Yol8/fVXMm/eZ+rxHgTgpeK/mIR3fMYAZ7YoWgZDI05CVFBfxowZ1DUr5WbMmCE5cmRXczx1MuviQolJizaZlJhY+MBx4f74Rv7oow+1P5wKbd68qb473ivvg2RiEHEj6Sd969ChncybN0eDuuIdk3eBZS9DhgwyaJCF1YuRAwd+0aUBgiDBOUHgzp0flblz5qgU8PHHswUuQfxLxkKMGhIhAQcNGihNmjRWDkK8TJyeezFnPFdTGIfSpk2jnkA56k0QWYLM4iYKv9E4NKQ9wnOQmNzDQCBppW9fzyqFroHoYB8o++DBXwXHcQ0a3K3EATLgIsgSBMLLAYirVsVPII891llSpIjSYDpWFr9YzCSYYkFw3P743YySjxAMKVNeqsqzrcFYea6bNm2QokUL68v3s+LkcpC77qrrb+as3xBCy5YtFbnQy954w0Ou0aNHS5o0vMQrZM0aDx7BhZkAGHedOsyMMer9BeQH2bp29fwkG4HYlRgswL5o0SJiHvFxwQTcgH25cmXUfWxwW4yD5xAHk1BwYlH4uusqaX+IU2mJSQgkpn4U57gSYle2bFl1ucD6RERk1ozgANmzZ1MLaHBZHBMSCBbiw6ezP+HfgFAccD3/+wYnb721lqRLRxkvqJO/HL9xIAKny5o1i+Bxh5QsAilevLgOBAQlaCezjP/DPZRcZiAAxX9zN+rnIMkhEFgqYRXwDG+Jupk5EVmIU0g/Z82apY9Z/YdwmeUMedBJYP9vvfWWVZFkJR0fXSAT4yYGCkGB7GMxUdq0eUCfM4NmyZJFvVLigI/02muvyVVXXSWtWrVS7mOKKS+Y3yQUUbgp/WY8JOKiMDtilv79d68uYGBcHQ6MuEbblhCxgB39wJEGiXYoE8sFBivhFS9+lToGJA8ckDzkJXXq1FGREn8CxrG6dXtc+0jULxKzMeV4N8CffIiDSBXAHkeDpL17f1YOkjlzZmnatOk/ZWMNPtavbt0ek5SpEK+baB7qJA0bNvQfJb2Kiny0S1+RYKpVq6qTtF8KAQeAK/l++eUXIawfrqO++eYbrS9ZBFKsWDHBLy/Ij1zJrBb8Qa5j5rr88vzqwPrQIe/lmayfXA7iKf25NWIVIzLxBaDwMvDTi2xsBKmj/ueLl4QoRdRdWGs4CAT2DzyYAeF49mFm4nPJJVF6ZfYDMevWrSvmQM9eFvFMTJfw95ffeLEkRgr95YVbvvXr12tsRmBN+DuSwYJ1HGZlysye/VGgSiYNLGjoHnjaJxmCG7xGjhwprF1VqXKDbqFhVrY8NsFA+BAsBEIC3oStAFdHZvMAABsZSURBVPGJLxkqEf4bwm3YsL5mQweBm9EmkwXJxsFv69czz3SXqEuipHHjxmfkIf4l7WLFsgVp04fuv/8+JRDENyaMjRvXB6IEaCVBX+BQsggExQgERVlasmSRcgfcf/IhxBpXZH6cSOMBHjkVwOFs2oCccAJ5NE4RC0CyfQPWTGImIFG/AZP/zBJ4fZ82bZoq923atJHrrqusSIP+AycCGSwlVQeBg4B0cFVEEv8HV6zMtkTvBamQgQ0OIAEvxJCOfuCXmNgmEC5WPrhhnjx5tH4IEDHDzwnZ5gIREkeFZIg1Z86nkjlzBoU9zvisTQiE98d2Ibzzk+yZwW7EiBEqllSpcr3uKYuPQDwk9xz7MfsiIl52WW4lYtaGWBeK/dSVevXqqfh7/fXX6USBmEZIDHQl3if6Ba5pSdYX/288aV6SIkoaNfL0BRurEQjrIEYgVn7Lls1KfOAhE3n+/Pnkxhtv1CjNxJXBcaHVY2WSRSAs+GXIkEZeeaW/DiTUF06mPZEis7BAZimhBAKRXXpplOAGyBIzDGIFsxsbAkn2gkE2EjPskCGD1YzKDMqLTJs2rYo211xzjcqjiCXM6G+9lXwCiV0oDK2DaOf++bK+2kxH1F8URYiAmTl1aixXGTRiVosWzVUxNg6CmGNjhqi5D3Fi/rX08MPt1IBBJGES6yokIxAUWrOIWV2GIBBnunQeB0HfIFkeI2aI3U8ga9asVeRDdIYAmdGRMOzDO+M39xGlsmbNKgUKFFDx6o8/Dim3Qy87F4GkuBQOcm4Cob8G2z179giOzwkXiFEDQoHL0x8mSvQ64E9KNgdRAsmY5oyFQoDm/xigGXjFiuWUixBX3dKZBLJSbxvg+WO/YYmIJ34Cwd0ogULRe06c8ORze3keUE6rWY88iB7sA8O5Nu6FmOX+/vsviY4+pbMcL2vUKG89hXaTykGMQLyFwtgVf4Dt/xiMDA5GJETTQi/ghWFyRMFdsOBzYc0C90gkLE2YML1xx+4KBoEpQ1lbG0Kuvvbaa1QPJIQdyXSHhBNIWp2EzkUgJu5s3bpVChUqqKImlqRFixacIV34pQz8LWNpJALYiRMYdQ78w0FiCcRwgL4bPsFBPAKJW8TycxDDCeMO1AN3ITIB+IAFC27MBA73z5EjW2BtLPkcJOO5Fwq97eLRaskCEQ2QdHT9+tBWLEOce+9toUjhJxCPg5xNIAbQuXPnKqcgFALm0rgSnAeLx/kgEL+4F1fbds9eIItkhNCGCzRq1EBFDsvjv0I09Bejh710W50mghczIpyGhEjJBEFcFhLvwpAs3ATSqJHXxu+//yEVK1ZQQgUBE5OI54IOkjFj8gjEr4MYfK0fNn77zxXiJA5m8eLFVNxmAZR0QQjEEJbVXtgrK7TG5lGU0E+gXjY2knjpDMpePkomYgCIY/I1+fwEcvx4LAex9oYNG6qLP1dfXUr1Hspg7aBeswghWmD/x5jgF7GSa+aFgwS/GB1cHF82CWByLly4oIoltiqOlYqFPvpsFhz0GLgEBHLsmDdugxWx4BFXChS4XHbu3KEr9SlSXBLYgQByGIKEm0DuuadxQAdErIPLNW/uWZmAN/2nn+ysMP1gwIBXlWMQ44VkSnpSCUSlirQp5aaqnhXL4LJ+/de6as4uAbZJkeiTwdVwhp0NTD41atTQ7T0XlECef/55lf85R2LWF5RDEBRZ9dVXX9GOByNWz549JHv2LMr6WreOtbVDINi8PVHDM/NR1gY7ZMhARfyrrioqO3d6oRaC637iicdVFEAEYw3CEttiIJrk7MUKbsvqDr4agWzevDFAIGPGeH0xZLYyBCJFtmdCYdyUpR0/4t9zTxMlIMJssz7CrMi6CwnYGHzOB4HYmD/80LOQYeWMj4tghGDiY4GXfXokzLzJ4yDDdccBeqn5gqZerHRMxCwsE74vvoQYDoGwXQnYJppADABQIUouy/8vvuitpAe/TOuEvZCBAweqUob1C2XJEgopBAIiE7750KFDat//+uuv5ZFHHpGcOXPoi0Y29HMQVm5RrlkPgEWS6J+19/HHH6lMiYm5RYuWsmHDRjXrsT5CpCoW6iACVvIhEPaE2YzDlvSsWTNJxYrlVS62uq3PcV9j1FxJnSywGazizht71/IdOnRQZ9NcubJL2TJlZNq06bqWw2xL+Or+/fvL5ZezqJpTzeve4t4u7TOwt76zvsECHOZr4EqQVBLPPfh4mzc//PBDHTdKfXxKOnoZFiVk9Ph0EMQ6JqomTTxuYeO5997mimwsxBIOnMVAJsaDBw+qgQAxCCWZbTboqKT9+/fqWk6WLJkDofzsffLccKxHj6clVeooadLkHi1nYyd6WZas6aVEyeIKr8mTJ+sOBDIRJ5P2WGdCUQemwJbPt99+Jz17Pqu4AIEQBJaUaAKx2Y5NhldeeaVSP9s6SNZ5/eP7ss4D7FSpPIsMsrElfPGCxJkyZ5BMmdJL8eJFNdZH9uzZtX4iVEH1zDQmW1N2wIABeg9ToYkavBzbEMw9rByII9SdN28uRUAWDrFkpUiRQvr1e0G8/VDp1YQKayVNmTJFjQLEMtm/P/R5EEMIymGKpZ81a9YMKOX+51p5HF+GBO+8M14j/ILYmbNkkFJXF1erTq5cubTeO++8UzktCATMIBiLumVw/vXXg4pkLNBiCVu27AttkfdDX+w9sZKeMmVKXck2A4DpTZaHiMGMh71hHBsm2Xisz6yIk4c1HZLdZ5MjOxkyZEive7jy588rZcpeq/FhuIduVKZMGd36owVFdMMkHA+DDDHvSdYX/+/HH+96Rps2dmLUsPLP9iLeMf2qVaum1rNnz89Sq1YttQiCh1ixSpe5Rq4tXUpxgx0XWM/AhxMnPJ/QSSYQ9hGx2os+YTtsDTDaG9+X3cdBNQr6HXfcIS+//LLmMIvKihUrpUnTRlKpcjkpWrSgLl7VqFFT99iQkZeJac7KcQ8iq1mzlnTu3CWg0/hfHr+PHPlLnuvbR6rdUkWuuaaEFC58pZQrV05XaVHiSSBY+fLldROlGRAWLlwktWuz27eNHDrkxVG0urVQPF/EOGGvGTFOmExMBIon+xm3DRHgAOwMKF+htBQufIWUKFlMqlevoes3yM3oUY0aNZYiRYroJr3Vq1drPZgyDVH69n1OdQBWqu1lW2P2Pgixzbtgi0jwJGB9QQwDqTp16hQQiw0ONlkSFax69erSq1cvJR6eWz8wHowaNVLqN6grZctdo+Nh/xn6E2HzbMe16VdID8AcvEKcJFl//b9ZswIfaNPuW595r2xK5FQhocr7939J8/AFPrD3i4kGPChYqIAUKVpQKl9XQZo1axo43UlexpFoAqEQHwOOtcy9+BLP/IMkHwDkXvAztk3zstjDZWUM0ax+++9vM7g/5DWAee2d0C3kmD1te4b1gyv3eGYLb3HVR75Qif5Yn+w314TWBUwMsWiHRT2iZbGybvepD7hQJ4fOWLXmt8GS38RmJBoX4eiGDx+qXTZY8oc8VsbGw//gFHyP/zY+yxucx8bLfSY//3N2NXB8mcXAkydjvfbznqxeu/rrD3XP2uPKGP3jtDq40g9/X/gNXOkPIh8mf0vUYXkTTSBUQmf8HbP/1kDwlef+ctYBOmFluWf5/OUNeJbPX8b/O7gs/3lOvX5Csbp5ZnWTJzjx3F9/8PO4/lsfrW3rk13jKuO/Z+XpF20HJ39//XVaXy2aLzuVObnJavb333+n1fjrs3biulqbcT2ze5aHq92zq8HM+sTV+u0vx4r86dOxk6SVj6tOnvkT//3tBJelPXun9syulDOpxV+nteuHPWWSRCDBFYfzvw2EaziTv9646rbn4WwzuXVZn+LqL3Vz3xDR1kFiYk7rgmjq1KmlfXtvQdaQJbn9SW55/3jC/HqT1LUz+3M2vvH8X0cgSRrp/2kh/wt+6imi/LbRbf1Y+3AGYedb/i0E8l97TY5A/mtvLI7+wkFIKLVYbDB7Y8WxnclxizdxVORunQUBRyBngeS/d8O4w4IFC9Q6w+Ipu5ZdSj4EzguB+Nl+8rvoajgXBEwHCc5nnCX4vvufcAiEnUCo0KULCwEIAbgjSmGdwRzMb5eSD4HzQCA4bz6sWzOwLdOAiQDJ766rwUHgwkIgbARCRSQ8m3PklD1C7LdiuwbJFrn0j/tyEPiPQCBsBGJcgmO3HDjBisJeG3O/6eTh/whGuG6eAYGwEAiVGIdgLz07WdlqjBcMzvzaKbaEEgn1mVzNbz7nSpbH8tv1XOXsueWnXWvbnp3ramW5kuz/ucq55/9+CPAuk71QaNyD7eslSxbXQ03Tp0/Vbd+cbGNbMsnyxQcWEBNC42r5zYZPR/lt//11GEJSvz2nDn5zj+fByZ6f2Vasu8742vLXQ73Ub33295F6rV3LF19f/HXaGLi6dPEhwLtLNoGATCTv3EB6PbfBOW882nFGAC8mRGoiGdLoH9+XIarvVoJ/JgSZ/PUH98H6bw0GPw/+Tz5/fVYu+BofQcRVH2Xjux9cr/t/4SDAO0k2gXgOimOEI6ac1rKjkziLxv8Q5xo4fERitqVR/8fCm+ECEifKnBjEwTTOhXEmzJkOfGkNHjxIHRiww5Vksy2/cRczadIEeeyxLupMGfeTTz/dXXBTaQlCMMTGeR0OkpcuXaKP2dzXu3cvdUJG2xwX5Qx7bFuxu02NoDg/zuEc2mTnLA6VOVKM25kff9xhzapjAHwD4xaTI7CkYGIwImebOyfrcOIWnCdQoftxwSDAO0gWgdiLXbFimbpMyZ07t57UYwSco8apMqezOIBCslmVhjmYY0jw8sv9tTwcB79O6DG4u2HrBOcicITGiT+8ffzwwzatyzzp4UcWB2q0Q37Kpk2bSg/cUIYjlOY13XZx4rqTvHA5/MRCxPzntBn10DYOozmzsGeP50kE4rLxrlq1Qjkj/pUox4EsfiNSUh4frxMmeId9OBWJI23ymdsdq8dgwpWTdhzvJR/nJLxnZ+/o1Qfu64JAIGwEgtdwkAp38sywnEcg4SITRwtwks2bPV+nhhw2Ew8c+KoiJhvs8ElEHEMcJzPLt2zZXJ/hSIxjmyCef3beuHGj3gNBMQyMHTtKFi9eoE7r2rV7SC67LK8ibMuWLZQYrU2eQRR33HGbnrjjWO348WPVPc28eXP1WC8+kiAYnLyRjLg49GVOjjFE4DITB3CLFy/Ug0GVKpXXs/M4hZ492+NgcEUIiLiEdg7CJgfrE0eAOQHIuWkcDJCM4+kf93XBIZAsArGX9+uv+/V4J8j0wgsv6CAMmbZt+14KFy6kxxgRM0icbjMi4YwyxMNMj+NptmoHJ0QfnAlfcUV+JZIdO7ZrFjgUYh0zNr6oOIQTnHDjgtMAiIETiZbwzQpB0i6eOOwchT3nyvlliBs/UyZqcZ8jpBzLxNcUIeeCE86zOQKMMzQ2EJJw90lbEAA+okgGA7s++iieIy+RZs28c90mempm93VRIJBkAqGgzXzI/rFcYpMOBAKxI5RNmzbTNZEbb7xODh9Gf4g1C3M8ld2nLCya61CzCnElURdeUPB3y8xtIhYcBnehEBjuckiIXZyLgINZ0B4cznH2mSOW1mfjIHCA7ds9gvNOEsYepsG1P2s6tAmhk3A4R3QsHE7jbp9E/0ByPGgcO+adksNgwXkMzjzjGIDnEBrEbOKTjZM6cBpw001V1IOhHV+2vmoj7uuiQCDJBOKXx1GIefHNmnneJYJHgucMxA1mT/z1knj51MF5aPQOE2OCkcKIBOUdDsVZZiMQE+toP1RC9IED4ajBiAFuhUiIczYSCEx/AIjN3MQqgcsg8uCOh9Sv34uSPn16KV26tB7P5R5lLNF/6uIY7FdffaUfttyQUL7Tp0+joQIsUI5xWs5944KTM9KcySZRj0sXFwJJIhAK2csDCcy7O0iO8wP8IUEUfHAnyWxarNhVKuagMFvi/HfZsmUlfYa08uqrnvjlJxDaMQQiZBZikqeDeF7I0R+4hxkZjoA7ILwuYv3ig0NtRKl7mjRSVy7M/HAAEgSCQm1xIvwEYmNbtWqlGgWIlW4RaNu3f1gd38GN/GVsTBAZH38yAqIO3AvB9Uw3MUMD7vZRzjt37qxFGbeV89flfl9YCPAOkmTFspkd30KIIQUK5NcryvKZn9Q687P1BKUXBN++3RNXmM2Z1XFtg9cLkiEnv+mctUNkJWR4FPXduz2veIQgy5M3h+TM5bkGAsFwh4/Hb//n0pRR6t8qKuqSwN4wCAdrmRGIH6ntt3EQRDgLydWqVXNJlTpFIG6Fv7/WZ8pD6IhsfBiD5WvdurW62cFDiOUnohIiJtzKPEtS3hGIguiifiWJQOzFIUYQ6w4Pf3hHx6SLFSr4w31834JozPhYrUjEubj66qslY6a0gXvBHMT+w5WMg9haAhyEsoQbwPJFoEfWJYhH4f+8/fY4GTt2jIY2wKkyCcI4N4HAQbJpv42DtL7/XkmT9tKAb2EjJq30H6IOvscz08fgqohSOP0295eYmREzcc+D3gR8jaCsXne9OBBIEoHYy5s5c6Z6zmDms4AtrKCjhMd+PHGD6D4QCUgOIoBEppgSmJLwaiSrm990zjgIlizWN9BBzIqFf1q8eyNeJTZhoUoMgWzZ4kUb6vJYJ0mXPrX6Y8IaRx/5WDLiQO+YMGGC4C+KiYDEMyaVKlWqqNHCdjqzf43QASNGvKH5CCzkr9PqdtcLDwHeQ6JFLAvtS/BGL/JQlUCUHkMQ/1AM6YkhAYHgTMAcguH6E+WbNQy2ypPgGpTxrFBejHWCqwRbsd5++231kIfbTDyC40LGnBFDWObnaPXqlWrKJVy0OSlLKAeB+OF8Fq8Ot6h4NCT2Hms1JLgDgGTsTAQkuAK7CnLmzCmsm5BM38DxHfoP0Y4QryB6xM/t2z3uFhcMtQL3dcEhkGgCsZf33XffqD7BrE5cbVJ8iqU5EGbFG10FBOvYsaOWmTp1quoWIL9Fyg2GAvH9UGwpi69Zs2L9+ONOKVGihOo+vXr1CC4W+E9MPvSTatXw3+vF0kgoBzECMQ5C3G7EI/QuL5xALPewBvEyT4g0/NlajD0I3sRFFkxxB4reQdBIYGhxA82CZnW568WFQIBACn7WQqKmV5B3dnmRdU7EnFBBKbh7xg369++nSIsJ1FzLmDgUXIb/NCSCWfc2Nfni9NqcV7Mwhj9eCAB3nVjGvv9+m4ZpRvQCgYivR1gArECmg1AvLiThQMzo3bp11dV6gmHiMQ+HaayB4OiZaKnz588PdA2xBjNvhw5ehFQjfDLYb5R09Cva3br120BZfATTJwwPhDwjsA1mW9rFLyyr/5TD4bZxSps8DH5sdYHo2f0MVyWMM8miIAUacz8uKgSUQHb9vU/yzK4rUe8Vl9E/eFsjjkefFImJNVeS0V4u7iMrVaqkjp9xEU/iuUcEcY/HiAePG4ThTZMmjQwZMkQz41C4fn1CRGeUNGlTSs5c2eTKgvkle45sOvPj85VYGRAHH7NiWXuEPUbxJe4I50/YNlKpUkWNj0E7rGjjVZ5ks/gDD3hc5YEHvED0RhTksXHiUBsREg+FLPaRLB9mWTghocngBoQYwFBBoB7use7DWEm0aeWsbuI2wp1YG2IRFHerJBNf9Y/7uugQAMei9h39Qx7+aqDcuPBR+Xyf5y7mRPTpswjEkAvEwQN61apVVRFlFIYA8Y3Inu/Y8aN6AKcsiA3hgDRs1EOhbdjwbilb9lopVaqYEEKrT58+8uefh5WbYOZl5RtftcFtvv/++xoUEjMwMzsiG/HAcUTtj8lu/WBLDIty/fr1O6suy4PugHNkvLX/+KMX4NIQnEKIhwSiLFKksHIM2iXqLyEA5s3zuBV18TFitiu7jzFTYxJnjCSbRPSP+/pXQEAJJMbvAANlE25AbGmfdYbekpmX7UeShI6CssHl4kMIXOYjfplplDYmTpygyEQciaNH/9ZmqTO4XixcbPRbt+6rMzY10jZ5SXa13/7/muGfr/juAwObLJjx0YnYqs/HCIkqGJ+fOLhnoQW2bdsaUM7Z7UuyOvWP+/pXQAAciIqRUxIdEy2nYthuAdKBRZ6h1t9LP8Lw4u3jzxPqN+WtjCEDwRtZnR46FHEr1qxLPWxGNGLgrAWRXjt29HzNUo8l6vUTgN3nSj7aIk9w/3nuv+cv5/8dXNbKWb3+vPymTZsM/GXJb5YsdDgsWcFbXYLrcv8vLgR4f1EXugs0atxj3Lhxqmcgntg+reD+jB79lppB0SVYeyEZAgbnhcCNCP1EFJwvnP/97TG2uJK/L3v37lGdBePCxInemZH4xhNXXe7ehYPARSEQhgfC0DgzKivtGTKkVWtRjx7PamiuxYsXy0cfzRJio6MEs9JMQBQre+FAlLyWjGCI44GFjohYRJ5i0yILp7ZuYvmS15orHW4IXDQCoWGbNX/6abew6Ii1iPMQhASz8Gj8xzLFsVYL+mnlwg2M81GfcQ7C1WHdYj2Grfds3ly+3AuL9l8az/mA0b+5zotGIAYUQyD+E9Sdnb/du3cXDg9h3Zk0aVLgJCJ5/Pmtjn/z1TgDK/xE0MV6xhht273pYv/mMfw/9+2iEwjAB0nONYvy3JAtUl5YJI4pUt6NjeNfQSBwBZCFjxGL/UaZjwREAtCMhQ+r6owz0gjekCqSrv8KAokkgLqxRBYEHIFE1vt0owkzBByBhBmgrrrIgoAjkMh6n240YYaAI5AwA9RVF1kQcAQSWe/TjSbMEHAEEmaAuuoiCwKOQCLrfbrRhBkCjkDCDFBXXWRBwBFIZL1PN5owQ8ARSJgB6qqLLAg4Aoms9+lGE2YIOAIJM0BddZEFAUcgkfU+3WjCDAFHIGEGqKsusiDgCCSy3qcbTZgh4AgkzAB11UUWBByBRNb7dKMJMwQcgYQZoK66yIKAI5DIep9uNGGGgCOQMAPUVRdZEHAEElnv040mzBBwBBJmgLrqIgsCjkAi63260YQZAo5AwgxQV11kQcARSGS9TzeaMEPAEUiYAeqqiywIOAKJrPfpRhNmCDgCCTNAXXWRBQFHIJH1Pt1owgwBRyBhBqirLrIg4Agkst6nG02YIeAIJMwAddVFFgQcgUTW+3SjCTMEHIGEGaCuusiCgCOQyHqfbjRhhoAjkDAD1FUXWRBwBBJZ79ONJswQcAQSZoC66iILAo5AIut9utGEGQKOQMIMUFdd5EEgKvKG5EbkIJB8CMA9oqOjJYof7uNg4HDgTByAOE6fPi3/A6h1i0iY96azAAAAAElFTkSuQmCC;" parent="1" vertex="1">
          <mxGeometry x="80" y="674.76" width="50" height="50" as="geometry" />
        </mxCell>
        <mxCell id="39zNZT4erERow79e_R9T-86" value="&lt;font style=&quot;font-size: 12px&quot;&gt;RPA Services&lt;/font&gt;" style="rounded=1;whiteSpace=wrap;html=1;verticalAlign=top;fillColor=none;" parent="1" vertex="1">
          <mxGeometry x="45" y="660" width="120" height="60" as="geometry" />
        </mxCell>
        <mxCell id="qdc9lhtNKEkPQ6KhUSid-1" value="&lt;font style=&quot;font-size: 12px&quot;&gt;Azure Relay&lt;/font&gt;" style="rounded=1;whiteSpace=wrap;html=1;verticalAlign=top;" parent="1" vertex="1">
          <mxGeometry x="570" y="660" width="120" height="60" as="geometry" />
        </mxCell>
        <mxCell id="qdc9lhtNKEkPQ6KhUSid-2" value="" style="aspect=fixed;html=1;points=[];align=center;image;fontSize=12;image=img/lib/mscae/Service_Bus_Relay.svg;" parent="1" vertex="1">
          <mxGeometry x="615" y="684.76" width="30" height="30" as="geometry" />
        </mxCell>
        <mxCell id="qdc9lhtNKEkPQ6KhUSid-4" value="" style="shape=image;verticalLabelPosition=bottom;labelBackgroundColor=#ffffff;verticalAlign=top;aspect=fixed;imageAspect=0;image=data:image/png,iVBORw0KGgoAAAANSUhEUgAAAbUAAAGiCAYAAABgeVj+AAAgAElEQVR4Ae2d729dx3nnzwLF7su+a9CsEl1SglMgaXYBY7tYoAFUNGuRVB3sLkCIZOLCSF2Slw5rUaR+kBStQ9lpku4iARzbkpJ0s9gXuwALpJVJyZblgoCjX3a127qFbEl22hcF9t+YxXPuPdS9V/dennOemTnPM/M9AHEv7z1zzsxnZs73PjPPPJMYHCAAAiAAAiAQCIEkkHKgGCAAAiAAAiBgIGpoBCAAAiAAAsEQgKgFU5UoCAiAAAiAAEQNbQAEQAAEQCAYAhC1YKoSBQEBEAABEICooQ2AAAiAAAgEQwCiFkxVoiAgAAIgAAIQNbQBEAABEACBYAhA1IKpShQEBEAABEAAooY2AAKOCMwfSs1sY9XMjayb+dE1Mz+y1npttN/T/9nfqpkfyf/yz9bNfPu8uca6mT+4bhZGz5rFw6uOcovLgkAYBCBqYdQjSlEjge984bRpkiiRcOXitSdYuUjZe22OrJm5Bolg65rNxqppfvFsjQRwaxCQQwCiJqcukBMFBCaTSTM3um6aubXlQcRy8Sr2SlbhaiayzzdSBUSRRRCwSwCiZpcnrhYggYVD691C5tAKKyZcJaw+GrocWTezh88FWDMoEgg8SQCi9iQTfAIC2XAeDfPRn3WhqeuaZFU21szCQQgcmni4BCBq4dYtSlaSwOzoGZM5ZdQlOl7vu2rmG6vmhZG1kpRwOgjIJgBRk10/yJ0HAuTkEZRFVlIcaX5wrnHWpAnm4Dw0N9zCMQGImmPAuLxMAvQAz1ztSwpAMEORA8o911gzs5+HuMlstchVEQIQtSKUcE4wBJYOLGWOEzFbZkWEuTm6bv7oAMQtmIYfUUEgahFVdsxFnX161jQ7F0EPsFSKPPBjOmdudM2cwNKAmLuOurJD1NRVGTJchgANM7aidQTkxViDIJNlu3h4sQx6nAsCtRCAqNWCHTf1QaB56Gw47vg1CFk/i3QO3pI+mi7uwSAAUWPAQ1KZBCjmYh43sd+DGZ/xrVaKaYkDBCQSgKhJrBXkqTIBir1I1gSEyz0DWgpBc5U4QEASAYiapNpAXioTmD/QEQkfouZR1Fez3QMqVxwSgoBlAhA1y0BxOf8EKEo9rDP3ltkw65esNgr2jAME6iYAUau7BnD/ygQWvoy5s2FCU8d3CJxcuTkjoSUCEDVLIHEZvwTmD9VrmdQhGBruSRYzRWrBAQJ1EYCo1UUe961MAEONOgQdsSQrN3EkZBCAqDHgIalfAtlC6lHaH0zHQz32fFIEl8XDCLXlt5fgbhA1tAEVBGj+jEI2xS4UKst/AMORKjpZIJmEqAVSkSEXI3PXp7iNsNB0MqDI/9h5O+QuKqpsEDVR1YHM9BKYbyDUVShiPnsQG5L2tm/8b58ARM0+U1zREoGFg+cMRQgJ5aGOcqyZhZGzlloHLgMC/QlA1Ppzwac1E1gYhYUWrAiOYo6t5u4V9O0hakFXr87CLTRgnQUraPm8aANDkTp7p/xcQ9Tk11FUOfzj0dVsZ+rgH+r5wz3i17kRRPqPqnN7KixEzRNo3GZ/AuQhBzGLy0ptwnlk/46BM0oRgKiVwoWTXRFYPEwWWlwPdJS3Vd+0mSsOELBFAKJmiySuU5nA8w0EJo5d4F5EvMjK/QcJuwlA1Lp54L8aCGCXaliotHTjRAMhtWrofsHdEqIWXJXqKhDWoUHQ9qzUxrpBEGRd/VdibiFqEmslkjzRQty9Bxrm08CC2sAoXP0j6f7OiglRc4YWFx5GYPbzKR7iEPL+beAgFmcP6zv4bjgBiNpwPvjWEQEMO2LYcZiVDscRRx0vgstC1CKoZGlFnB09Y7DRJ0RtmKjRd5PJpLSmi/woIABRU1BJoWWxiWG3/sNu4NLFpYmII6F1fS/lgah5wYybdBLY7xd6TN/DYh1usc4h+HFn18H7AgQgagUg4RR7BGafitVBZN00R1fN7Oi6mRs9Z779pdMDodJ3Lxw8Z8hSIdGbG6E0wx/+4f4QWDezT88OZIUvQKCXAEStlwj+d0pgLgtYHPYDeq6xbuZH1w3t2G37oI02s2tHJHIk6DhAoCgBiFpRUjjPCoEwLYrV1mamh1a9Lx6mbXqaEWzVQ7s34ACBIgQgakUo4RxrBOZH1rucAXSLHInZupn8cv3hnSgSx1wj3MXsNASLAwSKEICoFaGEc6wR0C1ij4dNJTsw0JxdiOsAIWzWumHQF4KoBV298grX1Gyp0TzWQT3bpMxnlltIlvGaCKtYXq9CjjoJQNQ6aeC9cwJaLbWmYmcFsiq1cu/Nt2QL2XnnwQ0KEYCoFcKEk2wR0DYsRp53tN+b9oPm3EJZ9D5sOYT2ekL++QQganyGuEIJAmqshsaamW2E53FH69+071+HSCMlOlyEp0LUIqz0Oou8QOushIeDIhd5ik8Z6pEeSVUvA6AF6dhQNNTWyS8XRI3PEFcoQYCG8iSLWkwLfZuNVdF1MaydzAVoRZfoRjh1CAGI2hA4+MoNAbHzahHu47UwqnVt26pZOrDkpoHiqqoJQNRUV5/OzGdhpIQNQcY8T9McOafSYqPlIThAoJcARK2XCP53ToD2yRo2tOT7O4qnGPtBcSppSM83e+79yKsTBwh0EoCoddLAe28EpHhB0vAbjhaBhcYpdaK2MIL6Q/vtJgBR6+aB/zwSmK/ZMkDYpScrm7w+udaT7/RPlgKfxEwAohZz7ddc9lYYp5pc/LH55MDap1BgvoWJc7/Fw+GtJxxYOfhiXwIQtX0R4QSXBJo1rVtzWaYQrj1/UFdorRCYowx2CEDU7HDEVRgE5kf8OSjQJqUSjsVriTl3PTHpe4nZaP/R++yzLRndcp42OxXmpdovP7QYGwcI5ARk9J48N3iNlkC2m7PjB2hdC6vT3cSkNxLz8vXEvPxuxyu9H/R3PTEbN9p/JH67/rsqRR7pJyISP1s4eC7avoOCdxPw31O674//QGCPgMuFwHWsaSIhO09iNki4Kny+cd1vl509rGMNW8zrDPc6EN5kBPz2EEAHgX0IPPe5FUPDSdasAdoD7YC/RbqJKWiJVRC0TnEkKy5N/XRfLcOQ+zQtfB0JAT+9IhKYKKY9AplnJAlSVYFrrBrfe2+l+fAiU7A6xWvoexK2G+67sJptaxpYs2avB+q9kvseoZcNci6AwOznKaI8OZKQ08IQh5LGmsnWvVGE/af8Rpk4fSUx530JWZ/70BAn5cHlQdvwVP6BUfWHSdl0QpyAXNYDrr0/Abc9Yf/74wwQKEWAQmx95wunDa2lah46a14cWTeLhxdLXcPmyTQMONSa6iNCrs5P33Xbna0OC5cVrILn26xbXEsnAbe9QCcT5BoEChGQJGh7QulwOLL5RfmLsie/7NdKL9RQcJJXAhA1r7hxs1AIvCzIQtsTtLZVuOHQYpM+BLlwyJ9TUChtObRyQNRCq1GUxzkBEo1eIZH2vyvX/z8eFT63hs1Dnbd/6TeAqFmuoW9feWBmdj4x01cfmemdh2Z6+4GZolf6u/rATG/Te/pO+1+rTFNUDirr9kPLJGVezruHI1NAXVCUbK39yVcumHT8ciB/l0w6Tn9UnksmnWj9vzl2yVw49qZJj7zhonrVXxOixqjCb135zExtPzQze2LVFq9cxKJ7fWRmth+Yya37DKpyk4qcQ9tH9CjPtg8KNSZV2BYOnzPnxy+2xSAXhRheL5p04rJ5Zfyy7epWdz37LV4dguIZnvqrz8xMZmk9NDM7D1rWV3TCVVC4tx+ZNKA5ewpTJW2IsWh+0mt2u7m0TV57BXbj669HKGo9wt226tLxnxZ/wAVypt3WHgiUzmLMXP3YTOVDiRCw0kJ+/NqnnTjVvi8qIBLPo3Vstg/J7v2rX/sRRC0btuwUussmfTYOK85+a7fde2q43jevfWqmyBKjYUUIGZvB8Wu659vSd/RaabnI0k4ANg9aI9hrIUn5f+V3/gyi9oSotQVu7JJJxy6aH3zjz202B1HXstvSRRWtfGaO73y8N7wIMSs4zFhQ9GnYVuORxXLcZ94qFw7pr1QWm4cUEevNx9K/eRWiNkjUuj6/aC4c/YnNJiHiWnZbuYgilc/E8bcePvZQLPiQhuiVF72ZnUflK6fmFNKFqlT+LEf47xUTKf9/57fOQ9S6xKtzGHLA+4lLNfc0e7ePWtTIDZ28FyFQ/hhMKZtjKyUaCiw6e48OY+aEbiLaPLQOUSsrau3zN8f1i1uUokZiNgOLrDYxH1cibNnGngqEqozw2pxby2JwFozJ6NuKe/mZNyFsFYWN1sS98gd6xS0qUXt2+/+Z6av+rBJYgINZ27QYXF1rb6fqkIQtkiHI9d97DaLGELXWou+L5oeTP3TVvZxdNxpRm97+tDbLBOL2pLhNCrfWNK9L289ym9yy1+19W2BF73f2d+HW3xKmAXNoJQRv86iupQD2Wrcz3eVdmB6erZBUTz5YITb1MaHwWpKPEIcec7GzuUVNUZHxfd7p//DfYKmVEK59BZAWcytZ5xa0qM1g0bRo63RyS66saQhanItU2VebUfznaXNWgfNqWKvGt9D6Ct2YfKstSFGj8EywzuqzwgpbwG/JjTZSVii0nW/r50RrV3J5wrb89Pdhqdm01DqvNXbZJIKVQ3DWqnU7Gm7M4zMWfrjCE7IWi46CH0s9tIlU2fza4j57+JxIS23p334XotYpRC7eT8jcJSAoUTuONWe1iFPlHw9Co4wsXtMfFms/kUstOYvMjp6RKWqIKuJH1I9dtPX7yNp1ghE1zJ8pGG7sYxFba8kWL3Tueviitv7X9rr+/Ki84ceXvopQWX3nxBxYbBeOvmmx9/EvZa9l8/NS+QqtjTd1PtQrWzl9BELjtSQ6i6TvhS9qG+/Y6/rN0XVx1tpLX3nFj6XiQCR8iZHN+0iKRGKvZVeWJF5CjQ9y5PnxDxDaEUHaoW136/2GGvt9bzOyCG3MKc0D8qUv0w7YjjwAcd2+bDfHZQxFqhY1iMNjcdDKYvLGr6RpmoGolasSiBrEM/8BsTlWv7CpFbVsv7NAhuC0CpKNfGP4sZ6hTgw/QohyIbL+WrOwqRQ1hLzSb6HlgljOJvBzdvp2PULTb5jQ1WdwFIGoWRezjmHZOi02daI2BetMl9v+sPoS6tJP7u6uxETKdW259J9opOLm02h+DxuFChDtY/VsQKpK1GhnakQKCcdKE734OnC3fls2LxZfCxCPDgvJpfVV5doXjvrfwkaNqGVu+9g2JhwrjSw4wWGyNm6Ea63ZjP0oN0zW9/p66FV5MCMNR7gvm/Toz2z9hip0HRWiRpmEhRaOhZbPp0l0Esl7TZB7qbX3hbMpalIDGp/69z+AqEmx4CYueY0VqULUprcfhGWhDJtniuQ7bD1TnyW4YXGj0PkReQuvaU4NW89wrCv7aX06jogXtSlsHxOkoGOT0PpEzeYmoU2B286QqGGTUPvCxB2GvTDmZ35NtKj94S8+MdOYRwtS1PJhPsmv5wOcVzv/rt0uLy2SSJ6f9d97DcOPUoYfO/LxvWPu40TabeGWn1AzELQgBW1cYGisfk03xN2vre56fUDm0CMJ28vPvAlR6xATrpVlM32/vmbzM7GiNo1hxyAFjXZT0HSE5jBik71UJ5HmoXUImlBBa4mj21BaIkWNfsnnHnJ4DcfrcWZHl6CRALwc0BAkxbS0eUgVtcXfSiFqokXtskkduj7bbeWWeszMDrwdQxNz2o1c45GYJBhho7LYPPL5K2mvJ7BBqHxRH7tssyl2XctuK++6dLV/6Nd8aA/02Mtz/JpOQctbMG3TIiW8VdV80PygzWNh9KzI8FgksKd+B2vUbM6BubrWqxOv22ySe9ey29L3Llv9zdR2OMNtsYsZlf+4EqeQ/Vqs9rm1/cpX9ntp1llnfla/9iP5loro4UF/ywHKtrsi54sSNRqighAEwmD7kUnTIk1Qxznprl5r7fQVu918MpkUa6WRuG18/XWImhLRvOBgY1G7rZ35fEIEfu2C9shQkOLJrfvMliAzOe1BVnX4r650FMPS9tEcXRMraguHN8z58YsQNSWiRkObtg/7Lb5iDr959ZO4rLTMKqX5Q61/LQGmcFfZ8guljiBlmyut86pLoErf14GgES+pUUTISvuTr1ww6fhl5X/+hv9czZeVue4rx94o2w2Hni9G1EIcdiSrZYriVr71qZm+8o9DKwJf6iFAsRNLC4xnMXRhoVENNUfOibXS8nk1PS2pWE7TiTdMOnbRpBOXWn+KrLBC4mbZE1KEqH3rymfBWGkzOw/NVCDOEcW6XJxnSV6/ZjMKf2/tSl2blgva3MHV3iwH+X969LJJJ8giDcSqsxg+S4SoZUNYyqPTT119aI7s7gbZgVCo/gSkClv/3PI/XTgk140/F7XJLwfknVSgytIj7YXmZMVpFjiLwY5rF7Xnd/9J9V5pNMQYkpdfgX5U6ynkefedL5w28wfPmuahs+bFkXWzeHixtjylUtaw3UgM5cXlId1KI2GL9UjT1GxO6HaQeW38NSvV57YXFMhiNuek0EojT83JG78qUEKcwiEw+/nUtHZXpuC5q4PncxprZr6xaujBO/uU31/r5DJfZ0R/irxPSw5cHs2G3ODFuZU211h3iUDFtb//dRqSVCpulqw1tz2hQDOYvqovJBYJMQ63BOYbZ808x3W8sWrmRv0+5OqI6p++474LS1+XlosaWe04WgTSMZ27FNioP/c9YkguaaNIbV6Pk9uwzoZUKfur5z63YuZsbjxJwnjA78PO15Ck7ViOgypPg5UW89DjoHrb85hUNNf2p7/PD51Vq6jRfJQWUSNHkOlI1mIN6iSuP3cZT7BZw69424u1aYiTrEFfYkb1PXtYvgt/bqm5bp8ar58e/VlrOYAWYbMwBFmrqKkRtO2H5rnrH2ls02ryPD/qY86mHnfvya3EUFBkcrUvs76Nzqc/WvBN1/B9kGddLhjSX+dGz/nGo+Z+6ZE3VM2zccH67yntHD//l+T1qCEs1CPz3PXPuJyRfgiBoQ4gNociR9bM3Gg9wtZb/HQrMenbiaFF0pngvZcY2u+MPqPvJBzNYY45luuFJZqj8Xo9Fm0n6bO0rk2L2z/PC7K23jOjxEHkubfgFFK041Q5r3mwnjiCVfIaU5o5LYKW/VDxO2eqtR2kR8liUyBsE7ydsesTNQXzaRp3atbU4TIPx7p+8Xv2jNRUL+QYIjm+Y69Vt3hYhvWtoY43xxREIWHOq9UmahqGHjU0Us15zNaV1SVqdN8G5mF628/CQT2OIbm49ZYB/w8noMFaG16C4d/WImo0RyVe1ODpOLzlML+lNWT5Q6nO19kGfuXnVfnC4dMi6qRMe1gYOZtnH68FCZDbvHhhe/ZywdI8eVotojazI9uVn/KHwx0BaYt5KdxW7IdGQSPxSxO/0WNCaSfSnUYo5FfVoxZRk7wZKOUNgYmrNqdi6SicUZlf4z7OnathHVsxWu7PImvVB2Pb96B5PxzVCFx+WvrcmjJRm5bsJHL1UbVWglSFCbDCXzmcgyOPv9gOrYJGAvl8A1Yap71uSt66huEsUoulJnk+jXYNwOGOAD2IbP9it3k9WpsVy0EL3jV5OXbWc0z15Ko9/nDyh4Ln1hTNqdE2LVJFjYYecbglsFDTurTOB+J+7+dG18yJgK2A2adnjZqF1QMs89nRM24baiRXF+0wUnFPL++WGi1mlipqMxh6dN6VpXg97idsmQVzKDyrTcNGn/vXTXj14rzjDbiB5G1qXp2oFtzYu6hJ3mpm9t69AVWPj20RkDqfNuxBunRgyVbxa7sOeZxqibY/rC7ou4XIdrd22WjSyS2xQ5CbE5cqFd2/qAmO91iJIBKVIrDfA0vi92S1ad6AMhQxo7ZBZcFhl0A6JjR0lhpRoy1cJAobFlvb7SkDrkZbwEgUrmJ5WjW0PY6WIxtqpB3BB8xLafx8Elaa9ea3KXan7Gpu/d4tNalr1CjAMg73BDQ+SHvzTI4kkiORNEfOmfnAxIzqoIlo/E46KC10FukwUtGt37uoibTSyHKEpeakw/RedF61pdZt9WTOJI01s3h4sbeY3v+nOTPaVkeri37vD4fe/+vY5NV7JdZ0w/SYUFEb1zKnJnTLmcmt+zU1qbhu2/uwCuf/VdNsrBoSF5+Hy93CJdUNDaXicEMgHX9NpqWmRtSERhPxbrK6aZ/ir0rWhKSHpf28UPnWzRx56R2y79SQxWhsrJlsbnK023K0XxYh1xeysav4zlUxg2mayhQ1NY4iO49EOopUbA9IVpLA7FOyI4q4EAYSOJqHozBcFGOS5ryGLR6m78gyIcuP/kIasi3Ll9ilRxAOq2Q3K3065tRKI3ucYFqiqGE+7XEFeXhX9sGG84VYTDV4Uc4eRNBiD11SpqWmZvgRouajjYq+R6jODBBfu+LbbEDQfHVkkZYaRI2x/g2Wmq++k92HhtdoWAkiAAaD2gAN12KvNH/dEqLGYI3hRwa8gJJqDJc16AGMz+2LMznE4PBHAKLGYA1RY8ALKOns5+NzGIH4FRO/JubRvPd0iBoDOUSNAS+wpAsjZzEEiWHYrjYw10AE/jq6OUSNQR2ixoAXYFIMQxazXuKw8tYxj1ZTH4eoMcBD1BjwAk06PxL6gmwIVxFRDnljVuldF6LGqCGIGgNeoEmfb6RBBuAt8iDHOWtZ3b8wAvf9Ors3RI1BH6LGgBdw0hf/Nay1WAVubvRcwC1bR9Egaox6gqgx4AWelNavxfpgj7bcBxGoWEK3hqgxagGixoAXQVL61R5zrMOYxI0W4OOQQQCixqgHiBoDXiRJEUYrfMcSCu6MQw4BiBqjLiBqDHgRJW0ewhq2YK22Uftb8kTUNZwUFaLGwApRY8CLLOnCQRqKDN9qiamMGHKU2Ykhaox6gagx4EWYdL4Biy0M0Vs383AKEduDIWqMqoGoMeBFmpT21EJUf90Wa/OL8HKU3H0haozagagx4EWc9LnPrRiE1NIobOtm/hB2rpbedSFqjBqCqDHgRZ6U9teifbbCGI6LoRzr5ttfwhYyGrotRI1RSxA1BjwkzQhQrEi4/csXRTRXPQQgaoy6gqgx4CHpHoEXD29gOFKoZ+hcA/Nnew1VyRuIGqOiIGoMeEjaRWDpwBKGIoUJ2wsHEcexq5Eq+QeixqgoiBoDHpL2JTA/ug5xq1vcRlexF1rf1qnjQ4gao54gagx4SDqQALn9I2ak/3k2WmpB0V9w6CYAUWPUH0SNAQ9J9yXQbGALG2/eoWSdHYG7/r6NUsEJEDVGJUHUGPCQtBAB2psNi7XdWW3NkXWzAOusUFvUchJEjVFTEDUGPCQtRYDCMs033D3cvVlEdc+XddyfBA1HeAQgaow6hagx4CFpaQKtBdtwJOEKcLOxbmafni3NHwl0EICoMeoJosaAh6SVCdDcT+bU0GF1cB/0UaQfXTOLhzFvVrnhKUkIUWNUFESNAQ9J2QSeb1CoLVhu+wlyc2TVzI6eYfPGBXQQgKgx6gmixoCHpNYIZMOSIxC3LnFrrJm5xpqhRe044iIAUWPUN0SNAQ9JnRCg+aLYHUpoaJaEHkecBCBqjHqHqDHgIalTAhRRPp5AyetZ7MzZpyBkThuVkotD1BgVBVFjwENSbwRepKHJQLe5mRtFfEZvDUnJjSBqjIqCqDHgIWktBL7zhdOGtrvpmn9S4kWZ7T/XWDUk0jhAYBABiNogMgU+h6gVgIRTxBKgeSeKM5kNUwq15OZGVs3CIawrE9uIBGYMosaoFIgaAx6SiiTwAllto7kll7+6jmSybsjtniyxORoqxR5mItuGlkxB1Bg1BVFjwENSVQTICYPWxDXJoqNwXSR85DbfOXSZWXskhL1i+Fi0yCqkQM0UDf+PDsCxQ1UjUJJZiBqjoiBqDHhICgIgAAIOCEDUGFAhagx4SAoCIAACDghA1BhQIWoMeEgKAiAAAg4IQNQYUCFqDHhICgIgAAIOCEDUGFAhagx4SAoCIAACDghA1BhQIWoMeEgKAiAAAg4IQNQYUCFqDHhICgIgAAIOCEDUGFAhagx4SAoCIAACDghA1BhQIWoMeEgKAiAAAg4IQNQYUCFqDHhICgIgAAIOCEDUGFAhagx4SAoCIAACDghA1BhQIWoMeEgKAiAAAg4IQNQYUCFqDHhICgIgAAIOCEDUGFAhagx4SAoCIAACDghA1BhQIWoMeEgKAiAAAg4IQNQYUCFqDHhICgIgAAIOCEDUGFAhagx4SAoCIAACDghA1BhQIWoMeEgKAiAAAg4IQNQYUCFqDHhICgIgAAIOCEDUGFAhagx4SAoCIAACDghA1BhQIWoMeEgKAiAAAg4IQNQYUCFqDHhICgIgAAIOCEDUGFAhagx4SAoCIAACDghA1BhQIWoMeEgKAiAAAg4IQNQYUCFqDHhICgIgAAIOCEDUGFAhagx4SAoCIAACDghA1BhQIWoMeEgKAiAAAg4IQNQYUCFqDHhICgIgAAIOCEDUGFAhagx4SAoCIAACDghA1BhQIWoMeEgKAiAAAg4IQNQYUCFqDHhICgIgAAIOCEDUGFAhagx4SAoCIAACDghA1BhQIWoMeEgKAiAAAg4IQNQYUCFqDHhICgIgAAIOCEDUGFAhagx4SAoCIAACDghA1BhQIWoMeEgKAiAAAg4IQNQYUCFqDHhICgIgAAIOCEDUGFAhagx4SAoCIAACDghA1BhQIWoMeEgKAiAAAg4IQNQYUCFqDHhICgIgAAIOCEDUGFAhagx4SAoCIAACDghA1BhQIWoMeEgKAiAAAg4IQNQYUCFqDHhICgIgAAIOCEDUGFAhagx4SAoCIAACDghA1BhQIWoMeEgKAiAAAg4IQNQYUCFqDHhICgIgAAIOCEDUGFAhagx4SAoCIAACDghA1BhQIWoMeEgKAiAAAg4IQNQYUCFqDHhICgIgAAIOCEDUGFAhagx4SAoCIHmN0UMAAByMSURBVAACDghA1BhQIWoMeEgKAiAAAg4IQNQYUCFqDHhICgIgAAIOCEDUGFAhagx4SAoCIAACDghA1BhQIWoMeEgKAiAAAg4IQNQYUCFqDHhICgIgAAIOCEDUGFAhagx4SAoCIAACDghA1BhQIWoMeEiqikCy+L5Jlm63/+6Y5CT9tf+nV/p/+fbjv+wz+pw+u9NKR69ZmjsmWblj6Jo4QMA2AYgagyhEjQEPScURSBJjkqVftoQpE5+2KHUKlNP3JH53THICYieucSjKEESNUVkQNQY8JK2dQGZ5Ld9qWU9OxYojjrdMsnTTJGntuJABJQQgaoyKgqgx4CFpLQRaQtYeDhQrZANEkIY/aZjz9N1a2OGmOghA1Bj1BFFjwENSbwSS5buPhxS1CdnA/Lbn51Y+8MYRN9JBAKLGqCeIGgMekjolkJz6MEAhG2bB3TbJIiw4p41KycUhaoyKgqgx4CGpdQI075R5Gg60bgaIQkjnZx6YEDfrjUvRBSFqjMqCqDHgIak1AsniNeHOHjWKabprjTMupIMARI1RTxA1BjwkZRNIXvygLWbSPRhrFDWyQtvr69jAcQEVBCBqjGqCqDHgIWllAsnCrklOQsiyhdylhk5vGbJqcYRNAKLGqF+IGgMekpYmkA0z5lE5Sj3Ma7aUxOX1Fta9lW59ehJA1Bh1BVFjwEPSUgSySBvixEG5WJ64VaoOcLIOAhA1Rj1B1BjwkLQQgeRER5xFiJoDh5hbJlm+V6gucJIOAhA1Rj1B1BjwkHQogSS933JwgJA5ELJ+FuadofWBL/UQgKgx6gqixoCHpAMJZBHsIWaexKxD4MhL8vTNgfWCL3QQgKgx6gmixoCHpE8QSCa3YJ2JEHPMtT3ROBV9AFFjVBZEjQEPSbsIJOKj5XdYNCKEx3V+aM+3j7rqCP/oIABRY9QTRI0BD0n3CGSba0YhFK6FyMH1lxFya6+hKnkDUWNUFESNAQ9JTWu4EYuoyy+idiBeQ39UYDhSU3eFqDFqC6LGgBd50uTsL/07Qgx9cPsWCmX3IycSbFSqotdC1BjVBFFjwIs4aWvtmbKHOgSxvUEpvCOld12IGqOGIGoMeJEmhUNIAGJ+4v1IW6+OYkPUGPUEUWPAizBpFi0eFk8Yw67YcVtsD4aoMaoGosaAF1lS+c4QAVhQvn8wLN2OrBXrKC5EjVFPEDUGvIiSwkILVTApbiRc/qV1ZYgao0Ygagx4kSTFGrRQBa2jXCsQNkndGaLGqA2IGgNeBEmTJaxBi2bYFRabmB4NUWNUBUSNAS/wpBhy7LBkfM911XW/U1ikLaFbQ9QYtQBRY8ALOCnNs0RjodQlIFLvuwJhq7trQ9QYNQBRY8ALNCkWVkdoofUK7Cw2Ha2ze0PUGPQhagx4ASZNFmGhwUJtizpCatXWwyFqDPQQNQa8wJJmwYl7f7Hj/4iHYTEMWVcXh6gxyEPUGPACS5qchKcjrLSeodclCFsd3RyixqAOUWPACyhpcvJOxBZJz4Mc1ml3W1jYDail6ygKRI1RTxA1BrxAkiYrH3Q/xPBQB4+uNgBrzXdXh6gxiEPUGPACSJqku3iAdz3AYbX1HYI9A29In90dosagDVFjwAsgKYYdIWJ9RaxX6DG35rW3Q9QYuCFqDHjKkyYrmEcr9EDvfcBH+f8d5a1dV/Yhaoz6EilqOw8ZJULSIgSS9D6GHZdbEeqzOcXTg3eDTk7fNMmpu1k0+8exMCP0FF3GEGSRvmXjHJGiNnapUtGSSqkYiaa3H5jpnYfi/ryDYDDUmDSquI7Lt02yfMckpz60XlXJaVqsTgIXgcgtw1qz3oD6XDBJjBEpahNaRO2qTFGb3Lrfp7rxkQ0CUYTBynYX+KUNXIWvkaSmbc3RPF2YIlcYBk6sTCAdf02mqI1frlQm7waKRCuN8nR851ElgEi0P4GgnUPIKhMQ3ikb3qXhzaWAHFGWsUv2/r2Lf8aFictCRU2JpTYlcOgxE9ptzKvxu8eTV8iG4YJzdLhlEsFbpiQBiduTLQqf2CawOXFRpqipmVO7Km8+DaJmu5u0rpcsXgvMOYQcPfQsDA5hOx83LRNX7SSwOS5U1MYvdmaz8HsMP3ZYjoWp4cRCBIKy0hTv0pwsaV1KAUeRQh2NeVI6dkmkpbY5pkXUhDqKkLU2ew8uxMz+sZc8OXMvDCuNHEAEzJntga34RutcW8XiIllBAunklkhBa3ljKnEUee4tmd6P2RDkW58WbAo4bT8C+r3xbhny2gzt0LX4Ozz+0trTplArjUTt1YnXK+HyPvyYpkbcGrVM0GgYEs4ilRpRbyKtVkHXA39yq7dYwfyfnNASf3PwAvVgKqPmgqQTMoceM0uNxKLC4V3UKI97ItIxnyXls8mtf66AEUk6CXSJgzbPx6U4rANacPs4WonQZQAptqDp7Fe236fPynXlTyuuUSNG9Yia0KgiJKxT2w9st52orpfM3jMJrd1SJ2a3TbJyN6q6yh4AguspusrwXOBUrNfjJUPOK1WPWkRN7Fq1nYdmZucBHEaqtib6laRx889MhO2HtGJg9JpUZKBpROl32gYuP01WmmRLrZrnI0GrRdRIOKQMN/bLxxTm1ip1qCxsk8aIFi/FZ6H1VnCydFOOdU0/MgKe0+xlX8f/m4KjiGTzadostT/8xSeiRS0TOghb6b6mzkGEHp4QtL16FmOxITzWXp24ePOnv/+6YDf+tuPKs9Xc+YlXLZYa3XhaamSRtvMKDZHiKEdAlahlFmW8Q46DarZ2YaN6qe2pNIhKWJ+Lnksbb4kah3htzWf66iP51tpVBDku2rhomxVVziEROoUUrss6I/4HuDawKHcf56VS4zy2xay16Lq6kwgxrE3UpoTPq+VzbcevYUF2kc6myuMxErf9IvU26JxafqBg/7RB1WHl83TiJ/KHHUncGPNpBKo2UZu88Sv5lhq5+NNw5JV/tNKoQr5ILQ/Biu7oEuph8Vpizl1PTPpeYjbaf/Q++2yrtm7ZhcZrnSoKFN0FSck/stek9S4Af41FtdbeQ16GuUUk/RWbiA5uZ6qstBq86tLdxKQ3EvPy9cS8/G7HK70f9Hc9MRs32n8kfrv+u2q2QNvHUOQS9k0b3Lv43/zgG3+uw0KzMJ9GtPz3lI46mtIwr5Y7jlx9aCYxFNlRe4/fqonz6Hm+hoTsPInZIOGq8PnGdf9d1pnFRk4hsNAedyQH79KjPzPpmNStZXottEtmkxFJJMfnv4fkdzYmEwnpFlpv/qbe/qSjBHhLBJw99CoOL/bNj6fFvIkpaIlVELROcSQrLk39dd/Ms3XZ4hY2tJxi5SN0IIcEXhG9uPpJQSMnEVpuwD389YoBOZ0WvBVNr6Dl/9PicRwtAsmpuzpErVps1FLVnObDi0zB6hSvoe9J2G747cLsRdpknXm2mEtVYiAnb0oOVNzj6Zh7PNKrjcNvj+iTY4q1mIuFptepnUfm+b/8pz4liusjFRuBOt7g8/SVxJz3JWR97kNDnJQHn0eyTPvlFbXc7rTigc5iv0LXdfS9Y2+qmj/rFDSu12PO1m9PyO/a8Tp+7VMzvaNgzdqAHQVmth+aijskdFDQ+1b+gutbTuHSMOBQa6qPCLk6P323vu6cLF7L5seS5bblfvomQl05bXndF9/KNvvUM3fWJWZty+21cZ7XY06kvl6Q50D4VjSFrMe2F2dsO2fLFzS3jgiSBG1PKD0PR3Z0Y7ytgQAFJtY61NglbMy1aZ3oRYgaLXAuJB4DrCUxabcfmpntB2bq6oN63Uo7a9jhe/mi5s5Ke1mQhbYnaG2rcKNGi81hc8Ol2wRoqcWFsZ8YLdFBusRrwHzaK8/81Fr9ihA1Ko0YYXIgnORYMnUlPOcS8fNpp9yIGolGr5BI+78O139rTyVcqItA+h9/bDaPXc4ibRQRCI3ndBWY+Y8YUftmKNZaUVHMhixpLlHv329c+BvRno/MvtE3uXcPR6aA9i1EhB/SnNMF2hSzyysw31NM2mt/d3eNYlUoz89Uj8jfrymLETXKnOTNQ0O2JCuVbfuh+Zdninq/1bATtoN1aSLn0PYRPcpzzEc69qZJpe8dNmBIrpAgaE9rcS4tb+eiWvzx7UDm1opaa4rPe/YvPhZtpdGGpTYPClMlbYixaH7Sa6K6uc1qGXitV469ode1XbtQlcj/haN21qZ1NgRxrV36PmuVrBrF4jWovF/7+T8IFjX7c2lFBUTiebSOLZYjPZJCzEqISr3WoN1hx7yNi2vtFIaKHCsGPUzxuYwg0L/947+TK2qW90pL39FrpeUiSzsBhH5kcQ7VPNAjmzfrVy+M3a2HtWWRLX0mQMsmNDH+wvf/j1hRG9bgy36XxXLcZ94qFw7pr1SWUI904o0eJxCIRr1W2H78LzpriiJbOW3zMq1oW5rQBKtIeX59Q+pO13aHHqULVan81RDh39mTq+PCqkND9bNgIviMFo27OkSKGhV2RnHorCKioP2cXztVg0djkaj9lndPLiUaCiw6Vw+Suq6bpphDk22R9bPY3Flp1A7FihplTvuDP9T8/+dffCJ26DE59aG152u2sacCoSojvKHNrXWvO+v3AMVnokRvzJ2Flnd80aI2s/P3EDaB84vP/K/7YkUtb9g2Xvd2qg5J2AIagkyfpUXTEC1VDP7Tz210zaHXEC1qlHOKgh+qxaO1XL/73/8+eFHTvC5tP8ttckt8tx/60Mq/TBVugqlKgCz/YLjgYKF13hY6X1W0bq0P/1Dz/e8ufxS+qAkOWLyfaO33fZ1b1HQ+fDjvX30Gi6s1CSTtJODrUCFqlEmE0JJjsX71x38rU9SW7Xk+aghavJ94Dfo+hCj+tKGkpod67HmlnQV8HR5vxSvS5Dv3sShbyPzal370f4WK2l1eI+tIPUgQQvm8o6gq38YuEmrKTwGkPcyjdTZiNaJGmZ5+C7EhJQxpjvyZ0IXXKx90tm3W+1DEa1A5WHBqTvzdo3AQ0SJqFIPT96FK1AjON689gMVWs8X2xe/fk2mpLexa6T+L1/SHxRokZvnnqWJnkc2Jixh6tOzE4UYk37TSH8teRJ2oUQGnsDC7Vo/QA9+TJ2r/Yvl22bY/8Pxz18MXtfW/Vtn1szrbpH3RVDzUI5738+Tp2K8Tq23Z09u0uaYc54mY8vKb35W3OeivnbrTr31X+ix9L3xR23hHbdc3KURNvKhX6niWEult2TTHhjVstQj7516RJ2q0YamtQ9vu1vmQYplXzZFFEEVEsgXoPmLIfv1ctahR4bA427+1ClHTb8lB1CQLg9K8TdQvaKQJ6kWNCjGF/de8WmwYfgxA1DD8KH4IT9O84eZRGYIWjKhlwnYVc2y+5vVEOoqctOcokr6tX7T2G4qEo4hSa0iig4yHIMX0jC96BGGp5YU9vvOxV4vFl4hIu49Yl/7TN/OmwHold/f9REH793Dph6jZsgRZnc1B4qBEjfjAecT9HFsUi68Dd+t38CzxdkksvhYgyBMXzXe/8VNvdV7mRsGJGhWeCjWDeTZnVmsMYbI2Ag5oHETsR4nDcBHlyWcsxzKClj//y6ZRcz55RiIQsn3L7auv/53MiCIWAxoHuZdae1+4IEQNAY1rcXS5MO5212ob4hKkpdYJhoYjIWx2hQ1bz+iec9sIYKNQbD3jeQiSAhMf/Vnno1Xs++BFLSc/hYXa1oYjsUmoblHDJqGeBUH5sOTm+E/yx6iK12hEjWpjcuufrT3YpXkk+szPM//7vszhR4tu/dRezgc4r3b+3XC6fPosovXb8mAceJ0jP1chZJ2ZDKeFd5Zqn/ffuvIZIpEw4mb+l198IlbUkhPv71P7xb9OAxS1EHa97qxBhMxyZHUeqyfCfmfdVn0fpajlsKZ2PjEYlqw230YBhJOTtwX+2dv9mtpJaA4jedsP5ZW88AZaGcqH/byXa+KiuVBjdH1bbTJqUcshTl371ExvP8DQZAnr7dc3PhAoaC2RzevVxuvLAVlrFKg5xON7x96EsLEE/LLR4NVYtO2G2cqLlr7nvG+SuO08xBq3AuImNqrISbuWWmISE4qwUVlCPdKJNwyGIksORZJH4/il4JpEuK2cUVXfvtKy2mYKPNx9OmhIutdvS12rRkOiJ+wKG0W0Vx8W60b4XZ1czr0P2bEspJIiZONe+a7hR95gPCFlJw2/pTP5Z9bb1WrzTpJEyHZevvY//kHs8CPN9dk+tM+t2eYh9XrpkRTC9oT4kZfoRfPqH8hfOG2jXUHUSlD81jsfm5ntB9li7tgXdD/7Fx+LFrUkLVGxBU5Nd/Vaa6evxNfNXzn2RrziRsOKE5fM5vhFQ3EyYzvia+0Wa/i5t0jgOhxMYrLoth+af3VGqgfkbZMs27fWNt7RJ2wUwzLmIx1706QTga9noyHFbH7soknH4rDGhrXpuFv8MDIVv3vu+keGvClb83GPzNQO/T3MLLzpnUftXQRo7zf9f7/xyt+IttYqVuHQZLTOS838WuSC1lmRW5NbmYdftzMJiZ3kP5pzaw0d5nOFZH1tjl/KyvJfn/mfnUXE+zYBiBqaQmUCZA3JXKvWztepu5XLNiwhxU6ULmyxW2jD6g/fhU0AohZ2/TotXbJ0U7aoOXAYyYFKdvMPIQp/zhmvIFCWAEStLDGcv0cgSXfFi1py4s5efm2/kSpstsuJ64GAJgIQNU21JTCvyUnBziK0Zs2Bw0hnNaRS1rDdSAzlpa4jWbxmkuVbJlm+2/qhc/qmSSa36soO7hsxgfp6QcTQQyp6siR8Xo2EbemmU+TkMl9nRH+KvE9LDnweyfI9U/wHzZ3sx0Uye89nFnGvSAn47QmRQg652MmpW/KHIMmhxfK6tX51WkdU//Qdv12YPY9KP4IcDgn3qxd8FhcBvz0iLrbRlFa0B2THTgK+KsTXkKTPWI6ZRb5scaiZfmisfOSrSnCfiAhA1CKqbFdFLT4MVfNQ5coHrhD0va7txdo0xEnWoE8xo4I5+9FCVtuy3TidfSsCH0ZFAKIWVXW7KWzyknzX/r0Hc7rrBsKQq05uJYaCIpOrfZn1bXQ+/dGCb7qG74P2KktOehheXrIf/cU3K9xPDgH/PUVO2ZETiwT2RKNjuE/kZ0syLIN0KzHp24mhRdKZ4L2XGNrvjD6j7yQcXusPFpuEKg8iDzJ6TxAo4y5EYnO+xbUwChE2yS3Gq6Dl9b3sbk2hZNbIm10CEDW7PKO9WvJSe31S/oCS/grLYGBbzdab1VV/8IwcWC/4ohgBiFoxTjirAAE1DiP5A/slt+vXCiATd0qy4mEOLeff75WcR/BUEtcuNGUIzUdTbQnPq4qF2L0PUjgp7LUq2jG8lmHH3jpxHAVmr8B4EyQBiFqQ1VpPoWiBsxdvud6HIPf/Ux/WA0zQXWsdcuytP1rDhhBbglqHrqxA1HTVl/jcJksWF+j2Puxc/U9DXhEPRSYnBS7JgDOP+L4uNYMQNak1ozRfrSFIIcNYFURQKfbK2ZY8D1q5UEgYNQGIWtTV76bw4jcPHSZ2kcyxZQuryUIdxqLu72pYKO+mR+CqPglA1HzSjuReKh1Geh/gAT9Q9VjT8E6N5JFhtZgQNas4cbGcgHphI2eFpV/mxQnmVZRDSO8PiSf+x2LsYBqex4JA1DzCjulWyeLd1h5aTzyohA95PZHfW162rXHdNmgvM40/NFxzwfXDIwBRC69OxZRI40N04ByT4rk2VSHMun5UwFIT05kVZQSipqiytGU1Wbwm2xGh6wFaxIK8o2pIMlmh/BYpl9xztLV55Ld+AhC1+usg6Byo9oQcKHq0ZMHv3mxlGonIdWcDWQ4X1DLlxrkgQAQgamgHzgkMHNKr+KCTcz0St5siol8k6W4gc5gdIodwWc77Zog3gKiFWKvCyhSmtdbx8KWNNMlbcvmuV/IUSiobYlT/46CTZfd7r0BxsyAIQNSCqEb5hUiW9EYZKWUZZnNYVNbWfJbtmsl2Gc9CkSkMR1ZWfLG/mu3mE8X1IGpRVHP9hUzS+4E5jXRbFEOFL1vzdstkcTGX6fW2Sc7cG1gpyYndLBZltqYsE0n9Dh9D+QwSu+XBjAbCwxfRE4CoRd8E/AHQ7olX6cE86IGNz/f5kQN3fn89M6w7QdTCqk/xpYEwlLDwYhY+ROkX35elZhCiJrVmAs1X5twQ88MaZd/HQmuL/pDh2UC7BopliQBEzRJIXKY4AV3xB2FZ+beubxVvTDgTBHoIQNR6gOBfPwT8PyghTmqYL+z6aYS4S5AEIGpBVquOQoW/fg1CWlpIMZemo/MKziVETXDlhJ61JDXqYxOWfmhjTm3InBqGHUPv8z7KB1HzQRn3GEgg26IGD/ohD/qIrL10YDPBFyBQmABErTAqnOiKQLL4vkko1BTELVIGtGcd5tFc9a/YrgtRi63GhZaXdpmGqEVklXX+gFl8X2irRLY0EoCoaay1QPMMUYtM1CgE2IrcLXwC7WbBFwuiFnwV6ypg6FHnIdwdwn0CobB09U4duYWo6ainqHKJxdkdD/7OYbpQ3mcBnm9H1aZRWH8EIGr+WONOJQhEs1VNKEJVphyw0Er0BJxalgBErSwxnO+NQLICj8jghiuXYKF560CR3giiFmnFayk27SYd3IO9jFUTyrnkFLKMxdVa+p3mfELUNNdeJHlPTkSwy3Mo4jWoHC/djaS1oph1E4Co1V0DuH8hAtkGo+RgMOihic+FsrljklnsYF2okeMkKwQgalYw4iI+CCRn7pnkJKw2PcJ+yyR4wvjoGrhHBwE0uQ4YeCufQBYEGSG1hFplHZY0HELkd6ZAcwhRC7RiQy8WPCM7BETa0Ctc9kPvfqLLB1ETXT3I3DACyckP5Vss0gTHZX6ysFcfDasyfAcCzglA1Jwjxg1cEkgmt0yyjHm2WufZsgghcNd32c5x7eIEIGrFWeFMwQSSpZvYcNSlFTbs2qc+FNwykLXYCEDUYqvxgMtLruOw2jzNtWXLK2CdBdyd1BYNoqa26pDxQQSSkx9grm2YZcX9DgGJBzU9fC6AAERNQCUgC24IJEuYa7M+17aC7WLctFZc1RYBiJotkriOSAJJer+9YBvBkasL3C2T7ZqAp4XINo5MdRNAM+3mgf8CJZCsfGQSLNouNyybBSG+bZJ0N9BWgWKFSACiFmKtokwDCSQnduElWWhO7Q7EbGArwheSCUDUJNcO8uaMQGtY0pOnYCEREZSXyS1n3HFhEHBNAKLmmjCuL5pAFktyCfNtCRxARLdTZK44AYhacVY4M3ACyeL7LYcIbZZVlfy23fKTBcyXBd6soyseRC26KkeBixDI1rqFasG9dLMIApwDAioJQNRUVhsy7ZNAa+dtWvOmcZjyVivKCkJZ+WwyuFeNBCBqNcLHrfUR2HMwIXf3TOSECV2Wr7bTSaqPL3IMAlwCEDUuQaSPnkCyQmG5yJK7Y5J8rqrKPFfpNO1F0Su3TPLS3ejrAQBAgAhA1NAOQMARgeTFD0yyfLcldGTVZVvk0Gun+377/14xJIsrX/xMYknCRTsRvPiBo9zisiAQBgGIWhj1iFKAAAiAAAjAUkMbAAEQAAEQCIkALLWQahNlAQEQAIHICUDUIm8AKD4IgAAIhEQAohZSbaIsIAACIBA5AYha5A0AxQcBEACBkAhA1EKqTZQFBEAABCInAFGLvAGg+CAAAiAQEgGIWki1ibKAAAiAQOQEIGqRNwAUHwRAAARCIgBRC6k2URYQAAEQiJwARC3yBoDigwAIgEBIBP4/4ccwnSCMwfEAAAAASUVORK5CYII=;" parent="1" vertex="1">
          <mxGeometry x="405" y="684.3" width="30" height="28.7" as="geometry" />
        </mxCell>
        <mxCell id="jQ6PLCfD2OhDec-2yi4n-3" style="edgeStyle=orthogonalEdgeStyle;rounded=0;orthogonalLoop=1;jettySize=auto;html=1;entryX=1;entryY=0.5;entryDx=0;entryDy=0;" edge="1" parent="1" source="jQ6PLCfD2OhDec-2yi4n-1" target="39zNZT4erERow79e_R9T-86">
          <mxGeometry relative="1" as="geometry" />
        </mxCell>
        <mxCell id="jQ6PLCfD2OhDec-2yi4n-1" value="&lt;font style=&quot;font-size: 12px&quot;&gt;IIS&lt;/font&gt;" style="rounded=1;whiteSpace=wrap;html=1;verticalAlign=top;fillColor=none;" vertex="1" parent="1">
          <mxGeometry x="210" y="660" width="120" height="60" as="geometry" />
        </mxCell>
        <mxCell id="jQ6PLCfD2OhDec-2yi4n-4" value="" style="shape=image;verticalLabelPosition=bottom;labelBackgroundColor=#ffffff;verticalAlign=top;aspect=fixed;imageAspect=0;image=https://www.puresourcecode.com/wp-content/uploads/2021/02/microsoft-iis-logo-wallpaper.png;" vertex="1" parent="1">
          <mxGeometry x="236.48999999999998" y="679.77" width="67.01" height="37.76" as="geometry" />
        </mxCell>
      </root>
    </mxGraphModel>
  </diagram>
</mxfile>
